<svg width="606" height="384" viewBox="0 0 606 384" fill="none" xmlns="http://www.w3.org/2000/svg">
<rect x="0.5" y="0.5" width="604.594" height="382.131" rx="9.5" fill="white" stroke="#CAECF9"/>
<rect x="579.83" y="39.063" width="8.91001" height="8.91001" rx="4.45501" fill="#2C3540"/>
<rect x="566.87" y="39.063" width="8.91001" height="8.91001" rx="4.45501" fill="#2C3540"/>
<rect x="553.91" y="39.063" width="8.91001" height="8.91001" rx="4.45501" fill="#2C3540"/>
<path d="M22.7019 31.8136L21.0639 31.5406V30.2386H24.1929C24.6689 30.2386 25.2849 30.2106 26.0409 30.1546C26.2229 30.1406 26.4399 30.1266 26.6919 30.1126C26.9439 30.0986 27.2379 30.0916 27.5739 30.0916C29.6879 30.0916 31.1649 30.3926 32.0049 30.9946C32.8589 31.5826 33.2859 32.4646 33.2859 33.6406C33.2859 34.6766 32.9709 35.5446 32.3409 36.2446C31.7249 36.9306 30.9129 37.3506 29.9049 37.5046C31.2909 37.4906 32.3759 37.8056 33.1599 38.4496C33.9579 39.0936 34.3569 39.9896 34.3569 41.1376C34.3569 42.5936 33.8459 43.7626 32.8239 44.6446C31.8019 45.5266 30.0939 45.9676 27.6999 45.9676C27.0699 45.9676 26.4889 45.9466 25.9569 45.9046C25.8169 45.9046 25.5789 45.8906 25.2429 45.8626C24.9069 45.8486 24.5639 45.8416 24.2139 45.8416H21.0429V44.5816L22.7019 44.3716V31.8136ZM25.7469 37.0426C25.9009 37.0566 26.2159 37.0636 26.6919 37.0636H27.6789C28.5329 37.0636 29.1699 36.7976 29.5899 36.2656C30.0099 35.7336 30.2199 34.9846 30.2199 34.0186C30.2199 33.0946 30.0029 32.4226 29.5689 32.0026C29.1349 31.5826 28.4139 31.3726 27.4059 31.3726C27.1399 31.3726 26.5869 31.4006 25.7469 31.4566V37.0426ZM25.7469 44.4556C26.0689 44.5816 26.6849 44.6446 27.5949 44.6446C28.7849 44.6446 29.6459 44.3646 30.1779 43.8046C30.7099 43.2446 30.9759 42.4326 30.9759 41.3686C30.9759 40.3466 30.7309 39.6186 30.2409 39.1846C29.7649 38.7366 29.0019 38.5126 27.9519 38.5126C26.7759 38.5126 26.0409 38.5266 25.7469 38.5546V44.4556ZM38.4746 32.2546C37.9706 32.2546 37.5716 32.1076 37.2776 31.8136C36.9836 31.5196 36.8366 31.1416 36.8366 30.6796C36.8366 30.1476 37.0046 29.7066 37.3406 29.3566C37.6766 29.0066 38.1246 28.8316 38.6846 28.8316C39.2446 28.8316 39.6716 28.9856 39.9656 29.2936C40.2596 29.5876 40.4066 29.9586 40.4066 30.4066C40.4066 30.9666 40.2386 31.4146 39.9026 31.7506C39.5666 32.0866 39.0976 32.2546 38.4956 32.2546H38.4746ZM37.3616 36.1606L35.8706 35.7616V34.3546L39.7136 33.8926H39.7556L40.3436 34.3126V44.4136L41.7506 44.5816V45.8416H35.8916V44.5816L37.3616 44.3926V36.1606ZM46.7839 46.0306C45.9019 46.0306 45.2509 45.8276 44.8309 45.4216C44.4109 45.0156 44.2009 44.3716 44.2009 43.4896V35.7826H42.8359V34.6906C42.9479 34.6486 43.1509 34.5786 43.4449 34.4806C43.7389 34.3686 43.9629 34.2776 44.1169 34.2076C44.3549 34.0256 44.5579 33.7106 44.7259 33.2626C44.8519 32.9686 45.0829 32.2406 45.4189 31.0786H47.0989L47.1829 34.1656H50.3959V35.7826H47.2039V41.6836C47.2039 42.4676 47.2249 43.0206 47.2669 43.3426C47.3089 43.6646 47.3999 43.8746 47.5399 43.9726C47.6799 44.0566 47.9249 44.0986 48.2749 44.0986C48.6249 44.0986 48.9889 44.0636 49.3669 43.9936C49.7449 43.9096 50.0599 43.8116 50.3119 43.6996L50.7109 44.8756C50.3189 45.1696 49.7449 45.4356 48.9889 45.6736C48.2329 45.9116 47.4979 46.0306 46.7839 46.0306ZM51.5551 40.0666C51.5551 38.8626 51.7931 37.7916 52.2691 36.8536C52.7591 35.9156 53.4521 35.1876 54.3481 34.6696C55.2581 34.1376 56.3151 33.8716 57.5191 33.8716C58.0791 33.8716 58.5621 33.9136 58.9681 33.9976C59.3741 34.0816 59.8291 34.1936 60.3331 34.3336L60.9421 34.5016L60.8161 38.0926H58.9891L58.4641 35.7826C58.3801 35.4186 57.9671 35.2366 57.2251 35.2366C56.4411 35.2366 55.8251 35.5796 55.3771 36.2656C54.9431 36.9516 54.7191 38.0226 54.7051 39.4786C54.7051 41.0186 54.9711 42.2016 55.5031 43.0276C56.0351 43.8396 56.7421 44.2456 57.6241 44.2456C58.6881 44.2456 59.6681 43.9586 60.5641 43.3846L61.0471 44.4766C60.6831 44.8686 60.1231 45.2326 59.3671 45.5686C58.6251 45.9046 57.8201 46.0726 56.9521 46.0726C55.1601 46.0726 53.8091 45.5196 52.8991 44.4136C52.0031 43.3076 51.5551 41.8586 51.5551 40.0666ZM62.7178 40.0246C62.7178 38.7086 62.9768 37.5886 63.4948 36.6646C64.0268 35.7406 64.7338 35.0476 65.6158 34.5856C66.4978 34.1096 67.4568 33.8716 68.4928 33.8716C70.2568 33.8716 71.6148 34.4176 72.5668 35.5096C73.5328 36.5876 74.0158 38.0576 74.0158 39.9196C74.0158 41.2496 73.7498 42.3836 73.2178 43.3216C72.6998 44.2456 71.9998 44.9386 71.1178 45.4006C70.2498 45.8486 69.2908 46.0726 68.2408 46.0726C66.4908 46.0726 65.1328 45.5336 64.1668 44.4556C63.2008 43.3636 62.7178 41.8866 62.7178 40.0246ZM68.4088 44.7076C69.9908 44.7076 70.7818 43.1816 70.7818 40.1296C70.7818 38.5336 70.5928 37.3226 70.2148 36.4966C69.8368 35.6566 69.2208 35.2366 68.3668 35.2366C66.7428 35.2366 65.9308 36.7626 65.9308 39.8146C65.9308 41.4106 66.1268 42.6286 66.5188 43.4686C66.9248 44.2946 67.5548 44.7076 68.4088 44.7076ZM78.4238 32.2546C77.9198 32.2546 77.5208 32.1076 77.2268 31.8136C76.9328 31.5196 76.7858 31.1416 76.7858 30.6796C76.7858 30.1476 76.9538 29.7066 77.2898 29.3566C77.6258 29.0066 78.0738 28.8316 78.6338 28.8316C79.1938 28.8316 79.6208 28.9856 79.9148 29.2936C80.2088 29.5876 80.3558 29.9586 80.3558 30.4066C80.3558 30.9666 80.1878 31.4146 79.8518 31.7506C79.5158 32.0866 79.0468 32.2546 78.4448 32.2546H78.4238ZM77.3108 36.1606L75.8198 35.7616V34.3546L79.6628 33.8926H79.7048L80.2928 34.3126V44.4136L81.6998 44.5816V45.8416H75.8408V44.5816L77.3108 44.3926V36.1606ZM84.3811 36.1606L83.0371 35.7826V34.3336L86.5231 33.8926H86.5861L87.1111 34.3126V35.1316L87.0901 35.6356C87.5801 35.1736 88.2171 34.7746 89.0011 34.4386C89.7851 34.1026 90.5761 33.9346 91.3741 33.9346C92.2281 33.9346 92.8931 34.0956 93.3691 34.4176C93.8591 34.7256 94.2091 35.2156 94.4191 35.8876C94.6291 36.5596 94.7341 37.4696 94.7341 38.6176V44.4136L96.0151 44.5816V45.8416H90.5971V44.5816L91.7311 44.4136V38.6176C91.7311 37.8896 91.6821 37.3226 91.5841 36.9166C91.4861 36.4966 91.3041 36.1956 91.0381 36.0136C90.7861 35.8176 90.4221 35.7196 89.9461 35.7196C89.1481 35.7196 88.2941 36.0626 87.3841 36.7486V44.3926L88.6441 44.5816V45.8416H83.1631V44.5816L84.3811 44.3926V36.1606ZM101.411 34.1656H106.955V35.3836L105.569 35.6566L107.48 41.3686L108.152 43.5946L108.719 41.4316L110.588 35.6566L109.265 35.3836V34.1656H113.885V35.3836L112.793 35.6566L108.887 46.0096H106.451L102.272 35.6566L101.411 35.3836V34.1656ZM116.81 44.1196C116.922 44.2876 117.174 44.4486 117.566 44.6026C117.972 44.7426 118.378 44.8126 118.784 44.8126C119.442 44.8126 119.932 44.6796 120.254 44.4136C120.59 44.1336 120.758 43.7696 120.758 43.3216C120.758 42.8596 120.555 42.4886 120.149 42.2086C119.743 41.9146 119.057 41.5576 118.091 41.1376L117.503 40.8856C116.537 40.4796 115.816 39.9896 115.34 39.4156C114.864 38.8416 114.626 38.0996 114.626 37.1896C114.626 36.5596 114.815 35.9996 115.193 35.5096C115.571 35.0056 116.103 34.6136 116.789 34.3336C117.475 34.0536 118.266 33.9136 119.162 33.9136C119.82 33.9136 120.38 33.9556 120.842 34.0396C121.318 34.1236 121.815 34.2356 122.333 34.3756C122.613 34.4736 122.823 34.5296 122.963 34.5436V37.2946H121.304L120.821 35.6986C120.737 35.5586 120.548 35.4326 120.254 35.3206C119.96 35.2086 119.624 35.1526 119.246 35.1526C118.672 35.1526 118.21 35.2786 117.86 35.5306C117.524 35.7686 117.356 36.1046 117.356 36.5386C117.356 36.9306 117.475 37.2596 117.713 37.5256C117.951 37.7776 118.21 37.9736 118.49 38.1136C118.77 38.2536 119.288 38.4846 120.044 38.8066C120.8 39.1286 121.423 39.4366 121.913 39.7306C122.417 40.0246 122.83 40.4096 123.152 40.8856C123.488 41.3476 123.656 41.9146 123.656 42.5866C123.656 43.6226 123.25 44.4626 122.438 45.1066C121.626 45.7506 120.457 46.0726 118.931 46.0726C118.217 46.0726 117.573 46.0096 116.999 45.8836C116.439 45.7576 115.788 45.5896 115.046 45.3796L114.584 45.2326V42.4606H116.327L116.81 44.1196ZM127.343 46.0306C126.909 46.0306 126.531 45.8836 126.209 45.5896C125.887 45.2816 125.726 44.8966 125.726 44.4346C125.726 43.9166 125.908 43.4966 126.272 43.1746C126.65 42.8386 127.105 42.6706 127.637 42.6706C128.141 42.6706 128.54 42.8316 128.834 43.1536C129.128 43.4616 129.275 43.8326 129.275 44.2666C129.275 44.8126 129.093 45.2466 128.729 45.5686C128.379 45.8766 127.917 46.0306 127.343 46.0306ZM141.797 46.0726C141.041 46.0726 140.362 46.0096 139.76 45.8836C139.158 45.7576 138.486 45.5896 137.744 45.3796C137.254 45.2396 136.925 45.1626 136.757 45.1486L136.946 41.2636H138.647L139.109 43.9726C139.291 44.1686 139.613 44.3436 140.075 44.4976C140.551 44.6516 141.09 44.7286 141.692 44.7286C142.63 44.7286 143.33 44.5256 143.792 44.1196C144.268 43.6996 144.506 43.1186 144.506 42.3766C144.506 41.8866 144.366 41.4666 144.086 41.1166C143.806 40.7526 143.421 40.4306 142.931 40.1506C142.441 39.8566 141.769 39.5206 140.915 39.1426C139.753 38.6106 138.787 37.9806 138.017 37.2526C137.261 36.5106 136.883 35.5096 136.883 34.2496C136.883 33.4656 137.086 32.7586 137.492 32.1286C137.898 31.4846 138.5 30.9806 139.298 30.6166C140.11 30.2386 141.097 30.0496 142.259 30.0496C142.945 30.0496 143.547 30.0986 144.065 30.1966C144.597 30.2946 145.171 30.4276 145.787 30.5956C146.151 30.6936 146.424 30.7566 146.606 30.7846L146.48 34.4596H144.8L144.359 31.8766C144.233 31.7506 143.981 31.6316 143.603 31.5196C143.225 31.3936 142.805 31.3306 142.343 31.3306C141.503 31.3306 140.866 31.5266 140.432 31.9186C140.012 32.2966 139.802 32.8076 139.802 33.4516C139.802 33.9696 139.956 34.4176 140.264 34.7956C140.586 35.1736 140.971 35.4956 141.419 35.7616C141.867 36.0136 142.574 36.3776 143.54 36.8536C144.324 37.2316 144.996 37.6026 145.556 37.9666C146.116 38.3306 146.599 38.8066 147.005 39.3946C147.411 39.9686 147.614 40.6476 147.614 41.4316C147.614 42.2016 147.418 42.9366 147.026 43.6366C146.648 44.3366 146.018 44.9176 145.136 45.3796C144.268 45.8416 143.155 46.0726 141.797 46.0726ZM163.942 38.5966L162.388 38.8696C162.402 39.7516 162.262 40.5776 161.968 41.3476C161.674 42.1036 161.289 42.7406 160.813 43.2586C161.247 43.6506 161.667 43.9516 162.073 44.1616C162.493 44.3576 162.955 44.4696 163.459 44.4976V45.6736C163.319 45.7716 163.039 45.8486 162.619 45.9046C162.213 45.9606 161.884 45.9886 161.632 45.9886C161.086 45.9886 160.61 45.9186 160.204 45.7786C159.798 45.6246 159.35 45.3656 158.86 45.0016C157.922 45.7016 156.641 46.0516 155.017 46.0516C153.211 46.0516 151.79 45.6876 150.754 44.9596C149.718 44.2176 149.2 43.1886 149.2 41.8726C149.2 40.9766 149.501 40.2066 150.103 39.5626C150.705 38.9186 151.461 38.4216 152.371 38.0716C151.811 37.3436 151.37 36.6576 151.048 36.0136C150.74 35.3556 150.586 34.6486 150.586 33.8926C150.586 33.1926 150.782 32.5486 151.174 31.9606C151.58 31.3586 152.133 30.8896 152.833 30.5536C153.533 30.2036 154.303 30.0286 155.143 30.0286C156.025 30.0286 156.767 30.1756 157.369 30.4696C157.985 30.7496 158.44 31.1206 158.734 31.5826C159.028 32.0446 159.175 32.5276 159.175 33.0316C159.175 33.7876 159.035 34.4386 158.755 34.9846C158.489 35.5166 158.097 35.9856 157.579 36.3916C157.075 36.7976 156.403 37.2316 155.563 37.6936C156.123 38.3656 156.774 39.1216 157.516 39.9616C158.272 40.8016 158.888 41.4456 159.364 41.8936L159.784 42.2926C160.274 41.4946 160.519 40.5076 160.519 39.3316L160.498 38.8696L158.881 38.5966V37.2106H163.942V38.5966ZM153.358 33.4096C153.358 34.0536 153.498 34.6486 153.778 35.1946C154.072 35.7406 154.429 36.2726 154.849 36.7906C155.535 36.2026 156.018 35.6216 156.298 35.0476C156.578 34.4736 156.718 33.8156 156.718 33.0736C156.718 32.5836 156.599 32.1356 156.361 31.7296C156.123 31.3096 155.71 31.0996 155.122 31.0996C154.604 31.0996 154.177 31.3096 153.841 31.7296C153.519 32.1356 153.358 32.6956 153.358 33.4096ZM155.353 44.6866C156.319 44.6866 157.089 44.4766 157.663 44.0566C157.103 43.5806 156.508 42.9926 155.878 42.2926C155.248 41.5786 154.513 40.7106 153.673 39.6886C153.519 39.5206 153.351 39.3176 153.169 39.0796C152.777 39.4016 152.455 39.7796 152.203 40.2136C151.951 40.6476 151.825 41.1166 151.825 41.6206C151.825 42.5306 152.133 43.2726 152.749 43.8466C153.379 44.4066 154.247 44.6866 155.353 44.6866ZM166.708 31.8136L165.133 31.5406V30.2386H168.304C168.598 30.2386 169.053 30.2246 169.669 30.1966C170.481 30.1406 171.216 30.1126 171.874 30.1126C173.33 30.1126 174.478 30.2946 175.318 30.6586C176.172 31.0086 176.774 31.5196 177.124 32.1916C177.488 32.8496 177.67 33.6896 177.67 34.7116C177.67 36.4756 177.117 37.8476 176.011 38.8276C174.919 39.8076 173.4 40.2976 171.454 40.2976C170.684 40.2976 170.131 40.2766 169.795 40.2346V44.3716L172.609 44.5816V45.8416H165.049V44.5816L166.708 44.3716V31.8136ZM169.774 38.8906C170.096 38.9606 170.642 38.9956 171.412 38.9956C172.35 38.9956 173.099 38.6736 173.659 38.0296C174.233 37.3716 174.52 36.2866 174.52 34.7746C174.52 33.5986 174.261 32.7446 173.743 32.2126C173.239 31.6666 172.462 31.3936 171.412 31.3936C171.02 31.3936 170.614 31.4216 170.194 31.4776C169.998 31.5056 169.858 31.5196 169.774 31.5196V38.8906ZM184.966 47.7526C185.498 47.7806 185.904 47.7946 186.184 47.7946C187.15 47.7946 188.025 47.5986 188.809 47.2066C189.607 46.8146 190.237 46.2826 190.699 45.6106C191.161 44.9246 191.392 44.1686 191.392 43.3426C191.392 42.2926 191.14 41.5366 190.636 41.0746C190.132 40.6126 189.404 40.3816 188.452 40.3816C187.99 40.3816 187.479 40.4446 186.919 40.5706C186.373 40.6966 185.918 40.8436 185.554 41.0116L184.861 40.5286L185.869 32.7796H192.358L192.568 32.3806H194.017L193.576 35.0056H187.822L186.961 39.3736C187.367 39.1636 187.85 38.9816 188.41 38.8276C188.984 38.6596 189.593 38.5756 190.237 38.5756C191.665 38.5756 192.757 38.9466 193.513 39.6886C194.283 40.4306 194.668 41.4806 194.668 42.8386C194.668 44.0426 194.311 45.1276 193.597 46.0936C192.897 47.0736 191.917 47.8366 190.657 48.3826C189.411 48.9426 188.004 49.2226 186.436 49.2226C185.904 49.2226 185.414 49.1736 184.966 49.0756V47.7526ZM202.634 46.0516C200.842 46.0516 199.47 45.4566 198.518 44.2666C197.58 43.0626 197.111 41.4316 197.111 39.3736C197.111 37.9176 197.384 36.6856 197.93 35.6776C198.476 34.6556 199.197 33.8926 200.093 33.3886C201.003 32.8706 202.011 32.6116 203.117 32.6116C204.923 32.6116 206.281 33.1856 207.191 34.3336C208.101 35.4676 208.556 37.0776 208.556 39.1636C208.556 40.6056 208.29 41.8516 207.758 42.9016C207.24 43.9376 206.533 44.7216 205.637 45.2536C204.741 45.7856 203.74 46.0516 202.634 46.0516ZM202.844 44.7916C203.726 44.7916 204.37 44.3436 204.776 43.4476C205.196 42.5376 205.406 41.1866 205.406 39.3946C205.406 37.4906 205.21 36.0976 204.818 35.2156C204.44 34.3196 203.789 33.8716 202.865 33.8716C201.129 33.8716 200.261 35.6286 200.261 39.1426C200.261 41.0186 200.464 42.4326 200.87 43.3846C201.29 44.3226 201.948 44.7916 202.844 44.7916ZM216.436 46.0516C214.644 46.0516 213.272 45.4566 212.32 44.2666C211.382 43.0626 210.913 41.4316 210.913 39.3736C210.913 37.9176 211.186 36.6856 211.732 35.6776C212.278 34.6556 212.999 33.8926 213.895 33.3886C214.805 32.8706 215.813 32.6116 216.919 32.6116C218.725 32.6116 220.083 33.1856 220.993 34.3336C221.903 35.4676 222.358 37.0776 222.358 39.1636C222.358 40.6056 222.092 41.8516 221.56 42.9016C221.042 43.9376 220.335 44.7216 219.439 45.2536C218.543 45.7856 217.542 46.0516 216.436 46.0516ZM216.646 44.7916C217.528 44.7916 218.172 44.3436 218.578 43.4476C218.998 42.5376 219.208 41.1866 219.208 39.3946C219.208 37.4906 219.012 36.0976 218.62 35.2156C218.242 34.3196 217.591 33.8716 216.667 33.8716C214.931 33.8716 214.063 35.6286 214.063 39.1426C214.063 41.0186 214.266 42.4326 214.672 43.3846C215.092 44.3226 215.75 44.7916 216.646 44.7916Z" fill="#00ADEE"/>
<rect x="20.2239" y="71.9072" width="568.516" height="1.12355" fill="#D2D2D2"/>
<rect x="51.6833" y="96.6253" width="1.12355" height="235.946" fill="#D9D9D9"/>
<path d="M26.5237 325.906C26.5237 324.644 26.729 323.662 27.1397 322.958C27.5503 322.246 28.269 321.891 29.2957 321.891C30.315 321.891 31.03 322.246 31.4407 322.958C31.8513 323.662 32.0567 324.644 32.0567 325.906C32.0567 327.189 31.8513 328.186 31.4407 328.898C31.03 329.609 30.315 329.965 29.2957 329.965C28.269 329.965 27.5503 329.609 27.1397 328.898C26.729 328.186 26.5237 327.189 26.5237 325.906ZM31.0667 325.906C31.0667 325.268 31.0227 324.729 30.9347 324.289C30.854 323.841 30.6817 323.482 30.4177 323.211C30.161 322.939 29.787 322.804 29.2957 322.804C28.797 322.804 28.4157 322.939 28.1517 323.211C27.895 323.482 27.7227 323.841 27.6347 324.289C27.554 324.729 27.5137 325.268 27.5137 325.906C27.5137 326.566 27.554 327.119 27.6347 327.567C27.7227 328.014 27.895 328.373 28.1517 328.645C28.4157 328.916 28.797 329.052 29.2957 329.052C29.787 329.052 30.161 328.916 30.4177 328.645C30.6817 328.373 30.854 328.014 30.9347 327.567C31.0227 327.119 31.0667 326.566 31.0667 325.906ZM33.2109 323.805C33.2109 323.306 33.3612 322.91 33.6619 322.617C33.9626 322.316 34.3476 322.166 34.8169 322.166C35.2862 322.166 35.6712 322.316 35.9719 322.617C36.2726 322.91 36.4229 323.306 36.4229 323.805C36.4229 324.311 36.2726 324.714 35.9719 325.015C35.6712 325.308 35.2862 325.455 34.8169 325.455C34.3476 325.455 33.9626 325.308 33.6619 325.015C33.3612 324.714 33.2109 324.311 33.2109 323.805ZM39.6349 322.287L35.1799 329.965H34.1899L38.6449 322.287H39.6349ZM34.8169 322.782C34.5676 322.782 34.3696 322.87 34.2229 323.046C34.0836 323.214 34.0139 323.467 34.0139 323.805C34.0139 324.142 34.0836 324.399 34.2229 324.575C34.3696 324.751 34.5676 324.839 34.8169 324.839C35.0662 324.839 35.2642 324.751 35.4109 324.575C35.5576 324.391 35.6309 324.135 35.6309 323.805C35.6309 323.467 35.5576 323.214 35.4109 323.046C35.2642 322.87 35.0662 322.782 34.8169 322.782ZM37.4239 328.447C37.4239 327.941 37.5742 327.541 37.8749 327.248C38.1756 326.947 38.5606 326.797 39.0299 326.797C39.4992 326.797 39.8806 326.947 40.1739 327.248C40.4746 327.541 40.6249 327.941 40.6249 328.447C40.6249 328.945 40.4746 329.345 40.1739 329.646C39.8806 329.946 39.4992 330.097 39.0299 330.097C38.5606 330.097 38.1756 329.95 37.8749 329.657C37.5742 329.356 37.4239 328.953 37.4239 328.447ZM39.0189 327.424C38.7696 327.424 38.5716 327.512 38.4249 327.688C38.2782 327.856 38.2049 328.109 38.2049 328.447C38.2049 328.777 38.2782 329.03 38.4249 329.206C38.5716 329.374 38.7696 329.459 39.0189 329.459C39.2682 329.459 39.4662 329.374 39.6129 329.206C39.7596 329.03 39.8329 328.777 39.8329 328.447C39.8329 328.109 39.7596 327.856 39.6129 327.688C39.4662 327.512 39.2682 327.424 39.0189 327.424Z" fill="#424F5F"/>
<rect x="52.8068" y="332.571" width="1.12355" height="535.933" transform="rotate(-90 52.8068 332.571)" fill="#D9D9D9"/>
<path d="M56.3913 342.522V348.187C56.3913 348.817 56.197 349.323 55.8083 349.705C55.4196 350.079 54.9063 350.266 54.2683 350.266C53.623 350.266 53.106 350.075 52.7173 349.694C52.3286 349.305 52.1343 348.777 52.1343 348.11H53.1353C53.1426 348.484 53.238 348.788 53.4213 349.023C53.612 349.257 53.8943 349.375 54.2683 349.375C54.6423 349.375 54.921 349.265 55.1043 349.045C55.2876 348.817 55.3793 348.531 55.3793 348.187V342.522H56.3913ZM57.9893 347.153C57.9893 346.537 58.114 345.998 58.3633 345.536C58.6126 345.066 58.9536 344.703 59.3863 344.447C59.8263 344.19 60.314 344.062 60.8493 344.062C61.3773 344.062 61.8356 344.175 62.2243 344.403C62.613 344.63 62.9026 344.916 63.0933 345.261V344.161H64.1053V350.189H63.0933V349.067C62.8953 349.419 62.5983 349.712 62.2023 349.947C61.8136 350.174 61.359 350.288 60.8383 350.288C60.303 350.288 59.819 350.156 59.3863 349.892C58.9536 349.628 58.6126 349.257 58.3633 348.781C58.114 348.304 57.9893 347.761 57.9893 347.153ZM63.0933 347.164C63.0933 346.709 63.0016 346.313 62.8183 345.976C62.635 345.638 62.3856 345.382 62.0703 345.206C61.7623 345.022 61.4213 344.931 61.0473 344.931C60.6733 344.931 60.3323 345.019 60.0243 345.195C59.7163 345.371 59.4706 345.627 59.2873 345.965C59.104 346.302 59.0123 346.698 59.0123 347.153C59.0123 347.615 59.104 348.018 59.2873 348.363C59.4706 348.7 59.7163 348.96 60.0243 349.144C60.3323 349.32 60.6733 349.408 61.0473 349.408C61.4213 349.408 61.7623 349.32 62.0703 349.144C62.3856 348.96 62.635 348.7 62.8183 348.363C63.0016 348.018 63.0933 347.618 63.0933 347.164ZM68.7339 344.051C69.4672 344.051 70.0612 344.274 70.5159 344.722C70.9706 345.162 71.1979 345.8 71.1979 346.636V350.189H70.2079V346.779C70.2079 346.177 70.0576 345.719 69.7569 345.404C69.4562 345.081 69.0456 344.92 68.5249 344.92C67.9969 344.92 67.5752 345.085 67.2599 345.415C66.9519 345.745 66.7979 346.225 66.7979 346.856V350.189H65.7969V344.161H66.7979V345.019C66.9959 344.711 67.2636 344.472 67.6009 344.304C67.9456 344.135 68.3232 344.051 68.7339 344.051Z" fill="#424F5F" fill-opacity="0.8"/>
<path d="M173.786 342.577V350.189H172.785V344.513L170.255 350.189H169.551L167.01 344.502V350.189H166.009V342.577H167.087L169.903 348.869L172.719 342.577H173.786ZM175.109 347.153C175.109 346.537 175.234 345.998 175.483 345.536C175.733 345.066 176.074 344.703 176.506 344.447C176.946 344.19 177.434 344.062 177.969 344.062C178.497 344.062 178.956 344.175 179.344 344.403C179.733 344.63 180.023 344.916 180.213 345.261V344.161H181.225V350.189H180.213V349.067C180.015 349.419 179.718 349.712 179.322 349.947C178.934 350.174 178.479 350.288 177.958 350.288C177.423 350.288 176.939 350.156 176.506 349.892C176.074 349.628 175.733 349.257 175.483 348.781C175.234 348.304 175.109 347.761 175.109 347.153ZM180.213 347.164C180.213 346.709 180.122 346.313 179.938 345.976C179.755 345.638 179.506 345.382 179.19 345.206C178.882 345.022 178.541 344.931 178.167 344.931C177.793 344.931 177.452 345.019 177.144 345.195C176.836 345.371 176.591 345.627 176.407 345.965C176.224 346.302 176.132 346.698 176.132 347.153C176.132 347.615 176.224 348.018 176.407 348.363C176.591 348.7 176.836 348.96 177.144 349.144C177.452 349.32 177.793 349.408 178.167 349.408C178.541 349.408 178.882 349.32 179.19 349.144C179.506 348.96 179.755 348.7 179.938 348.363C180.122 348.018 180.213 347.618 180.213 347.164ZM183.918 345.14C184.094 344.795 184.343 344.527 184.666 344.337C184.996 344.146 185.396 344.051 185.865 344.051V345.085H185.601C184.479 345.085 183.918 345.693 183.918 346.911V350.189H182.917V344.161H183.918V345.14Z" fill="#424F5F" fill-opacity="0.8"/>
<path d="M400.198 342.522V348.187C400.198 348.817 400.003 349.323 399.615 349.705C399.226 350.079 398.713 350.266 398.075 350.266C397.429 350.266 396.912 350.075 396.524 349.694C396.135 349.305 395.941 348.777 395.941 348.11H396.942C396.949 348.484 397.044 348.788 397.228 349.023C397.418 349.257 397.701 349.375 398.075 349.375C398.449 349.375 398.727 349.265 398.911 349.045C399.094 348.817 399.186 348.531 399.186 348.187V342.522H400.198ZM407.516 344.161V350.189H406.515V349.298C406.324 349.606 406.056 349.848 405.712 350.024C405.374 350.192 405 350.277 404.59 350.277C404.12 350.277 403.699 350.181 403.325 349.991C402.951 349.793 402.654 349.499 402.434 349.111C402.221 348.722 402.115 348.249 402.115 347.692V344.161H403.105V347.56C403.105 348.154 403.255 348.612 403.556 348.935C403.856 349.25 404.267 349.408 404.788 349.408C405.323 349.408 405.745 349.243 406.053 348.913C406.361 348.583 406.515 348.102 406.515 347.472V344.161H407.516ZM410.207 342.049V350.189H409.206V342.049H410.207Z" fill="#424F5F" fill-opacity="0.8"/>
<path d="M567.222 350.266C566.51 350.266 565.861 350.101 565.275 349.771C564.688 349.433 564.222 348.968 563.878 348.374C563.54 347.772 563.372 347.098 563.372 346.35C563.372 345.602 563.54 344.931 563.878 344.337C564.222 343.735 564.688 343.27 565.275 342.94C565.861 342.602 566.51 342.434 567.222 342.434C567.94 342.434 568.593 342.602 569.18 342.94C569.766 343.27 570.228 343.732 570.566 344.326C570.903 344.92 571.072 345.594 571.072 346.35C571.072 347.105 570.903 347.78 570.566 348.374C570.228 348.968 569.766 349.433 569.18 349.771C568.593 350.101 567.94 350.266 567.222 350.266ZM567.222 349.397C567.757 349.397 568.237 349.272 568.663 349.023C569.095 348.773 569.433 348.418 569.675 347.956C569.924 347.494 570.049 346.958 570.049 346.35C570.049 345.734 569.924 345.198 569.675 344.744C569.433 344.282 569.099 343.926 568.674 343.677C568.248 343.427 567.764 343.303 567.222 343.303C566.679 343.303 566.195 343.427 565.77 343.677C565.344 343.926 565.007 344.282 564.758 344.744C564.516 345.198 564.395 345.734 564.395 346.35C564.395 346.958 564.516 347.494 564.758 347.956C565.007 348.418 565.344 348.773 565.77 349.023C566.202 349.272 566.686 349.397 567.222 349.397ZM572.019 347.164C572.019 346.54 572.144 345.998 572.393 345.536C572.642 345.066 572.987 344.703 573.427 344.447C573.874 344.19 574.384 344.062 574.956 344.062C575.697 344.062 576.305 344.241 576.782 344.601C577.266 344.96 577.585 345.459 577.739 346.097H576.661C576.558 345.73 576.357 345.44 576.056 345.228C575.763 345.015 575.396 344.909 574.956 344.909C574.384 344.909 573.922 345.107 573.57 345.503C573.218 345.891 573.042 346.445 573.042 347.164C573.042 347.89 573.218 348.451 573.57 348.847C573.922 349.243 574.384 349.441 574.956 349.441C575.396 349.441 575.763 349.338 576.056 349.133C576.349 348.927 576.551 348.634 576.661 348.253H577.739C577.578 348.869 577.255 349.364 576.771 349.738C576.287 350.104 575.682 350.288 574.956 350.288C574.384 350.288 573.874 350.159 573.427 349.903C572.987 349.646 572.642 349.283 572.393 348.814C572.144 348.344 572.019 347.794 572.019 347.164ZM580.296 344.986V348.539C580.296 348.832 580.358 349.041 580.483 349.166C580.607 349.283 580.824 349.342 581.132 349.342H581.869V350.189H580.967C580.409 350.189 579.991 350.06 579.713 349.804C579.434 349.547 579.295 349.125 579.295 348.539V344.986H578.514V344.161H579.295V342.643H580.296V344.161H581.869V344.986H580.296Z" fill="#424F5F" fill-opacity="0.8"/>
<path d="M287.264 342.577V350.189H286.263V344.513L283.733 350.189H283.029L280.488 344.502V350.189H279.487V342.577H280.565L283.381 348.869L286.197 342.577H287.264ZM288.588 347.153C288.588 346.537 288.713 345.998 288.962 345.536C289.211 345.066 289.552 344.703 289.985 344.447C290.425 344.19 290.913 344.062 291.448 344.062C291.976 344.062 292.434 344.175 292.823 344.403C293.212 344.63 293.501 344.916 293.692 345.261V344.161H294.704V350.189H293.692V349.067C293.494 349.419 293.197 349.712 292.801 349.947C292.412 350.174 291.958 350.288 291.437 350.288C290.902 350.288 290.418 350.156 289.985 349.892C289.552 349.628 289.211 349.257 288.962 348.781C288.713 348.304 288.588 347.761 288.588 347.153ZM293.692 347.164C293.692 346.709 293.6 346.313 293.417 345.976C293.234 345.638 292.984 345.382 292.669 345.206C292.361 345.022 292.02 344.931 291.646 344.931C291.272 344.931 290.931 345.019 290.623 345.195C290.315 345.371 290.069 345.627 289.886 345.965C289.703 346.302 289.611 346.698 289.611 347.153C289.611 347.615 289.703 348.018 289.886 348.363C290.069 348.7 290.315 348.96 290.623 349.144C290.931 349.32 291.272 349.408 291.646 349.408C292.02 349.408 292.361 349.32 292.669 349.144C292.984 348.96 293.234 348.7 293.417 348.363C293.6 348.018 293.692 347.618 293.692 347.164ZM301.588 344.161L297.958 353.027H296.924L298.112 350.123L295.681 344.161H296.792L298.684 349.045L300.554 344.161H301.588Z" fill="#424F5F" fill-opacity="0.8"/>
<path d="M114.165 342.522V343.336H110.832V345.921H113.538V346.735H110.832V350.189H109.831V342.522H114.165ZM120.874 346.944C120.874 347.134 120.863 347.336 120.841 347.549H116.023C116.06 348.143 116.262 348.608 116.628 348.946C117.002 349.276 117.453 349.441 117.981 349.441C118.414 349.441 118.773 349.342 119.059 349.144C119.353 348.938 119.558 348.667 119.675 348.33H120.753C120.592 348.909 120.269 349.382 119.785 349.749C119.301 350.108 118.7 350.288 117.981 350.288C117.409 350.288 116.896 350.159 116.441 349.903C115.994 349.646 115.642 349.283 115.385 348.814C115.129 348.337 115 347.787 115 347.164C115 346.54 115.125 345.994 115.374 345.525C115.624 345.055 115.972 344.696 116.419 344.447C116.874 344.19 117.395 344.062 117.981 344.062C118.553 344.062 119.059 344.186 119.499 344.436C119.939 344.685 120.277 345.03 120.511 345.47C120.753 345.902 120.874 346.394 120.874 346.944ZM119.84 346.735C119.84 346.353 119.756 346.027 119.587 345.756C119.419 345.477 119.188 345.268 118.894 345.129C118.608 344.982 118.289 344.909 117.937 344.909C117.431 344.909 116.999 345.07 116.639 345.393C116.287 345.715 116.086 346.163 116.034 346.735H119.84ZM123.197 345.283C123.402 344.923 123.703 344.63 124.099 344.403C124.495 344.175 124.946 344.062 125.452 344.062C125.994 344.062 126.482 344.19 126.915 344.447C127.347 344.703 127.688 345.066 127.938 345.536C128.187 345.998 128.312 346.537 128.312 347.153C128.312 347.761 128.187 348.304 127.938 348.781C127.688 349.257 127.344 349.628 126.904 349.892C126.471 350.156 125.987 350.288 125.452 350.288C124.931 350.288 124.473 350.174 124.077 349.947C123.688 349.719 123.395 349.43 123.197 349.078V350.189H122.196V342.049H123.197V345.283ZM127.289 347.153C127.289 346.698 127.197 346.302 127.014 345.965C126.83 345.627 126.581 345.371 126.266 345.195C125.958 345.019 125.617 344.931 125.243 344.931C124.876 344.931 124.535 345.022 124.22 345.206C123.912 345.382 123.662 345.642 123.472 345.987C123.288 346.324 123.197 346.716 123.197 347.164C123.197 347.618 123.288 348.018 123.472 348.363C123.662 348.7 123.912 348.96 124.22 349.144C124.535 349.32 124.876 349.408 125.243 349.408C125.617 349.408 125.958 349.32 126.266 349.144C126.581 348.96 126.83 348.7 127.014 348.363C127.197 348.018 127.289 347.615 127.289 347.153Z" fill="#424F5F" fill-opacity="0.8"/>
<path d="M228.965 348.484H225.621L225.005 350.189H223.949L226.721 342.566H227.876L230.637 350.189H229.581L228.965 348.484ZM228.679 347.67L227.293 343.798L225.907 347.67H228.679ZM232.847 345.272C233.045 344.927 233.338 344.641 233.727 344.414C234.123 344.179 234.581 344.062 235.102 344.062C235.637 344.062 236.121 344.19 236.554 344.447C236.994 344.703 237.338 345.066 237.588 345.536C237.837 345.998 237.962 346.537 237.962 347.153C237.962 347.761 237.837 348.304 237.588 348.781C237.338 349.257 236.994 349.628 236.554 349.892C236.121 350.156 235.637 350.288 235.102 350.288C234.588 350.288 234.134 350.174 233.738 349.947C233.349 349.712 233.052 349.422 232.847 349.078V353.049H231.846V344.161H232.847V345.272ZM236.939 347.153C236.939 346.698 236.847 346.302 236.664 345.965C236.48 345.627 236.231 345.371 235.916 345.195C235.608 345.019 235.267 344.931 234.893 344.931C234.526 344.931 234.185 345.022 233.87 345.206C233.562 345.382 233.312 345.642 233.122 345.987C232.938 346.324 232.847 346.716 232.847 347.164C232.847 347.618 232.938 348.018 233.122 348.363C233.312 348.7 233.562 348.96 233.87 349.144C234.185 349.32 234.526 349.408 234.893 349.408C235.267 349.408 235.608 349.32 235.916 349.144C236.231 348.96 236.48 348.7 236.664 348.363C236.847 348.018 236.939 347.615 236.939 347.153ZM240.28 345.14C240.456 344.795 240.706 344.527 241.028 344.337C241.358 344.146 241.758 344.051 242.227 344.051V345.085H241.963C240.841 345.085 240.28 345.693 240.28 346.911V350.189H239.279V344.161H240.28V345.14Z" fill="#424F5F" fill-opacity="0.8"/>
<path d="M344.02 342.522V348.187C344.02 348.817 343.826 349.323 343.437 349.705C343.048 350.079 342.535 350.266 341.897 350.266C341.252 350.266 340.735 350.075 340.346 349.694C339.957 349.305 339.763 348.777 339.763 348.11H340.764C340.771 348.484 340.867 348.788 341.05 349.023C341.241 349.257 341.523 349.375 341.897 349.375C342.271 349.375 342.55 349.265 342.733 349.045C342.916 348.817 343.008 348.531 343.008 348.187V342.522H344.02ZM351.338 344.161V350.189H350.337V349.298C350.146 349.606 349.879 349.848 349.534 350.024C349.197 350.192 348.823 350.277 348.412 350.277C347.943 350.277 347.521 350.181 347.147 349.991C346.773 349.793 346.476 349.499 346.256 349.111C346.043 348.722 345.937 348.249 345.937 347.692V344.161H346.927V347.56C346.927 348.154 347.077 348.612 347.378 348.935C347.679 349.25 348.089 349.408 348.61 349.408C349.145 349.408 349.567 349.243 349.875 348.913C350.183 348.583 350.337 348.102 350.337 347.472V344.161H351.338ZM355.965 344.051C356.699 344.051 357.293 344.274 357.747 344.722C358.202 345.162 358.429 345.8 358.429 346.636V350.189H357.439V346.779C357.439 346.177 357.289 345.719 356.988 345.404C356.688 345.081 356.277 344.92 355.756 344.92C355.228 344.92 354.807 345.085 354.491 345.415C354.183 345.745 354.029 346.225 354.029 346.856V350.189H353.028V344.161H354.029V345.019C354.227 344.711 354.495 344.472 354.832 344.304C355.177 344.135 355.555 344.051 355.965 344.051Z" fill="#424F5F" fill-opacity="0.8"/>
<path d="M508.876 350.266C508.37 350.266 507.915 350.178 507.512 350.002C507.116 349.818 506.804 349.569 506.577 349.254C506.349 348.931 506.232 348.561 506.225 348.143H507.292C507.328 348.502 507.475 348.806 507.732 349.056C507.996 349.298 508.377 349.419 508.876 349.419C509.352 349.419 509.726 349.301 509.998 349.067C510.276 348.825 510.416 348.517 510.416 348.143C510.416 347.849 510.335 347.611 510.174 347.428C510.012 347.244 509.811 347.105 509.569 347.01C509.327 346.914 509 346.812 508.59 346.702C508.084 346.57 507.677 346.438 507.369 346.306C507.068 346.174 506.808 345.968 506.588 345.69C506.375 345.404 506.269 345.022 506.269 344.546C506.269 344.128 506.375 343.757 506.588 343.435C506.8 343.112 507.097 342.863 507.479 342.687C507.867 342.511 508.311 342.423 508.81 342.423C509.528 342.423 510.115 342.602 510.57 342.962C511.032 343.321 511.292 343.798 511.351 344.392H510.251C510.214 344.098 510.06 343.842 509.789 343.622C509.517 343.394 509.158 343.281 508.711 343.281C508.293 343.281 507.952 343.391 507.688 343.611C507.424 343.823 507.292 344.124 507.292 344.513C507.292 344.791 507.369 345.019 507.523 345.195C507.684 345.371 507.878 345.506 508.106 345.602C508.34 345.69 508.667 345.792 509.085 345.91C509.591 346.049 509.998 346.188 510.306 346.328C510.614 346.46 510.878 346.669 511.098 346.955C511.318 347.233 511.428 347.615 511.428 348.099C511.428 348.473 511.329 348.825 511.131 349.155C510.933 349.485 510.639 349.752 510.251 349.958C509.862 350.163 509.404 350.266 508.876 350.266ZM518.401 346.944C518.401 347.134 518.39 347.336 518.368 347.549H513.55C513.586 348.143 513.788 348.608 514.155 348.946C514.529 349.276 514.98 349.441 515.508 349.441C515.94 349.441 516.3 349.342 516.586 349.144C516.879 348.938 517.084 348.667 517.202 348.33H518.28C518.118 348.909 517.796 349.382 517.312 349.749C516.828 350.108 516.226 350.288 515.508 350.288C514.936 350.288 514.422 350.159 513.968 349.903C513.52 349.646 513.168 349.283 512.912 348.814C512.655 348.337 512.527 347.787 512.527 347.164C512.527 346.54 512.651 345.994 512.901 345.525C513.15 345.055 513.498 344.696 513.946 344.447C514.4 344.19 514.921 344.062 515.508 344.062C516.08 344.062 516.586 344.186 517.026 344.436C517.466 344.685 517.803 345.03 518.038 345.47C518.28 345.902 518.401 346.394 518.401 346.944ZM517.367 346.735C517.367 346.353 517.282 346.027 517.114 345.756C516.945 345.477 516.714 345.268 516.421 345.129C516.135 344.982 515.816 344.909 515.464 344.909C514.958 344.909 514.525 345.07 514.166 345.393C513.814 345.715 513.612 346.163 513.561 346.735H517.367ZM520.723 345.272C520.921 344.927 521.214 344.641 521.603 344.414C521.999 344.179 522.457 344.062 522.978 344.062C523.513 344.062 523.997 344.19 524.43 344.447C524.87 344.703 525.215 345.066 525.464 345.536C525.713 345.998 525.838 346.537 525.838 347.153C525.838 347.761 525.713 348.304 525.464 348.781C525.215 349.257 524.87 349.628 524.43 349.892C523.997 350.156 523.513 350.288 522.978 350.288C522.465 350.288 522.01 350.174 521.614 349.947C521.225 349.712 520.928 349.422 520.723 349.078V353.049H519.722V344.161H520.723V345.272ZM524.815 347.153C524.815 346.698 524.723 346.302 524.54 345.965C524.357 345.627 524.107 345.371 523.792 345.195C523.484 345.019 523.143 344.931 522.769 344.931C522.402 344.931 522.061 345.022 521.746 345.206C521.438 345.382 521.189 345.642 520.998 345.987C520.815 346.324 520.723 346.716 520.723 347.164C520.723 347.618 520.815 348.018 520.998 348.363C521.189 348.7 521.438 348.96 521.746 349.144C522.061 349.32 522.402 349.408 522.769 349.408C523.143 349.408 523.484 349.32 523.792 349.144C524.107 348.96 524.357 348.7 524.54 348.363C524.723 348.018 524.815 347.615 524.815 347.153Z" fill="#424F5F" fill-opacity="0.8"/>
<path d="M452.552 348.484H449.208L448.592 350.189H447.536L450.308 342.566H451.463L454.224 350.189H453.168L452.552 348.484ZM452.266 347.67L450.88 343.798L449.494 347.67H452.266ZM460.778 344.161V350.189H459.777V349.298C459.586 349.606 459.319 349.848 458.974 350.024C458.637 350.192 458.263 350.277 457.852 350.277C457.383 350.277 456.961 350.181 456.587 349.991C456.213 349.793 455.916 349.499 455.696 349.111C455.483 348.722 455.377 348.249 455.377 347.692V344.161H456.367V347.56C456.367 348.154 456.517 348.612 456.818 348.935C457.119 349.25 457.529 349.408 458.05 349.408C458.585 349.408 459.007 349.243 459.315 348.913C459.623 348.583 459.777 348.102 459.777 347.472V344.161H460.778ZM464.954 344.062C465.475 344.062 465.93 344.175 466.318 344.403C466.714 344.63 467.008 344.916 467.198 345.261V344.161H468.21V350.321C468.21 350.871 468.093 351.358 467.858 351.784C467.624 352.216 467.286 352.554 466.846 352.796C466.414 353.038 465.908 353.159 465.328 353.159C464.536 353.159 463.876 352.972 463.348 352.598C462.82 352.224 462.509 351.714 462.413 351.069H463.403C463.513 351.435 463.741 351.729 464.085 351.949C464.43 352.176 464.844 352.29 465.328 352.29C465.878 352.29 466.326 352.117 466.67 351.773C467.022 351.428 467.198 350.944 467.198 350.321V349.056C467 349.408 466.707 349.701 466.318 349.936C465.93 350.17 465.475 350.288 464.954 350.288C464.419 350.288 463.931 350.156 463.491 349.892C463.059 349.628 462.718 349.257 462.468 348.781C462.219 348.304 462.094 347.761 462.094 347.153C462.094 346.537 462.219 345.998 462.468 345.536C462.718 345.066 463.059 344.703 463.491 344.447C463.931 344.19 464.419 344.062 464.954 344.062ZM467.198 347.164C467.198 346.709 467.107 346.313 466.923 345.976C466.74 345.638 466.491 345.382 466.175 345.206C465.867 345.022 465.526 344.931 465.152 344.931C464.778 344.931 464.437 345.019 464.129 345.195C463.821 345.371 463.576 345.627 463.392 345.965C463.209 346.302 463.117 346.698 463.117 347.153C463.117 347.615 463.209 348.018 463.392 348.363C463.576 348.7 463.821 348.96 464.129 349.144C464.437 349.32 464.778 349.408 465.152 349.408C465.526 349.408 465.867 349.32 466.175 349.144C466.491 348.96 466.74 348.7 466.923 348.363C467.107 348.018 467.198 347.618 467.198 347.164Z" fill="#424F5F" fill-opacity="0.8"/>
<path d="M16.4117 213.551C16.4117 212.289 16.6171 211.307 17.0277 210.603C17.4384 209.891 18.1571 209.536 19.1837 209.536C20.2031 209.536 20.9181 209.891 21.3287 210.603C21.7394 211.307 21.9447 212.289 21.9447 213.551C21.9447 214.834 21.7394 215.831 21.3287 216.543C20.9181 217.254 20.2031 217.61 19.1837 217.61C18.1571 217.61 17.4384 217.254 17.0277 216.543C16.6171 215.831 16.4117 214.834 16.4117 213.551ZM20.9547 213.551C20.9547 212.913 20.9107 212.374 20.8227 211.934C20.7421 211.486 20.5697 211.127 20.3057 210.856C20.0491 210.584 19.6751 210.449 19.1837 210.449C18.6851 210.449 18.3037 210.584 18.0397 210.856C17.7831 211.127 17.6107 211.486 17.5227 211.934C17.4421 212.374 17.4017 212.913 17.4017 213.551C17.4017 214.211 17.4421 214.764 17.5227 215.212C17.6107 215.659 17.7831 216.018 18.0397 216.29C18.3037 216.561 18.6851 216.697 19.1837 216.697C19.6751 216.697 20.0491 216.561 20.3057 216.29C20.5697 216.018 20.7421 215.659 20.8227 215.212C20.9107 214.764 20.9547 214.211 20.9547 213.551ZM23.803 217.676C23.6123 217.676 23.451 217.61 23.319 217.478C23.187 217.346 23.121 217.184 23.121 216.994C23.121 216.803 23.187 216.642 23.319 216.51C23.451 216.378 23.6123 216.312 23.803 216.312C23.9863 216.312 24.1403 216.378 24.265 216.51C24.397 216.642 24.463 216.803 24.463 216.994C24.463 217.184 24.397 217.346 24.265 217.478C24.1403 217.61 23.9863 217.676 23.803 217.676ZM25.5075 216.807C26.4389 216.059 27.1685 215.446 27.6965 214.97C28.2245 214.486 28.6682 213.983 29.0275 213.463C29.3942 212.935 29.5775 212.418 29.5775 211.912C29.5775 211.435 29.4602 211.061 29.2255 210.79C28.9982 210.511 28.6279 210.372 28.1145 210.372C27.6159 210.372 27.2272 210.529 26.9485 210.845C26.6772 211.153 26.5305 211.567 26.5085 212.088H25.5405C25.5699 211.266 25.8192 210.632 26.2885 210.185C26.7579 209.737 27.3629 209.514 28.1035 209.514C28.8589 209.514 29.4565 209.723 29.8965 210.141C30.3439 210.559 30.5675 211.134 30.5675 211.868C30.5675 212.476 30.3842 213.07 30.0175 213.65C29.6582 214.222 29.2475 214.728 28.7855 215.168C28.3235 215.6 27.7332 216.106 27.0145 216.686H30.7985V217.522H25.5075V216.807ZM31.7357 211.45C31.7357 210.951 31.886 210.555 32.1867 210.262C32.4873 209.961 32.8723 209.811 33.3417 209.811C33.811 209.811 34.196 209.961 34.4967 210.262C34.7973 210.555 34.9477 210.951 34.9477 211.45C34.9477 211.956 34.7973 212.359 34.4967 212.66C34.196 212.953 33.811 213.1 33.3417 213.1C32.8723 213.1 32.4873 212.953 32.1867 212.66C31.886 212.359 31.7357 211.956 31.7357 211.45ZM38.1597 209.932L33.7047 217.61H32.7147L37.1697 209.932H38.1597ZM33.3417 210.427C33.0923 210.427 32.8943 210.515 32.7477 210.691C32.6083 210.859 32.5387 211.112 32.5387 211.45C32.5387 211.787 32.6083 212.044 32.7477 212.22C32.8943 212.396 33.0923 212.484 33.3417 212.484C33.591 212.484 33.789 212.396 33.9357 212.22C34.0823 212.036 34.1557 211.78 34.1557 211.45C34.1557 211.112 34.0823 210.859 33.9357 210.691C33.789 210.515 33.591 210.427 33.3417 210.427ZM35.9487 216.092C35.9487 215.586 36.099 215.186 36.3997 214.893C36.7003 214.592 37.0853 214.442 37.5547 214.442C38.024 214.442 38.4053 214.592 38.6987 214.893C38.9993 215.186 39.1497 215.586 39.1497 216.092C39.1497 216.59 38.9993 216.99 38.6987 217.291C38.4053 217.591 38.024 217.742 37.5547 217.742C37.0853 217.742 36.7003 217.595 36.3997 217.302C36.099 217.001 35.9487 216.598 35.9487 216.092ZM37.5437 215.069C37.2943 215.069 37.0963 215.157 36.9497 215.333C36.803 215.501 36.7297 215.754 36.7297 216.092C36.7297 216.422 36.803 216.675 36.9497 216.851C37.0963 217.019 37.2943 217.104 37.5437 217.104C37.793 217.104 37.991 217.019 38.1377 216.851C38.2843 216.675 38.3577 216.422 38.3577 216.092C38.3577 215.754 38.2843 215.501 38.1377 215.333C37.991 215.157 37.793 215.069 37.5437 215.069Z" fill="#424F5F"/>
<path d="M15.2881 269.728C15.2881 268.467 15.4935 267.484 15.9041 266.78C16.3148 266.069 17.0335 265.713 18.0601 265.713C19.0795 265.713 19.7945 266.069 20.2051 266.78C20.6158 267.484 20.8211 268.467 20.8211 269.728C20.8211 271.012 20.6158 272.009 20.2051 272.72C19.7945 273.432 19.0795 273.787 18.0601 273.787C17.0335 273.787 16.3148 273.432 15.9041 272.72C15.4935 272.009 15.2881 271.012 15.2881 269.728ZM19.8311 269.728C19.8311 269.09 19.7871 268.551 19.6991 268.111C19.6185 267.664 19.4461 267.305 19.1821 267.033C18.9255 266.762 18.5515 266.626 18.0601 266.626C17.5615 266.626 17.1801 266.762 16.9161 267.033C16.6595 267.305 16.4871 267.664 16.3991 268.111C16.3185 268.551 16.2781 269.09 16.2781 269.728C16.2781 270.388 16.3185 270.942 16.3991 271.389C16.4871 271.837 16.6595 272.196 16.9161 272.467C17.1801 272.739 17.5615 272.874 18.0601 272.874C18.5515 272.874 18.9255 272.739 19.1821 272.467C19.4461 272.196 19.6185 271.837 19.6991 271.389C19.7871 270.942 19.8311 270.388 19.8311 269.728ZM22.6794 273.853C22.4887 273.853 22.3274 273.787 22.1954 273.655C22.0634 273.523 21.9974 273.362 21.9974 273.171C21.9974 272.981 22.0634 272.819 22.1954 272.687C22.3274 272.555 22.4887 272.489 22.6794 272.489C22.8627 272.489 23.0167 272.555 23.1414 272.687C23.2734 272.819 23.3394 272.981 23.3394 273.171C23.3394 273.362 23.2734 273.523 23.1414 273.655C23.0167 273.787 22.8627 273.853 22.6794 273.853ZM24.2629 272.016V271.257L28.1239 265.911H29.3229V271.147H30.4229V272.016H29.3229V273.787H28.3329V272.016H24.2629ZM28.3769 266.956L25.4179 271.147H28.3769V266.956ZM31.2029 267.627C31.2029 267.129 31.3532 266.733 31.6539 266.439C31.9546 266.139 32.3396 265.988 32.8089 265.988C33.2782 265.988 33.6632 266.139 33.9639 266.439C34.2646 266.733 34.4149 267.129 34.4149 267.627C34.4149 268.133 34.2646 268.537 33.9639 268.837C33.6632 269.131 33.2782 269.277 32.8089 269.277C32.3396 269.277 31.9546 269.131 31.6539 268.837C31.3532 268.537 31.2029 268.133 31.2029 267.627ZM37.6269 266.109L33.1719 273.787H32.1819L36.6369 266.109H37.6269ZM32.8089 266.604C32.5596 266.604 32.3616 266.692 32.2149 266.868C32.0756 267.037 32.0059 267.29 32.0059 267.627C32.0059 267.965 32.0756 268.221 32.2149 268.397C32.3616 268.573 32.5596 268.661 32.8089 268.661C33.0582 268.661 33.2562 268.573 33.4029 268.397C33.5496 268.214 33.6229 267.957 33.6229 267.627C33.6229 267.29 33.5496 267.037 33.4029 266.868C33.2562 266.692 33.0582 266.604 32.8089 266.604ZM35.4159 272.269C35.4159 271.763 35.5662 271.364 35.8669 271.07C36.1676 270.77 36.5526 270.619 37.0219 270.619C37.4912 270.619 37.8726 270.77 38.1659 271.07C38.4666 271.364 38.6169 271.763 38.6169 272.269C38.6169 272.768 38.4666 273.168 38.1659 273.468C37.8726 273.769 37.4912 273.919 37.0219 273.919C36.5526 273.919 36.1676 273.773 35.8669 273.479C35.5662 273.179 35.4159 272.775 35.4159 272.269ZM37.0109 271.246C36.7616 271.246 36.5636 271.334 36.4169 271.51C36.2702 271.679 36.1969 271.932 36.1969 272.269C36.1969 272.599 36.2702 272.852 36.4169 273.028C36.5636 273.197 36.7616 273.281 37.0109 273.281C37.2602 273.281 37.4582 273.197 37.6049 273.028C37.7516 272.852 37.8249 272.599 37.8249 272.269C37.8249 271.932 37.7516 271.679 37.6049 271.51C37.4582 271.334 37.2602 271.246 37.0109 271.246Z" fill="#424F5F"/>
<path d="M15.2881 157.373C15.2881 156.112 15.4935 155.129 15.9041 154.425C16.3148 153.714 17.0335 153.358 18.0601 153.358C19.0795 153.358 19.7945 153.714 20.2051 154.425C20.6158 155.129 20.8211 156.112 20.8211 157.373C20.8211 158.657 20.6158 159.654 20.2051 160.365C19.7945 161.077 19.0795 161.432 18.0601 161.432C17.0335 161.432 16.3148 161.077 15.9041 160.365C15.4935 159.654 15.2881 158.657 15.2881 157.373ZM19.8311 157.373C19.8311 156.735 19.7871 156.196 19.6991 155.756C19.6185 155.309 19.4461 154.95 19.1821 154.678C18.9255 154.407 18.5515 154.271 18.0601 154.271C17.5615 154.271 17.1801 154.407 16.9161 154.678C16.6595 154.95 16.4871 155.309 16.3991 155.756C16.3185 156.196 16.2781 156.735 16.2781 157.373C16.2781 158.033 16.3185 158.587 16.3991 159.034C16.4871 159.482 16.6595 159.841 16.9161 160.112C17.1801 160.384 17.5615 160.519 18.0601 160.519C18.5515 160.519 18.9255 160.384 19.1821 160.112C19.4461 159.841 19.6185 159.482 19.6991 159.034C19.7871 158.587 19.8311 158.033 19.8311 157.373ZM22.6794 161.498C22.4887 161.498 22.3274 161.432 22.1954 161.3C22.0634 161.168 21.9974 161.007 21.9974 160.816C21.9974 160.626 22.0634 160.464 22.1954 160.332C22.3274 160.2 22.4887 160.134 22.6794 160.134C22.8627 160.134 23.0167 160.2 23.1414 160.332C23.2734 160.464 23.3394 160.626 23.3394 160.816C23.3394 161.007 23.2734 161.168 23.1414 161.3C23.0167 161.432 22.8627 161.498 22.6794 161.498ZM28.9379 155.371C28.7766 154.557 28.2743 154.15 27.4309 154.15C26.7783 154.15 26.2906 154.403 25.9679 154.909C25.6453 155.408 25.4876 156.233 25.4949 157.384C25.6636 157.003 25.9423 156.706 26.3309 156.493C26.7269 156.273 27.1669 156.163 27.6509 156.163C28.4063 156.163 29.0076 156.398 29.4549 156.867C29.9096 157.337 30.1369 157.986 30.1369 158.814C30.1369 159.313 30.0379 159.76 29.8399 160.156C29.6493 160.552 29.3559 160.868 28.9599 161.102C28.5713 161.337 28.0983 161.454 27.5409 161.454C26.7856 161.454 26.1953 161.286 25.7699 160.948C25.3446 160.611 25.0476 160.145 24.8789 159.551C24.7103 158.957 24.6259 158.224 24.6259 157.351C24.6259 154.66 25.5646 153.314 27.4419 153.314C28.1606 153.314 28.7253 153.509 29.1359 153.897C29.5466 154.286 29.7886 154.777 29.8619 155.371H28.9379ZM27.4419 157.01C27.1266 157.01 26.8296 157.076 26.5509 157.208C26.2723 157.333 26.0449 157.527 25.8689 157.791C25.7003 158.048 25.6159 158.363 25.6159 158.737C25.6159 159.295 25.7773 159.749 26.0999 160.101C26.4226 160.446 26.8846 160.618 27.4859 160.618C27.9993 160.618 28.4063 160.461 28.7069 160.145C29.0149 159.823 29.1689 159.39 29.1689 158.847C29.1689 158.275 29.0223 157.828 28.7289 157.505C28.4356 157.175 28.0066 157.01 27.4419 157.01ZM31.2674 155.272C31.2674 154.774 31.4177 154.378 31.7184 154.084C32.019 153.784 32.404 153.633 32.8734 153.633C33.3427 153.633 33.7277 153.784 34.0284 154.084C34.329 154.378 34.4794 154.774 34.4794 155.272C34.4794 155.778 34.329 156.182 34.0284 156.482C33.7277 156.776 33.3427 156.922 32.8734 156.922C32.404 156.922 32.019 156.776 31.7184 156.482C31.4177 156.182 31.2674 155.778 31.2674 155.272ZM37.6914 153.754L33.2364 161.432H32.2464L36.7014 153.754H37.6914ZM32.8734 154.249C32.624 154.249 32.426 154.337 32.2794 154.513C32.14 154.682 32.0704 154.935 32.0704 155.272C32.0704 155.61 32.14 155.866 32.2794 156.042C32.426 156.218 32.624 156.306 32.8734 156.306C33.1227 156.306 33.3207 156.218 33.4674 156.042C33.614 155.859 33.6874 155.602 33.6874 155.272C33.6874 154.935 33.614 154.682 33.4674 154.513C33.3207 154.337 33.1227 154.249 32.8734 154.249ZM35.4804 159.914C35.4804 159.408 35.6307 159.009 35.9314 158.715C36.232 158.415 36.617 158.264 37.0864 158.264C37.5557 158.264 37.937 158.415 38.2304 158.715C38.531 159.009 38.6814 159.408 38.6814 159.914C38.6814 160.413 38.531 160.813 38.2304 161.113C37.937 161.414 37.5557 161.564 37.0864 161.564C36.617 161.564 36.232 161.418 35.9314 161.124C35.6307 160.824 35.4804 160.42 35.4804 159.914ZM37.0754 158.891C36.826 158.891 36.628 158.979 36.4814 159.155C36.3347 159.324 36.2614 159.577 36.2614 159.914C36.2614 160.244 36.3347 160.497 36.4814 160.673C36.628 160.842 36.826 160.926 37.0754 160.926C37.3247 160.926 37.5227 160.842 37.6694 160.673C37.816 160.497 37.8894 160.244 37.8894 159.914C37.8894 159.577 37.816 159.324 37.6694 159.155C37.5227 158.979 37.3247 158.891 37.0754 158.891Z" fill="#424F5F"/>
<path d="M15.2881 101.196C15.2881 99.9343 15.4935 98.9517 15.9041 98.2477C16.3148 97.5363 17.0335 97.1807 18.0601 97.1807C19.0795 97.1807 19.7945 97.5363 20.2051 98.2477C20.6158 98.9517 20.8211 99.9343 20.8211 101.196C20.8211 102.479 20.6158 103.476 20.2051 104.188C19.7945 104.899 19.0795 105.255 18.0601 105.255C17.0335 105.255 16.3148 104.899 15.9041 104.188C15.4935 103.476 15.2881 102.479 15.2881 101.196ZM19.8311 101.196C19.8311 100.558 19.7871 100.019 19.6991 99.5787C19.6185 99.1313 19.4461 98.772 19.1821 98.5007C18.9255 98.2293 18.5515 98.0937 18.0601 98.0937C17.5615 98.0937 17.1801 98.2293 16.9161 98.5007C16.6595 98.772 16.4871 99.1313 16.3991 99.5787C16.3185 100.019 16.2781 100.558 16.2781 101.196C16.2781 101.856 16.3185 102.409 16.3991 102.857C16.4871 103.304 16.6595 103.663 16.9161 103.935C17.1801 104.206 17.5615 104.342 18.0601 104.342C18.5515 104.342 18.9255 104.206 19.1821 103.935C19.4461 103.663 19.6185 103.304 19.6991 102.857C19.7871 102.409 19.8311 101.856 19.8311 101.196ZM22.6794 105.321C22.4887 105.321 22.3274 105.255 22.1954 105.123C22.0634 104.991 21.9974 104.829 21.9974 104.639C21.9974 104.448 22.0634 104.287 22.1954 104.155C22.3274 104.023 22.4887 103.957 22.6794 103.957C22.8627 103.957 23.0167 104.023 23.1414 104.155C23.2734 104.287 23.3394 104.448 23.3394 104.639C23.3394 104.829 23.2734 104.991 23.1414 105.123C23.0167 105.255 22.8627 105.321 22.6794 105.321ZM25.9569 101.119C25.5463 100.957 25.2309 100.723 25.0109 100.415C24.7909 100.107 24.6809 99.7327 24.6809 99.2927C24.6809 98.8967 24.7799 98.541 24.9779 98.2257C25.1759 97.903 25.4693 97.65 25.8579 97.4667C26.2539 97.276 26.7306 97.1807 27.2879 97.1807C27.8453 97.1807 28.3183 97.276 28.7069 97.4667C29.1029 97.65 29.3999 97.903 29.5979 98.2257C29.8033 98.541 29.9059 98.8967 29.9059 99.2927C29.9059 99.718 29.7923 100.092 29.5649 100.415C29.3376 100.73 29.0259 100.965 28.6299 101.119C29.0846 101.258 29.4439 101.504 29.7079 101.856C29.9793 102.2 30.1149 102.618 30.1149 103.11C30.1149 103.586 29.9976 104.004 29.7629 104.364C29.5283 104.716 29.1946 104.991 28.7619 105.189C28.3366 105.379 27.8453 105.475 27.2879 105.475C26.7306 105.475 26.2393 105.379 25.8139 105.189C25.3959 104.991 25.0696 104.716 24.8349 104.364C24.6003 104.004 24.4829 103.586 24.4829 103.11C24.4829 102.618 24.6149 102.197 24.8789 101.845C25.1429 101.493 25.5023 101.251 25.9569 101.119ZM28.9379 99.4137C28.9379 98.9663 28.7913 98.6217 28.4979 98.3797C28.2046 98.1377 27.8013 98.0167 27.2879 98.0167C26.7819 98.0167 26.3823 98.1377 26.0889 98.3797C25.7956 98.6217 25.6489 98.97 25.6489 99.4247C25.6489 99.8353 25.7993 100.165 26.0999 100.415C26.4079 100.664 26.8039 100.789 27.2879 100.789C27.7793 100.789 28.1753 100.664 28.4759 100.415C28.7839 100.158 28.9379 99.8243 28.9379 99.4137ZM27.2879 101.559C26.7453 101.559 26.3016 101.687 25.9569 101.944C25.6123 102.193 25.4399 102.571 25.4399 103.077C25.4399 103.546 25.6049 103.924 25.9349 104.21C26.2723 104.496 26.7233 104.639 27.2879 104.639C27.8526 104.639 28.2999 104.496 28.6299 104.21C28.9599 103.924 29.1249 103.546 29.1249 103.077C29.1249 102.585 28.9563 102.211 28.6189 101.955C28.2816 101.691 27.8379 101.559 27.2879 101.559ZM31.2244 99.0947C31.2244 98.596 31.3747 98.2 31.6754 97.9067C31.9761 97.606 32.3611 97.4557 32.8304 97.4557C33.2997 97.4557 33.6847 97.606 33.9854 97.9067C34.2861 98.2 34.4364 98.596 34.4364 99.0947C34.4364 99.6007 34.2861 100.004 33.9854 100.305C33.6847 100.598 33.2997 100.745 32.8304 100.745C32.3611 100.745 31.9761 100.598 31.6754 100.305C31.3747 100.004 31.2244 99.6007 31.2244 99.0947ZM37.6484 97.5767L33.1934 105.255H32.2034L36.6584 97.5767H37.6484ZM32.8304 98.0717C32.5811 98.0717 32.3831 98.1597 32.2364 98.3357C32.0971 98.5043 32.0274 98.7573 32.0274 99.0947C32.0274 99.432 32.0971 99.6887 32.2364 99.8647C32.3831 100.041 32.5811 100.129 32.8304 100.129C33.0797 100.129 33.2777 100.041 33.4244 99.8647C33.5711 99.6813 33.6444 99.4247 33.6444 99.0947C33.6444 98.7573 33.5711 98.5043 33.4244 98.3357C33.2777 98.1597 33.0797 98.0717 32.8304 98.0717ZM35.4374 103.737C35.4374 103.231 35.5877 102.831 35.8884 102.538C36.1891 102.237 36.5741 102.087 37.0434 102.087C37.5127 102.087 37.8941 102.237 38.1874 102.538C38.4881 102.831 38.6384 103.231 38.6384 103.737C38.6384 104.235 38.4881 104.635 38.1874 104.936C37.8941 105.236 37.5127 105.387 37.0434 105.387C36.5741 105.387 36.1891 105.24 35.8884 104.947C35.5877 104.646 35.4374 104.243 35.4374 103.737ZM37.0324 102.714C36.7831 102.714 36.5851 102.802 36.4384 102.978C36.2917 103.146 36.2184 103.399 36.2184 103.737C36.2184 104.067 36.2917 104.32 36.4384 104.496C36.5851 104.664 36.7831 104.749 37.0324 104.749C37.2817 104.749 37.4797 104.664 37.6264 104.496C37.7731 104.32 37.8464 104.067 37.8464 103.737C37.8464 103.399 37.7731 103.146 37.6264 102.978C37.4797 102.802 37.2817 102.714 37.0324 102.714Z" fill="#424F5F"/>
<path d="M65.7215 325.219L108.554 270.051L151.988 297.418L194.797 215.844L237.93 188.473L281.364 243.18L324.338 215.596L367.609 243.18L410.744 188.008L453.876 133.768L496.686 160.675L540.12 188.473L582.953 133.305" stroke="#EB008A" stroke-width="1.4173" stroke-miterlimit="10"/>
<path fill-rule="evenodd" clip-rule="evenodd" d="M109.197 266.451C111.064 266.451 112.568 267.953 112.568 269.822C112.568 271.688 111.064 273.192 109.197 273.192C107.328 273.192 105.826 271.688 105.826 269.822C105.826 267.953 107.327 266.451 109.197 266.451Z" fill="#EB008A" stroke="#FEFEFE" stroke-width="0.2268" stroke-miterlimit="10"/>
<path fill-rule="evenodd" clip-rule="evenodd" d="M196.15 212.211C197.978 212.211 199.505 213.736 199.505 215.597C199.505 217.457 197.978 218.952 196.15 218.952C194.292 218.952 192.763 217.457 192.763 215.597C192.762 213.736 194.291 212.211 196.15 212.211Z" fill="#EB008A" stroke="#FEFEFE" stroke-width="0.2268" stroke-miterlimit="10"/>
<path fill-rule="evenodd" clip-rule="evenodd" d="M238.965 184.875C240.835 184.875 242.336 186.376 242.336 188.245C242.336 190.114 240.835 191.617 238.965 191.617C237.098 191.617 235.595 190.114 235.595 188.245C235.595 186.376 237.098 184.875 238.965 184.875Z" fill="#EB008A" stroke="#FEFEFE" stroke-width="0.2268" stroke-miterlimit="10"/>
<path fill-rule="evenodd" clip-rule="evenodd" d="M282.4 239.578C284.27 239.578 285.772 241.08 285.772 242.951C285.772 244.818 284.27 246.32 282.4 246.32C280.531 246.32 279.031 244.818 279.031 242.951C279.031 241.08 280.531 239.578 282.4 239.578Z" fill="#EB008A" stroke="#FEFEFE" stroke-width="0.2268" stroke-miterlimit="10"/>
<path fill-rule="evenodd" clip-rule="evenodd" d="M325.195 211.746C327.055 211.746 328.582 213.275 328.582 215.1C328.582 216.96 327.055 218.487 325.195 218.487C323.37 218.487 321.841 216.96 321.841 215.1C321.841 213.275 323.37 211.746 325.195 211.746Z" fill="#EB008A" stroke="#FEFEFE" stroke-width="0.2268" stroke-miterlimit="10"/>
<path fill-rule="evenodd" clip-rule="evenodd" d="M368.629 239.116C370.487 239.116 372.016 240.62 372.016 242.486C372.016 244.355 370.487 245.857 368.629 245.857C366.804 245.857 365.275 244.355 365.275 242.486C365.275 240.62 366.804 239.116 368.629 239.116Z" fill="#EB008A" stroke="#FEFEFE" stroke-width="0.2268" stroke-miterlimit="10"/>
<path fill-rule="evenodd" clip-rule="evenodd" d="M454.912 130.168C456.784 130.168 458.284 131.695 458.284 133.522C458.284 135.382 456.784 136.909 454.912 136.909C453.045 136.909 451.543 135.382 451.543 133.522C451.543 131.695 453.045 130.168 454.912 130.168Z" fill="#EB008A" stroke="#FEFEFE" stroke-width="0.2268" stroke-miterlimit="10"/>
<path fill-rule="evenodd" clip-rule="evenodd" d="M541.14 184.41C543.003 184.41 544.528 185.912 544.528 187.779C544.528 189.65 543.003 191.152 541.14 191.152C539.28 191.152 537.787 189.65 537.787 187.779C537.786 185.912 539.279 184.41 541.14 184.41Z" fill="#EB008A" stroke="#FEFEFE" stroke-width="0.2268" stroke-miterlimit="10"/>
<path fill-rule="evenodd" clip-rule="evenodd" d="M583.99 129.703C585.86 129.703 587.36 131.206 587.36 133.075C587.36 134.941 585.86 136.444 583.99 136.444C582.121 136.444 580.618 134.941 580.618 133.075C580.618 131.206 582.121 129.703 583.99 129.703Z" fill="#EB008A" stroke="#FEFEFE" stroke-width="0.2268" stroke-miterlimit="10"/>
<path d="M65.7215 243.18L108.854 215.345L151.988 243.18L195.121 161.139H237.93L281.364 188.473L324.175 160.675L367.609 161.139L410.744 116.803L453.876 105.97H497.009L540.12 117.265L582.953 105.97" stroke="#A4CD3C" stroke-width="1.4173" stroke-miterlimit="10"/>
<path fill-rule="evenodd" clip-rule="evenodd" d="M109.197 212.211C111.064 212.211 112.568 213.736 112.568 215.597C112.568 217.457 111.064 218.952 109.197 218.952C107.328 218.952 105.826 217.457 105.826 215.597C105.826 213.736 107.327 212.211 109.197 212.211Z" fill="#A4CD3C" stroke="#FEFEFE" stroke-width="0.2268" stroke-miterlimit="10"/>
<path fill-rule="evenodd" clip-rule="evenodd" d="M67.4953 239.116C69.3641 239.116 70.8659 240.62 70.8659 242.486C70.8659 244.355 69.3641 245.857 67.4953 245.857C65.6264 245.857 64.1246 244.355 64.1246 242.486C64.1246 240.62 65.6264 239.116 67.4953 239.116Z" fill="#A4CD3C" stroke="#FEFEFE" stroke-width="0.2268" stroke-miterlimit="10"/>
<path fill-rule="evenodd" clip-rule="evenodd" d="M152.718 239.578C154.543 239.578 156.07 241.08 156.07 242.951C156.07 244.818 154.543 246.32 152.718 246.32C150.858 246.32 149.329 244.818 149.329 242.951C149.328 241.08 150.857 239.578 152.718 239.578Z" fill="#A4CD3C" stroke="#FEFEFE" stroke-width="0.2268" stroke-miterlimit="10"/>
<path fill-rule="evenodd" clip-rule="evenodd" d="M195.817 158.111C197.677 158.111 199.204 159.611 199.204 161.478C199.204 163.35 197.677 164.852 195.817 164.852C193.957 164.852 192.463 163.35 192.463 161.478C192.463 159.611 193.957 158.111 195.817 158.111Z" fill="#A4CD3C" stroke="#FEFEFE" stroke-width="0.2268" stroke-miterlimit="10"/>
<path fill-rule="evenodd" clip-rule="evenodd" d="M238.965 157.538C240.835 157.538 242.336 159.04 242.336 160.909C242.336 162.78 240.835 164.279 238.965 164.279C237.098 164.279 235.595 162.78 235.595 160.909C235.595 159.04 237.098 157.538 238.965 157.538Z" fill="#A4CD3C" stroke="#FEFEFE" stroke-width="0.2268" stroke-miterlimit="10"/>
<path fill-rule="evenodd" clip-rule="evenodd" d="M282.4 184.41C284.27 184.41 285.772 185.912 285.772 187.779C285.772 189.65 284.27 191.152 282.4 191.152C280.531 191.152 279.031 189.65 279.031 187.779C279.031 185.912 280.531 184.41 282.4 184.41Z" fill="#A4CD3C" stroke="#FEFEFE" stroke-width="0.2268" stroke-miterlimit="10"/>
<path fill-rule="evenodd" clip-rule="evenodd" d="M325.195 157.538C327.055 157.538 328.582 159.04 328.582 160.909C328.582 162.78 327.055 164.279 325.195 164.279C323.37 164.279 321.841 162.78 321.841 160.909C321.841 159.04 323.37 157.538 325.195 157.538Z" fill="#A4CD3C" stroke="#FEFEFE" stroke-width="0.2268" stroke-miterlimit="10"/>
<path fill-rule="evenodd" clip-rule="evenodd" d="M368.629 157.538C370.487 157.538 372.016 159.04 372.016 160.909C372.016 162.78 370.487 164.279 368.629 164.279C366.804 164.279 365.275 162.78 365.275 160.909C365.275 159.04 366.804 157.538 368.629 157.538Z" fill="#A4CD3C" stroke="#FEFEFE" stroke-width="0.2268" stroke-miterlimit="10"/>
<path fill-rule="evenodd" clip-rule="evenodd" d="M411.478 113.488C413.344 113.488 414.848 115.017 414.848 116.845C414.848 118.702 413.344 120.229 411.478 120.229C409.611 120.229 408.107 118.702 408.107 116.845C408.107 115.017 409.61 113.488 411.478 113.488Z" fill="#A4CD3C" stroke="#FEFEFE" stroke-width="0.2268" stroke-miterlimit="10"/>
<path fill-rule="evenodd" clip-rule="evenodd" d="M454.912 102.37C456.784 102.37 458.284 103.872 458.284 105.741C458.284 107.607 456.784 109.111 454.912 109.111C453.045 109.111 451.543 107.607 451.543 105.741C451.543 103.872 453.045 102.37 454.912 102.37Z" fill="#A4CD3C" stroke="#FEFEFE" stroke-width="0.2268" stroke-miterlimit="10"/>
<path fill-rule="evenodd" clip-rule="evenodd" d="M498.037 102.37C499.864 102.37 501.393 103.872 501.393 105.741C501.393 107.607 499.864 109.111 498.037 109.111C496.18 109.111 494.651 107.607 494.651 105.741C494.651 103.872 496.179 102.37 498.037 102.37Z" fill="#A4CD3C" stroke="#FEFEFE" stroke-width="0.2268" stroke-miterlimit="10"/>
<path fill-rule="evenodd" clip-rule="evenodd" d="M540.855 113.56C542.724 113.56 544.226 115.087 544.226 116.947C544.226 118.807 542.724 120.301 540.855 120.301C538.986 120.301 537.484 118.807 537.484 116.947C537.484 115.087 538.986 113.56 540.855 113.56Z" fill="#A4CD3C" stroke="#FEFEFE" stroke-width="0.2268" stroke-miterlimit="10"/>
<path fill-rule="evenodd" clip-rule="evenodd" d="M583.99 102.833C585.86 102.833 587.36 104.335 587.36 106.205C587.36 108.074 585.86 109.574 583.99 109.574C582.121 109.574 580.618 108.074 580.618 106.205C580.618 104.335 582.121 102.833 583.99 102.833Z" fill="#A4CD3C" stroke="#FEFEFE" stroke-width="0.2268" stroke-miterlimit="10"/>
<path d="M76.9316 321.639L119.414 298.723L161.897 321.639L204.379 254.097H246.542L289.321 276.6L331.486 253.715L374.265 254.097L416.749 217.596L459.23 208.678H501.712L544.173 217.977L586.36 208.678" stroke="#3CCDB3" stroke-width="1.4173" stroke-miterlimit="10"/>
<path fill-rule="evenodd" clip-rule="evenodd" d="M119.802 296.143C121.669 296.143 123.173 297.668 123.173 299.528C123.173 301.389 121.669 302.884 119.802 302.884C117.933 302.884 116.432 301.389 116.432 299.528C116.432 297.668 117.932 296.143 119.802 296.143Z" fill="#3CCDB3" stroke="#FEFEFE" stroke-width="0.2268" stroke-miterlimit="10"/>
<path fill-rule="evenodd" clip-rule="evenodd" d="M78.7294 318.293C80.5983 318.293 82.1001 319.797 82.1001 321.663C82.1001 323.532 80.5983 325.034 78.7294 325.034C76.8606 325.034 75.3588 323.532 75.3588 321.663C75.3588 319.797 76.8606 318.293 78.7294 318.293Z" fill="#3CCDB3" stroke="#FEFEFE" stroke-width="0.2268" stroke-miterlimit="10"/>
<path fill-rule="evenodd" clip-rule="evenodd" d="M162.667 318.673C164.492 318.673 166.019 320.175 166.019 322.046C166.019 323.913 164.492 325.415 162.667 325.415C160.807 325.415 159.278 323.913 159.278 322.046C159.277 320.175 160.806 318.673 162.667 318.673Z" fill="#3CCDB3" stroke="#FEFEFE" stroke-width="0.2268" stroke-miterlimit="10"/>
<path fill-rule="evenodd" clip-rule="evenodd" d="M205.115 251.604C206.975 251.604 208.502 253.104 208.502 254.971C208.502 256.843 206.975 258.345 205.115 258.345C203.255 258.345 201.761 256.843 201.761 254.971C201.761 253.104 203.255 251.604 205.115 251.604Z" fill="#3CCDB3" stroke="#FEFEFE" stroke-width="0.2268" stroke-miterlimit="10"/>
<path fill-rule="evenodd" clip-rule="evenodd" d="M247.612 251.132C249.482 251.132 250.984 252.634 250.984 254.503C250.984 256.374 249.482 257.874 247.612 257.874C245.746 257.874 244.242 256.374 244.242 254.503C244.242 252.634 245.746 251.132 247.612 251.132Z" fill="#3CCDB3" stroke="#FEFEFE" stroke-width="0.2268" stroke-miterlimit="10"/>
<path fill-rule="evenodd" clip-rule="evenodd" d="M290.392 273.256C292.262 273.256 293.764 274.757 293.764 276.624C293.764 278.495 292.262 279.997 290.392 279.997C288.523 279.997 287.023 278.495 287.023 276.624C287.023 274.757 288.523 273.256 290.392 273.256Z" fill="#3CCDB3" stroke="#FEFEFE" stroke-width="0.2268" stroke-miterlimit="10"/>
<path fill-rule="evenodd" clip-rule="evenodd" d="M332.541 251.132C334.401 251.132 335.928 252.634 335.928 254.503C335.928 256.374 334.401 257.874 332.541 257.874C330.716 257.874 329.187 256.374 329.187 254.503C329.187 252.634 330.716 251.132 332.541 251.132Z" fill="#3CCDB3" stroke="#FEFEFE" stroke-width="0.2268" stroke-miterlimit="10"/>
<path fill-rule="evenodd" clip-rule="evenodd" d="M375.32 251.132C377.178 251.132 378.707 252.634 378.707 254.503C378.707 256.374 377.178 257.874 375.32 257.874C373.495 257.874 371.966 256.374 371.966 254.503C371.966 252.634 373.495 251.132 375.32 251.132Z" fill="#3CCDB3" stroke="#FEFEFE" stroke-width="0.2268" stroke-miterlimit="10"/>
<path fill-rule="evenodd" clip-rule="evenodd" d="M417.523 214.867C419.389 214.867 420.893 216.396 420.893 218.224C420.893 220.082 419.389 221.609 417.523 221.609C415.656 221.609 414.152 220.082 414.152 218.224C414.152 216.396 415.655 214.867 417.523 214.867Z" fill="#3CCDB3" stroke="#FEFEFE" stroke-width="0.2268" stroke-miterlimit="10"/>
<path fill-rule="evenodd" clip-rule="evenodd" d="M460.302 205.714C462.174 205.714 463.674 207.216 463.674 209.085C463.674 210.952 462.174 212.455 460.302 212.455C458.435 212.455 456.932 210.952 456.932 209.085C456.932 207.216 458.435 205.714 460.302 205.714Z" fill="#3CCDB3" stroke="#FEFEFE" stroke-width="0.2268" stroke-miterlimit="10"/>
<path fill-rule="evenodd" clip-rule="evenodd" d="M502.776 205.714C504.603 205.714 506.132 207.216 506.132 209.085C506.132 210.952 504.603 212.455 502.776 212.455C500.919 212.455 499.391 210.952 499.391 209.085C499.391 207.216 500.918 205.714 502.776 205.714Z" fill="#3CCDB3" stroke="#FEFEFE" stroke-width="0.2268" stroke-miterlimit="10"/>
<path fill-rule="evenodd" clip-rule="evenodd" d="M544.948 214.927C546.817 214.927 548.319 216.454 548.319 218.313C548.319 220.173 546.817 221.668 544.948 221.668C543.079 221.668 541.578 220.173 541.578 218.313C541.578 216.454 543.079 214.927 544.948 214.927Z" fill="#3CCDB3" stroke="#FEFEFE" stroke-width="0.2268" stroke-miterlimit="10"/>
<path fill-rule="evenodd" clip-rule="evenodd" d="M587.433 206.095C589.302 206.095 590.802 207.597 590.802 209.467C590.802 211.336 589.302 212.836 587.433 212.836C585.563 212.836 584.061 211.336 584.061 209.467C584.061 207.597 585.563 206.095 587.433 206.095Z" fill="#3CCDB3" stroke="#FEFEFE" stroke-width="0.2268" stroke-miterlimit="10"/>
</svg>
