<svg width="24" height="25" viewBox="0 0 24 25" fill="none" xmlns="http://www.w3.org/2000/svg">
<g clip-path="url(#clip0_112_1435)">
<path d="M16.4783 8.30061L17.1737 9.0263L11.427 14.8431C11.1492 15.1295 10.7752 15.2885 10.3774 15.2885C9.97965 15.2885 9.60665 15.1295 9.32492 14.841L6.55919 12.0871L7.24963 11.3552L10.0203 14.1143C10.2187 14.3171 10.5401 14.3131 10.7266 14.1194L16.4773 8.29959L16.4783 8.30061ZM23.4958 13.5181L19.0863 22.0409C18.6379 22.9052 17.7689 23.4423 16.8186 23.4423H7.01055C6.0612 23.4423 5.19418 22.9072 4.74579 22.0449L0.314468 13.5272C-0.106145 12.719 -0.106145 11.7527 0.314468 10.9435L4.74579 2.41761C5.19418 1.55432 6.06219 1.01923 7.01155 1.01923H16.8196C17.7699 1.01923 18.6389 1.55636 19.0873 2.42067L23.4968 10.9435C23.9135 11.7497 23.9135 12.7108 23.4968 13.517L23.4958 13.5181ZM22.6199 11.4225L18.2104 2.90073C17.9346 2.36971 17.4019 2.03846 16.8186 2.03846H7.01055C6.42824 2.03846 5.89553 2.36767 5.61975 2.89767L1.18942 11.4235C0.925548 11.9321 0.925548 12.5386 1.18942 13.0472L5.61975 21.5639C5.89553 22.0939 6.42824 22.4231 7.00956 22.4231H16.8176C17.4009 22.4231 17.9336 22.0928 18.2094 21.5608L22.6189 13.04C22.8808 12.5335 22.8818 11.9291 22.6199 11.4225Z" fill="#00ADEE"/>
</g>
<defs>
<clipPath id="clip0_112_1435">
<rect width="23.8083" height="24.4615" fill="white"/>
</clipPath>
</defs>
</svg>
