<svg width="201" height="201" viewBox="0 0 201 201" fill="none" xmlns="http://www.w3.org/2000/svg">
<path d="M200.053 100.026C200.053 124.891 190.792 148.864 174.077 167.271C157.361 185.678 134.389 197.2 109.64 199.59C84.8905 201.979 60.1384 195.066 40.2098 180.197C20.2813 165.327 6.60505 143.569 1.84784 119.164L31.3014 113.423C34.6314 130.506 44.2048 145.737 58.1548 156.145C72.1048 166.554 89.4312 171.393 106.756 169.721C124.08 168.048 140.161 159.983 151.861 147.098C163.562 134.213 170.045 117.431 170.045 100.026H200.053Z" fill="#CAEDFA"/>
<path d="M0.0217015 102.11C-0.418291 80.991 5.83882 60.2749 17.8962 42.9307L42.5353 60.0594C34.0951 72.2003 29.7151 86.7016 30.0231 101.485L0.0217015 102.11Z" fill="#DCE0E7"/>
<path d="M2.38772 121.751C-3.37407 95.8558 1.38704 68.7322 15.6236 46.3472C29.8602 23.9622 52.4062 8.1495 78.3015 2.38772L84.819 31.6793C66.6922 35.7126 50.9101 46.7815 40.9445 62.4509C30.9788 78.1204 27.6461 97.107 31.6793 115.234L2.38772 121.751Z" fill="#167499"/>
<path d="M74.1376 3.40831C99.7623 -3.4578 127.065 0.136671 150.04 13.401L135.036 39.3886C118.953 30.1036 99.8415 27.5875 81.9043 32.3937L74.1376 3.40831Z" fill="#A9CDD0"/>
<path d="M129.176 4.34146C151.36 11.0998 170.508 25.357 183.341 44.674C196.175 63.9909 201.898 87.1671 199.53 110.237L169.679 107.174C171.336 91.0249 167.33 74.8015 158.347 61.2797C149.363 47.7578 135.96 37.7778 120.431 33.0469L129.176 4.34146Z" fill="#7EA0A5"/>
</svg>
