<svg width="606" height="384" viewBox="0 0 606 384" fill="none" xmlns="http://www.w3.org/2000/svg">
<rect x="0.5" y="0.5" width="604.594" height="382.131" rx="9.5" fill="white" stroke="#CAECF9"/>
<rect x="579.83" y="39.063" width="8.91001" height="8.91001" rx="4.45501" fill="#2C3540"/>
<rect x="566.87" y="39.063" width="8.91001" height="8.91001" rx="4.45501" fill="#2C3540"/>
<rect x="553.91" y="39.063" width="8.91001" height="8.91001" rx="4.45501" fill="#2C3540"/>
<path d="M22.7019 31.8136L21.0219 31.5406V30.2386H32.2149L32.4879 33.7666H31.0179L30.3249 31.6876L25.7889 31.4986V37.1476L28.7079 37.0846L29.0439 35.3626H30.3879V40.4446H29.0439L28.7079 38.6386L25.7889 38.5756V44.4976L30.8709 44.2456L32.0889 41.5576L33.6639 41.9986L33.1179 45.8416H21.0429V44.5816L22.7019 44.3716V31.8136ZM38.4576 46.0306C37.5756 46.0306 36.9246 45.8276 36.5046 45.4216C36.0846 45.0156 35.8746 44.3716 35.8746 43.4896V35.7826H34.5096V34.6906C34.6216 34.6486 34.8246 34.5786 35.1186 34.4806C35.4126 34.3686 35.6366 34.2776 35.7906 34.2076C36.0286 34.0256 36.2316 33.7106 36.3996 33.2626C36.5256 32.9686 36.7566 32.2406 37.0926 31.0786H38.7726L38.8566 34.1656H42.0696V35.7826H38.8776V41.6836C38.8776 42.4676 38.8986 43.0206 38.9406 43.3426C38.9826 43.6646 39.0736 43.8746 39.2136 43.9726C39.3536 44.0566 39.5986 44.0986 39.9486 44.0986C40.2986 44.0986 40.6626 44.0636 41.0406 43.9936C41.4186 43.9096 41.7336 43.8116 41.9856 43.6996L42.3846 44.8756C41.9926 45.1696 41.4186 45.4356 40.6626 45.6736C39.9066 45.9116 39.1716 46.0306 38.4576 46.0306ZM44.4889 30.4906L42.8929 30.2176V29.0836L46.7989 28.6216H46.8619L47.4079 29.0206L47.4289 33.7036L47.2819 35.5306C47.7159 35.1386 48.3039 34.7746 49.0459 34.4386C49.8019 34.1026 50.5929 33.9346 51.4189 33.9346C52.3009 33.9346 52.9869 34.1026 53.4769 34.4386C53.9669 34.7606 54.3099 35.2576 54.5059 35.9296C54.7019 36.6016 54.7999 37.4976 54.7999 38.6176V44.3926L56.1439 44.5816V45.8416H50.6209V44.5816L51.8389 44.3926V38.6176C51.8389 37.8896 51.7899 37.3226 51.6919 36.9166C51.5939 36.5106 51.4119 36.2096 51.1459 36.0136C50.8939 35.8176 50.5159 35.7196 50.0119 35.7196C49.5779 35.7196 49.1299 35.8246 48.6679 36.0346C48.2199 36.2306 47.8209 36.4686 47.4709 36.7486V44.3926L48.7519 44.5816V45.8416H43.3129V44.5816L44.4889 44.4136V30.4906ZM62.8623 46.0726C61.0143 46.0726 59.6353 45.5336 58.7253 44.4556C57.8293 43.3636 57.3813 41.8796 57.3813 40.0036C57.3813 38.7436 57.6123 37.6516 58.0743 36.7276C58.5503 35.8036 59.2153 35.0966 60.0693 34.6066C60.9233 34.1166 61.9103 33.8716 63.0303 33.8716C64.4303 33.8716 65.5083 34.2426 66.2643 34.9846C67.0203 35.7126 67.4123 36.7556 67.4403 38.1136C67.4403 39.0376 67.3843 39.7236 67.2723 40.1716H60.4473C60.5033 41.4456 60.8043 42.4396 61.3503 43.1536C61.8963 43.8536 62.6733 44.2036 63.6813 44.2036C64.2273 44.2036 64.7873 44.1126 65.3613 43.9306C65.9493 43.7486 66.4113 43.5316 66.7473 43.2796L67.2723 44.4346C66.8943 44.8406 66.2783 45.2186 65.4243 45.5686C64.5843 45.9046 63.7303 46.0726 62.8623 46.0726ZM64.5003 38.9116C64.5283 38.5196 64.5423 38.2186 64.5423 38.0086C64.5423 36.1466 63.9193 35.2156 62.6733 35.2156C61.9873 35.2156 61.4553 35.4886 61.0773 36.0346C60.6993 36.5806 60.4893 37.5396 60.4473 38.9116H64.5003ZM69.1162 44.6026L70.5022 44.4346V36.1606L69.1582 35.7826V34.3336L72.4132 33.8926H72.4762L73.0012 34.3126V34.7746L72.9382 36.4756H73.0012C73.0992 36.1956 73.3302 35.8526 73.6942 35.4466C74.0582 35.0266 74.5132 34.6626 75.0592 34.3546C75.6192 34.0326 76.2212 33.8716 76.8652 33.8716C77.1732 33.8716 77.4392 33.9136 77.6632 33.9976V37.1476C77.2432 36.8536 76.7322 36.7066 76.1302 36.7066C75.1082 36.7066 74.2192 36.9796 73.4632 37.5256V44.4136L75.8992 44.6026V45.8416H69.1162V44.6026ZM84.2929 46.0726C82.4449 46.0726 81.0659 45.5336 80.1559 44.4556C79.2599 43.3636 78.8119 41.8796 78.8119 40.0036C78.8119 38.7436 79.0429 37.6516 79.5049 36.7276C79.9809 35.8036 80.6459 35.0966 81.4999 34.6066C82.3539 34.1166 83.3409 33.8716 84.4609 33.8716C85.8609 33.8716 86.9389 34.2426 87.6949 34.9846C88.4509 35.7126 88.8429 36.7556 88.8709 38.1136C88.8709 39.0376 88.8149 39.7236 88.7029 40.1716H81.8779C81.9339 41.4456 82.2349 42.4396 82.7809 43.1536C83.3269 43.8536 84.1039 44.2036 85.1119 44.2036C85.6579 44.2036 86.2179 44.1126 86.7919 43.9306C87.3799 43.7486 87.8419 43.5316 88.1779 43.2796L88.7029 44.4346C88.3249 44.8406 87.7089 45.2186 86.8549 45.5686C86.0149 45.9046 85.1609 46.0726 84.2929 46.0726ZM85.9309 38.9116C85.9589 38.5196 85.9729 38.2186 85.9729 38.0086C85.9729 36.1466 85.3499 35.2156 84.1039 35.2156C83.4179 35.2156 82.8859 35.4886 82.5079 36.0346C82.1299 36.5806 81.9199 37.5396 81.8779 38.9116H85.9309ZM100.018 46.0516C99.5558 46.0516 99.2198 45.9536 99.0098 45.7576C98.7998 45.5616 98.6948 45.2676 98.6948 44.8756V44.3086C98.3168 44.7706 97.7848 45.1836 97.0988 45.5476C96.4128 45.8976 95.7268 46.0726 95.0408 46.0726C93.6968 46.0726 92.7378 45.7296 92.1638 45.0436C91.5898 44.3436 91.3028 43.1956 91.3028 41.5996V35.6776L90.2528 35.3836V34.1866L93.8228 33.9136H93.8438L94.2638 34.2076V41.5996C94.2638 42.6216 94.3898 43.3356 94.6418 43.7416C94.8938 44.1476 95.3628 44.3506 96.0488 44.3506C96.8748 44.3506 97.6448 44.0286 98.3588 43.3846V35.6776L96.9518 35.3626V34.1866L100.753 33.9136H100.795L101.299 34.2076V44.5396H102.475L102.454 45.7366C102.398 45.7506 102.139 45.8066 101.677 45.9046C101.215 46.0026 100.662 46.0516 100.018 46.0516ZM103.959 44.5816L105.135 44.3926V36.1606L103.791 35.7826V34.3336L107.277 33.8926L107.529 34.0606L107.844 34.7536V35.6356C108.306 35.1876 108.964 34.7956 109.818 34.4596C110.686 34.1096 111.435 33.9346 112.065 33.9346C112.821 33.9346 113.43 34.0606 113.892 34.3126C114.368 34.5646 114.725 34.9566 114.963 35.4886C115.425 35.0686 116.034 34.7046 116.79 34.3966C117.546 34.0886 118.288 33.9346 119.016 33.9346C120.262 33.9346 121.144 34.2986 121.662 35.0266C122.18 35.7546 122.439 36.9446 122.439 38.5966V44.3926L123.804 44.5816V45.8416H118.365V44.5816L119.457 44.3926V38.6806C119.457 37.5886 119.324 36.8256 119.058 36.3916C118.806 35.9436 118.316 35.7196 117.588 35.7196C117.196 35.7196 116.79 35.8106 116.37 35.9926C115.964 36.1606 115.6 36.3706 115.278 36.6226C115.376 37.1546 115.425 37.8196 115.425 38.6176V44.3926L116.727 44.5816V45.8416H111.246V44.5816L112.401 44.3926V38.6176C112.401 37.8896 112.352 37.3226 112.254 36.9166C112.17 36.4966 112.002 36.1956 111.75 36.0136C111.498 35.8176 111.134 35.7196 110.658 35.7196C110.21 35.7196 109.762 35.8246 109.314 36.0346C108.88 36.2306 108.488 36.4686 108.138 36.7486V44.3926L109.377 44.5816V45.8416H103.959V44.5816ZM129.138 34.1656H134.682V35.3836L133.296 35.6566L135.207 41.3686L135.879 43.5946L136.446 41.4316L138.315 35.6566L136.992 35.3836V34.1656H141.612V35.3836L140.52 35.6566L136.614 46.0096H134.178L129.999 35.6566L129.138 35.3836V34.1656ZM144.537 44.1196C144.649 44.2876 144.901 44.4486 145.293 44.6026C145.699 44.7426 146.105 44.8126 146.511 44.8126C147.169 44.8126 147.659 44.6796 147.981 44.4136C148.317 44.1336 148.485 43.7696 148.485 43.3216C148.485 42.8596 148.282 42.4886 147.876 42.2086C147.47 41.9146 146.784 41.5576 145.818 41.1376L145.23 40.8856C144.264 40.4796 143.543 39.9896 143.067 39.4156C142.591 38.8416 142.353 38.0996 142.353 37.1896C142.353 36.5596 142.542 35.9996 142.92 35.5096C143.298 35.0056 143.83 34.6136 144.516 34.3336C145.202 34.0536 145.993 33.9136 146.889 33.9136C147.547 33.9136 148.107 33.9556 148.569 34.0396C149.045 34.1236 149.542 34.2356 150.06 34.3756C150.34 34.4736 150.55 34.5296 150.69 34.5436V37.2946H149.031L148.548 35.6986C148.464 35.5586 148.275 35.4326 147.981 35.3206C147.687 35.2086 147.351 35.1526 146.973 35.1526C146.399 35.1526 145.937 35.2786 145.587 35.5306C145.251 35.7686 145.083 36.1046 145.083 36.5386C145.083 36.9306 145.202 37.2596 145.44 37.5256C145.678 37.7776 145.937 37.9736 146.217 38.1136C146.497 38.2536 147.015 38.4846 147.771 38.8066C148.527 39.1286 149.15 39.4366 149.64 39.7306C150.144 40.0246 150.557 40.4096 150.879 40.8856C151.215 41.3476 151.383 41.9146 151.383 42.5866C151.383 43.6226 150.977 44.4626 150.165 45.1066C149.353 45.7506 148.184 46.0726 146.658 46.0726C145.944 46.0726 145.3 46.0096 144.726 45.8836C144.166 45.7576 143.515 45.5896 142.773 45.3796L142.311 45.2326V42.4606H144.054L144.537 44.1196ZM155.07 46.0306C154.636 46.0306 154.258 45.8836 153.936 45.5896C153.614 45.2816 153.453 44.8966 153.453 44.4346C153.453 43.9166 153.635 43.4966 153.999 43.1746C154.377 42.8386 154.832 42.6706 155.364 42.6706C155.868 42.6706 156.267 42.8316 156.561 43.1536C156.855 43.4616 157.002 43.8326 157.002 44.2666C157.002 44.8126 156.82 45.2466 156.456 45.5686C156.106 45.8766 155.644 46.0306 155.07 46.0306ZM165.785 31.8136L164.126 31.5406V30.2386H168.893L175.151 39.6886L176.327 42.0826V31.8136L174.521 31.5406V30.2386H179.729V31.5406L178.112 31.8136V45.8416H175.571L169.04 35.9086L167.57 33.1366V44.3716L169.691 44.5816V45.8416H164.126V44.5816L165.785 44.3716V31.8136ZM180.858 42.5656C180.858 41.2916 181.495 40.3326 182.769 39.6886C184.057 39.0446 185.716 38.7156 187.746 38.7016V38.2186C187.746 37.6446 187.683 37.1966 187.557 36.8746C187.445 36.5526 187.228 36.3146 186.906 36.1606C186.598 35.9926 186.143 35.9086 185.541 35.9086C184.855 35.9086 184.239 35.9996 183.693 36.1816C183.147 36.3496 182.58 36.5736 181.992 36.8536L181.341 35.5096C181.551 35.3276 181.901 35.1106 182.391 34.8586C182.895 34.6066 183.49 34.3896 184.176 34.2076C184.862 34.0116 185.569 33.9136 186.297 33.9136C187.375 33.9136 188.215 34.0536 188.817 34.3336C189.433 34.6136 189.874 35.0616 190.14 35.6776C190.406 36.2936 190.539 37.1196 190.539 38.1556V44.5816H191.673V45.7576C191.393 45.8276 190.994 45.8976 190.476 45.9676C189.958 46.0376 189.503 46.0726 189.111 46.0726C188.635 46.0726 188.313 46.0026 188.145 45.8626C187.991 45.7226 187.914 45.4356 187.914 45.0016V44.4346C187.536 44.8546 187.046 45.2326 186.444 45.5686C185.842 45.9046 185.163 46.0726 184.407 46.0726C183.763 46.0726 183.168 45.9396 182.622 45.6736C182.09 45.3936 181.663 44.9946 181.341 44.4766C181.019 43.9446 180.858 43.3076 180.858 42.5656ZM185.751 44.3296C186.045 44.3296 186.381 44.2456 186.759 44.0776C187.137 43.8956 187.466 43.6786 187.746 43.4266V39.9826C186.486 39.9826 185.541 40.1996 184.911 40.6336C184.295 41.0536 183.987 41.5996 183.987 42.2716C183.987 42.9436 184.141 43.4546 184.449 43.8046C184.771 44.1546 185.205 44.3296 185.751 44.3296ZM195.314 44.1196C195.426 44.2876 195.678 44.4486 196.07 44.6026C196.476 44.7426 196.882 44.8126 197.288 44.8126C197.946 44.8126 198.436 44.6796 198.758 44.4136C199.094 44.1336 199.262 43.7696 199.262 43.3216C199.262 42.8596 199.059 42.4886 198.653 42.2086C198.247 41.9146 197.561 41.5576 196.595 41.1376L196.007 40.8856C195.041 40.4796 194.32 39.9896 193.844 39.4156C193.368 38.8416 193.13 38.0996 193.13 37.1896C193.13 36.5596 193.319 35.9996 193.697 35.5096C194.075 35.0056 194.607 34.6136 195.293 34.3336C195.979 34.0536 196.77 33.9136 197.666 33.9136C198.324 33.9136 198.884 33.9556 199.346 34.0396C199.822 34.1236 200.319 34.2356 200.837 34.3756C201.117 34.4736 201.327 34.5296 201.467 34.5436V37.2946H199.808L199.325 35.6986C199.241 35.5586 199.052 35.4326 198.758 35.3206C198.464 35.2086 198.128 35.1526 197.75 35.1526C197.176 35.1526 196.714 35.2786 196.364 35.5306C196.028 35.7686 195.86 36.1046 195.86 36.5386C195.86 36.9306 195.979 37.2596 196.217 37.5256C196.455 37.7776 196.714 37.9736 196.994 38.1136C197.274 38.2536 197.792 38.4846 198.548 38.8066C199.304 39.1286 199.927 39.4366 200.417 39.7306C200.921 40.0246 201.334 40.4096 201.656 40.8856C201.992 41.3476 202.16 41.9146 202.16 42.5866C202.16 43.6226 201.754 44.4626 200.942 45.1066C200.13 45.7506 198.961 46.0726 197.435 46.0726C196.721 46.0726 196.077 46.0096 195.503 45.8836C194.943 45.7576 194.292 45.5896 193.55 45.3796L193.088 45.2326V42.4606H194.831L195.314 44.1196ZM208.262 46.0726C207.394 46.0726 206.617 45.8696 205.931 45.4636C205.245 45.0436 204.699 44.3996 204.293 43.5316C203.887 42.6636 203.684 41.5786 203.684 40.2766C203.684 39.1006 203.922 38.0296 204.398 37.0636C204.888 36.0836 205.602 35.3066 206.54 34.7326C207.478 34.1586 208.605 33.8716 209.921 33.8716C210.453 33.8716 210.957 33.9276 211.433 34.0396V30.4906L209.375 30.1966V29.0416L213.701 28.6216H213.764L214.352 29.0626V44.5606H215.486V45.7576C214.478 45.9676 213.645 46.0726 212.987 46.0726C212.539 46.0726 212.217 45.9956 212.021 45.8416C211.839 45.7016 211.748 45.4146 211.748 44.9806V44.3926C211.384 44.8826 210.887 45.2886 210.257 45.6106C209.627 45.9186 208.962 46.0726 208.262 46.0726ZM209.354 44.3296C209.816 44.3296 210.222 44.2386 210.572 44.0566C210.936 43.8606 211.223 43.6296 211.433 43.3636V35.7196C211.335 35.5796 211.125 35.4606 210.803 35.3626C210.495 35.2646 210.159 35.2156 209.795 35.2156C208.899 35.2156 208.178 35.6076 207.632 36.3916C207.1 37.1616 206.834 38.4006 206.834 40.1086C206.834 41.5366 207.065 42.6006 207.527 43.3006C207.989 43.9866 208.598 44.3296 209.354 44.3296ZM216.788 42.5656C216.788 41.2916 217.425 40.3326 218.699 39.6886C219.987 39.0446 221.646 38.7156 223.676 38.7016V38.2186C223.676 37.6446 223.613 37.1966 223.487 36.8746C223.375 36.5526 223.158 36.3146 222.836 36.1606C222.528 35.9926 222.073 35.9086 221.471 35.9086C220.785 35.9086 220.169 35.9996 219.623 36.1816C219.077 36.3496 218.51 36.5736 217.922 36.8536L217.271 35.5096C217.481 35.3276 217.831 35.1106 218.321 34.8586C218.825 34.6066 219.42 34.3896 220.106 34.2076C220.792 34.0116 221.499 33.9136 222.227 33.9136C223.305 33.9136 224.145 34.0536 224.747 34.3336C225.363 34.6136 225.804 35.0616 226.07 35.6776C226.336 36.2936 226.469 37.1196 226.469 38.1556V44.5816H227.603V45.7576C227.323 45.8276 226.924 45.8976 226.406 45.9676C225.888 46.0376 225.433 46.0726 225.041 46.0726C224.565 46.0726 224.243 46.0026 224.075 45.8626C223.921 45.7226 223.844 45.4356 223.844 45.0016V44.4346C223.466 44.8546 222.976 45.2326 222.374 45.5686C221.772 45.9046 221.093 46.0726 220.337 46.0726C219.693 46.0726 219.098 45.9396 218.552 45.6736C218.02 45.3936 217.593 44.9946 217.271 44.4766C216.949 43.9446 216.788 43.3076 216.788 42.5656ZM221.681 44.3296C221.975 44.3296 222.311 44.2456 222.689 44.0776C223.067 43.8956 223.396 43.6786 223.676 43.4266V39.9826C222.416 39.9826 221.471 40.1996 220.841 40.6336C220.225 41.0536 219.917 41.5996 219.917 42.2716C219.917 42.9436 220.071 43.4546 220.379 43.8046C220.701 44.1546 221.135 44.3296 221.681 44.3296ZM234.205 49.7476L236.494 49.4956V46.3246L236.557 44.7286C236.165 45.1206 235.682 45.4426 235.108 45.6946C234.548 45.9466 233.946 46.0726 233.302 46.0726C232.448 46.0726 231.671 45.8696 230.971 45.4636C230.285 45.0436 229.739 44.3996 229.333 43.5316C228.927 42.6496 228.724 41.5576 228.724 40.2556C228.724 39.0796 228.962 38.0086 229.438 37.0426C229.928 36.0766 230.642 35.3066 231.58 34.7326C232.532 34.1586 233.659 33.8716 234.961 33.8716C235.717 33.8716 236.543 34.0046 237.439 34.2706L238.93 33.9556L239.392 34.3126V49.4956L240.841 49.7476V50.9236H234.205V49.7476ZM234.436 44.3926C234.856 44.3926 235.248 44.3016 235.612 44.1196C235.99 43.9236 236.284 43.7066 236.494 43.4686V35.6776C236.41 35.5516 236.2 35.4326 235.864 35.3206C235.542 35.2086 235.199 35.1526 234.835 35.1526C233.953 35.1526 233.239 35.5516 232.693 36.3496C232.161 37.1336 231.895 38.3796 231.895 40.0876C231.895 41.5016 232.126 42.5726 232.588 43.3006C233.064 44.0286 233.68 44.3926 234.436 44.3926Z" fill="#00ADEE"/>
<rect x="20.2239" y="71.9072" width="568.516" height="1.12355" fill="#D2D2D2"/>
<rect x="51.6833" y="96.6253" width="1.12355" height="235.946" fill="#D9D9D9"/>
<path d="M26.5237 325.906C26.5237 324.644 26.7291 323.662 27.1397 322.958C27.5504 322.246 28.2691 321.891 29.2957 321.891C30.3151 321.891 31.0301 322.246 31.4407 322.958C31.8514 323.662 32.0567 324.644 32.0567 325.906C32.0567 327.189 31.8514 328.186 31.4407 328.898C31.0301 329.609 30.3151 329.965 29.2957 329.965C28.2691 329.965 27.5504 329.609 27.1397 328.898C26.7291 328.186 26.5237 327.189 26.5237 325.906ZM31.0667 325.906C31.0667 325.268 31.0227 324.729 30.9347 324.289C30.8541 323.841 30.6817 323.482 30.4177 323.211C30.1611 322.939 29.7871 322.804 29.2957 322.804C28.7971 322.804 28.4157 322.939 28.1517 323.211C27.8951 323.482 27.7227 323.841 27.6347 324.289C27.5541 324.729 27.5137 325.268 27.5137 325.906C27.5137 326.566 27.5541 327.119 27.6347 327.567C27.7227 328.014 27.8951 328.373 28.1517 328.645C28.4157 328.916 28.7971 329.052 29.2957 329.052C29.7871 329.052 30.1611 328.916 30.4177 328.645C30.6817 328.373 30.8541 328.014 30.9347 327.567C31.0227 327.119 31.0667 326.566 31.0667 325.906ZM33.2109 323.805C33.2109 323.306 33.3613 322.91 33.6619 322.617C33.9626 322.316 34.3476 322.166 34.8169 322.166C35.2863 322.166 35.6713 322.316 35.9719 322.617C36.2726 322.91 36.4229 323.306 36.4229 323.805C36.4229 324.311 36.2726 324.714 35.9719 325.015C35.6713 325.308 35.2863 325.455 34.8169 325.455C34.3476 325.455 33.9626 325.308 33.6619 325.015C33.3613 324.714 33.2109 324.311 33.2109 323.805ZM39.6349 322.287L35.1799 329.965H34.1899L38.6449 322.287H39.6349ZM34.8169 322.782C34.5676 322.782 34.3696 322.87 34.2229 323.046C34.0836 323.214 34.0139 323.467 34.0139 323.805C34.0139 324.142 34.0836 324.399 34.2229 324.575C34.3696 324.751 34.5676 324.839 34.8169 324.839C35.0663 324.839 35.2643 324.751 35.4109 324.575C35.5576 324.391 35.6309 324.135 35.6309 323.805C35.6309 323.467 35.5576 323.214 35.4109 323.046C35.2643 322.87 35.0663 322.782 34.8169 322.782ZM37.4239 328.447C37.4239 327.941 37.5743 327.541 37.8749 327.248C38.1756 326.947 38.5606 326.797 39.0299 326.797C39.4993 326.797 39.8806 326.947 40.1739 327.248C40.4746 327.541 40.6249 327.941 40.6249 328.447C40.6249 328.945 40.4746 329.345 40.1739 329.646C39.8806 329.946 39.4993 330.097 39.0299 330.097C38.5606 330.097 38.1756 329.95 37.8749 329.657C37.5743 329.356 37.4239 328.953 37.4239 328.447ZM39.0189 327.424C38.7696 327.424 38.5716 327.512 38.4249 327.688C38.2783 327.856 38.2049 328.109 38.2049 328.447C38.2049 328.777 38.2783 329.03 38.4249 329.206C38.5716 329.374 38.7696 329.459 39.0189 329.459C39.2683 329.459 39.4663 329.374 39.6129 329.206C39.7596 329.03 39.8329 328.777 39.8329 328.447C39.8329 328.109 39.7596 327.856 39.6129 327.688C39.4663 327.512 39.2683 327.424 39.0189 327.424Z" fill="#424F5F"/>
<rect x="52.8069" y="332.571" width="1.12355" height="535.933" transform="rotate(-90 52.8069 332.571)" fill="#D9D9D9"/>
<path d="M56.3913 342.522V348.187C56.3913 348.817 56.197 349.323 55.8083 349.705C55.4197 350.079 54.9063 350.266 54.2683 350.266C53.623 350.266 53.106 350.075 52.7173 349.694C52.3287 349.305 52.1343 348.777 52.1343 348.11H53.1353C53.1427 348.484 53.238 348.788 53.4213 349.023C53.612 349.257 53.8943 349.375 54.2683 349.375C54.6423 349.375 54.921 349.265 55.1043 349.045C55.2877 348.817 55.3793 348.531 55.3793 348.187V342.522H56.3913ZM57.9893 347.153C57.9893 346.537 58.114 345.998 58.3633 345.536C58.6127 345.066 58.9537 344.703 59.3863 344.447C59.8263 344.19 60.314 344.062 60.8493 344.062C61.3773 344.062 61.8357 344.175 62.2243 344.403C62.613 344.63 62.9027 344.916 63.0933 345.261V344.161H64.1053V350.189H63.0933V349.067C62.8953 349.419 62.5983 349.712 62.2023 349.947C61.8137 350.174 61.359 350.288 60.8383 350.288C60.303 350.288 59.819 350.156 59.3863 349.892C58.9537 349.628 58.6127 349.257 58.3633 348.781C58.114 348.304 57.9893 347.761 57.9893 347.153ZM63.0933 347.164C63.0933 346.709 63.0017 346.313 62.8183 345.976C62.635 345.638 62.3857 345.382 62.0703 345.206C61.7623 345.022 61.4213 344.931 61.0473 344.931C60.6733 344.931 60.3323 345.019 60.0243 345.195C59.7163 345.371 59.4707 345.627 59.2873 345.965C59.104 346.302 59.0123 346.698 59.0123 347.153C59.0123 347.615 59.104 348.018 59.2873 348.363C59.4707 348.7 59.7163 348.96 60.0243 349.144C60.3323 349.32 60.6733 349.408 61.0473 349.408C61.4213 349.408 61.7623 349.32 62.0703 349.144C62.3857 348.96 62.635 348.7 62.8183 348.363C63.0017 348.018 63.0933 347.618 63.0933 347.164ZM68.7339 344.051C69.4673 344.051 70.0613 344.274 70.5159 344.722C70.9706 345.162 71.1979 345.8 71.1979 346.636V350.189H70.2079V346.779C70.2079 346.177 70.0576 345.719 69.7569 345.404C69.4563 345.081 69.0456 344.92 68.5249 344.92C67.9969 344.92 67.5753 345.085 67.2599 345.415C66.9519 345.745 66.7979 346.225 66.7979 346.856V350.189H65.7969V344.161H66.7979V345.019C66.9959 344.711 67.2636 344.472 67.6009 344.304C67.9456 344.135 68.3233 344.051 68.7339 344.051Z" fill="#424F5F" fill-opacity="0.8"/>
<path d="M173.786 342.577V350.189H172.785V344.513L170.255 350.189H169.551L167.01 344.502V350.189H166.009V342.577H167.087L169.903 348.869L172.719 342.577H173.786ZM175.11 347.153C175.11 346.537 175.234 345.998 175.484 345.536C175.733 345.066 176.074 344.703 176.507 344.447C176.947 344.19 177.434 344.062 177.97 344.062C178.498 344.062 178.956 344.175 179.345 344.403C179.733 344.63 180.023 344.916 180.214 345.261V344.161H181.226V350.189H180.214V349.067C180.016 349.419 179.719 349.712 179.323 349.947C178.934 350.174 178.479 350.288 177.959 350.288C177.423 350.288 176.939 350.156 176.507 349.892C176.074 349.628 175.733 349.257 175.484 348.781C175.234 348.304 175.11 347.761 175.11 347.153ZM180.214 347.164C180.214 346.709 180.122 346.313 179.939 345.976C179.755 345.638 179.506 345.382 179.191 345.206C178.883 345.022 178.542 344.931 178.168 344.931C177.794 344.931 177.453 345.019 177.145 345.195C176.837 345.371 176.591 345.627 176.408 345.965C176.224 346.302 176.133 346.698 176.133 347.153C176.133 347.615 176.224 348.018 176.408 348.363C176.591 348.7 176.837 348.96 177.145 349.144C177.453 349.32 177.794 349.408 178.168 349.408C178.542 349.408 178.883 349.32 179.191 349.144C179.506 348.96 179.755 348.7 179.939 348.363C180.122 348.018 180.214 347.618 180.214 347.164ZM183.918 345.14C184.094 344.795 184.343 344.527 184.666 344.337C184.996 344.146 185.396 344.051 185.865 344.051V345.085H185.601C184.479 345.085 183.918 345.693 183.918 346.911V350.189H182.917V344.161H183.918V345.14Z" fill="#424F5F" fill-opacity="0.8"/>
<path d="M400.198 342.522V348.187C400.198 348.817 400.003 349.323 399.615 349.705C399.226 350.079 398.713 350.266 398.075 350.266C397.429 350.266 396.912 350.075 396.524 349.694C396.135 349.305 395.941 348.777 395.941 348.11H396.942C396.949 348.484 397.044 348.788 397.228 349.023C397.418 349.257 397.701 349.375 398.075 349.375C398.449 349.375 398.727 349.265 398.911 349.045C399.094 348.817 399.186 348.531 399.186 348.187V342.522H400.198ZM407.516 344.161V350.189H406.515V349.298C406.324 349.606 406.056 349.848 405.712 350.024C405.374 350.192 405 350.277 404.59 350.277C404.12 350.277 403.699 350.181 403.325 349.991C402.951 349.793 402.654 349.499 402.434 349.111C402.221 348.722 402.115 348.249 402.115 347.692V344.161H403.105V347.56C403.105 348.154 403.255 348.612 403.556 348.935C403.856 349.25 404.267 349.408 404.788 349.408C405.323 349.408 405.745 349.243 406.053 348.913C406.361 348.583 406.515 348.102 406.515 347.472V344.161H407.516ZM410.207 342.049V350.189H409.206V342.049H410.207Z" fill="#424F5F" fill-opacity="0.8"/>
<path d="M567.222 350.266C566.51 350.266 565.861 350.101 565.275 349.771C564.688 349.433 564.222 348.968 563.878 348.374C563.54 347.772 563.372 347.098 563.372 346.35C563.372 345.602 563.54 344.931 563.878 344.337C564.222 343.735 564.688 343.27 565.275 342.94C565.861 342.602 566.51 342.434 567.222 342.434C567.94 342.434 568.593 342.602 569.18 342.94C569.766 343.27 570.228 343.732 570.566 344.326C570.903 344.92 571.072 345.594 571.072 346.35C571.072 347.105 570.903 347.78 570.566 348.374C570.228 348.968 569.766 349.433 569.18 349.771C568.593 350.101 567.94 350.266 567.222 350.266ZM567.222 349.397C567.757 349.397 568.237 349.272 568.663 349.023C569.095 348.773 569.433 348.418 569.675 347.956C569.924 347.494 570.049 346.958 570.049 346.35C570.049 345.734 569.924 345.198 569.675 344.744C569.433 344.282 569.099 343.926 568.674 343.677C568.248 343.427 567.764 343.303 567.222 343.303C566.679 343.303 566.195 343.427 565.77 343.677C565.344 343.926 565.007 344.282 564.758 344.744C564.516 345.198 564.395 345.734 564.395 346.35C564.395 346.958 564.516 347.494 564.758 347.956C565.007 348.418 565.344 348.773 565.77 349.023C566.202 349.272 566.686 349.397 567.222 349.397ZM572.019 347.164C572.019 346.54 572.144 345.998 572.393 345.536C572.642 345.066 572.987 344.703 573.427 344.447C573.874 344.19 574.384 344.062 574.956 344.062C575.697 344.062 576.305 344.241 576.782 344.601C577.266 344.96 577.585 345.459 577.739 346.097H576.661C576.558 345.73 576.357 345.44 576.056 345.228C575.763 345.015 575.396 344.909 574.956 344.909C574.384 344.909 573.922 345.107 573.57 345.503C573.218 345.891 573.042 346.445 573.042 347.164C573.042 347.89 573.218 348.451 573.57 348.847C573.922 349.243 574.384 349.441 574.956 349.441C575.396 349.441 575.763 349.338 576.056 349.133C576.349 348.927 576.551 348.634 576.661 348.253H577.739C577.578 348.869 577.255 349.364 576.771 349.738C576.287 350.104 575.682 350.288 574.956 350.288C574.384 350.288 573.874 350.159 573.427 349.903C572.987 349.646 572.642 349.283 572.393 348.814C572.144 348.344 572.019 347.794 572.019 347.164ZM580.296 344.986V348.539C580.296 348.832 580.358 349.041 580.483 349.166C580.607 349.283 580.824 349.342 581.132 349.342H581.869V350.189H580.967C580.409 350.189 579.991 350.06 579.713 349.804C579.434 349.547 579.295 349.125 579.295 348.539V344.986H578.514V344.161H579.295V342.643H580.296V344.161H581.869V344.986H580.296Z" fill="#424F5F" fill-opacity="0.8"/>
<path d="M287.264 342.577V350.189H286.263V344.513L283.733 350.189H283.029L280.488 344.502V350.189H279.487V342.577H280.565L283.381 348.869L286.197 342.577H287.264ZM288.588 347.153C288.588 346.537 288.713 345.998 288.962 345.536C289.211 345.066 289.552 344.703 289.985 344.447C290.425 344.19 290.913 344.062 291.448 344.062C291.976 344.062 292.434 344.175 292.823 344.403C293.212 344.63 293.501 344.916 293.692 345.261V344.161H294.704V350.189H293.692V349.067C293.494 349.419 293.197 349.712 292.801 349.947C292.412 350.174 291.958 350.288 291.437 350.288C290.902 350.288 290.418 350.156 289.985 349.892C289.552 349.628 289.211 349.257 288.962 348.781C288.713 348.304 288.588 347.761 288.588 347.153ZM293.692 347.164C293.692 346.709 293.6 346.313 293.417 345.976C293.234 345.638 292.984 345.382 292.669 345.206C292.361 345.022 292.02 344.931 291.646 344.931C291.272 344.931 290.931 345.019 290.623 345.195C290.315 345.371 290.069 345.627 289.886 345.965C289.703 346.302 289.611 346.698 289.611 347.153C289.611 347.615 289.703 348.018 289.886 348.363C290.069 348.7 290.315 348.96 290.623 349.144C290.931 349.32 291.272 349.408 291.646 349.408C292.02 349.408 292.361 349.32 292.669 349.144C292.984 348.96 293.234 348.7 293.417 348.363C293.6 348.018 293.692 347.618 293.692 347.164ZM301.588 344.161L297.958 353.027H296.924L298.112 350.123L295.681 344.161H296.792L298.684 349.045L300.554 344.161H301.588Z" fill="#424F5F" fill-opacity="0.8"/>
<path d="M114.165 342.522V343.336H110.832V345.921H113.538V346.735H110.832V350.189H109.831V342.522H114.165ZM120.874 346.944C120.874 347.134 120.863 347.336 120.841 347.549H116.023C116.06 348.143 116.262 348.608 116.628 348.946C117.002 349.276 117.453 349.441 117.981 349.441C118.414 349.441 118.773 349.342 119.059 349.144C119.353 348.938 119.558 348.667 119.675 348.33H120.753C120.592 348.909 120.269 349.382 119.785 349.749C119.301 350.108 118.7 350.288 117.981 350.288C117.409 350.288 116.896 350.159 116.441 349.903C115.994 349.646 115.642 349.283 115.385 348.814C115.129 348.337 115 347.787 115 347.164C115 346.54 115.125 345.994 115.374 345.525C115.624 345.055 115.972 344.696 116.419 344.447C116.874 344.19 117.395 344.062 117.981 344.062C118.553 344.062 119.059 344.186 119.499 344.436C119.939 344.685 120.277 345.03 120.511 345.47C120.753 345.902 120.874 346.394 120.874 346.944ZM119.84 346.735C119.84 346.353 119.756 346.027 119.587 345.756C119.419 345.477 119.188 345.268 118.894 345.129C118.608 344.982 118.289 344.909 117.937 344.909C117.431 344.909 116.999 345.07 116.639 345.393C116.287 345.715 116.086 346.163 116.034 346.735H119.84ZM123.197 345.283C123.402 344.923 123.703 344.63 124.099 344.403C124.495 344.175 124.946 344.062 125.452 344.062C125.994 344.062 126.482 344.19 126.915 344.447C127.347 344.703 127.688 345.066 127.938 345.536C128.187 345.998 128.312 346.537 128.312 347.153C128.312 347.761 128.187 348.304 127.938 348.781C127.688 349.257 127.344 349.628 126.904 349.892C126.471 350.156 125.987 350.288 125.452 350.288C124.931 350.288 124.473 350.174 124.077 349.947C123.688 349.719 123.395 349.43 123.197 349.078V350.189H122.196V342.049H123.197V345.283ZM127.289 347.153C127.289 346.698 127.197 346.302 127.014 345.965C126.83 345.627 126.581 345.371 126.266 345.195C125.958 345.019 125.617 344.931 125.243 344.931C124.876 344.931 124.535 345.022 124.22 345.206C123.912 345.382 123.662 345.642 123.472 345.987C123.288 346.324 123.197 346.716 123.197 347.164C123.197 347.618 123.288 348.018 123.472 348.363C123.662 348.7 123.912 348.96 124.22 349.144C124.535 349.32 124.876 349.408 125.243 349.408C125.617 349.408 125.958 349.32 126.266 349.144C126.581 348.96 126.83 348.7 127.014 348.363C127.197 348.018 127.289 347.615 127.289 347.153Z" fill="#424F5F" fill-opacity="0.8"/>
<path d="M228.966 348.484H225.622L225.006 350.189H223.95L226.722 342.566H227.877L230.638 350.189H229.582L228.966 348.484ZM228.68 347.67L227.294 343.798L225.908 347.67H228.68ZM232.847 345.272C233.045 344.927 233.338 344.641 233.727 344.414C234.123 344.179 234.581 344.062 235.102 344.062C235.637 344.062 236.121 344.19 236.554 344.447C236.994 344.703 237.338 345.066 237.588 345.536C237.837 345.998 237.962 346.537 237.962 347.153C237.962 347.761 237.837 348.304 237.588 348.781C237.338 349.257 236.994 349.628 236.554 349.892C236.121 350.156 235.637 350.288 235.102 350.288C234.588 350.288 234.134 350.174 233.738 349.947C233.349 349.712 233.052 349.422 232.847 349.078V353.049H231.846V344.161H232.847V345.272ZM236.939 347.153C236.939 346.698 236.847 346.302 236.664 345.965C236.48 345.627 236.231 345.371 235.916 345.195C235.608 345.019 235.267 344.931 234.893 344.931C234.526 344.931 234.185 345.022 233.87 345.206C233.562 345.382 233.312 345.642 233.122 345.987C232.938 346.324 232.847 346.716 232.847 347.164C232.847 347.618 232.938 348.018 233.122 348.363C233.312 348.7 233.562 348.96 233.87 349.144C234.185 349.32 234.526 349.408 234.893 349.408C235.267 349.408 235.608 349.32 235.916 349.144C236.231 348.96 236.48 348.7 236.664 348.363C236.847 348.018 236.939 347.615 236.939 347.153ZM240.28 345.14C240.456 344.795 240.706 344.527 241.028 344.337C241.358 344.146 241.758 344.051 242.227 344.051V345.085H241.963C240.841 345.085 240.28 345.693 240.28 346.911V350.189H239.279V344.161H240.28V345.14Z" fill="#424F5F" fill-opacity="0.8"/>
<path d="M344.02 342.522V348.187C344.02 348.817 343.826 349.323 343.437 349.705C343.049 350.079 342.535 350.266 341.897 350.266C341.252 350.266 340.735 350.075 340.346 349.694C339.958 349.305 339.763 348.777 339.763 348.11H340.764C340.772 348.484 340.867 348.788 341.05 349.023C341.241 349.257 341.523 349.375 341.897 349.375C342.271 349.375 342.55 349.265 342.733 349.045C342.917 348.817 343.008 348.531 343.008 348.187V342.522H344.02ZM351.338 344.161V350.189H350.337V349.298C350.147 349.606 349.879 349.848 349.534 350.024C349.197 350.192 348.823 350.277 348.412 350.277C347.943 350.277 347.521 350.181 347.147 349.991C346.773 349.793 346.476 349.499 346.256 349.111C346.044 348.722 345.937 348.249 345.937 347.692V344.161H346.927V347.56C346.927 348.154 347.078 348.612 347.378 348.935C347.679 349.25 348.09 349.408 348.61 349.408C349.146 349.408 349.567 349.243 349.875 348.913C350.183 348.583 350.337 348.102 350.337 347.472V344.161H351.338ZM355.965 344.051C356.699 344.051 357.293 344.274 357.747 344.722C358.202 345.162 358.429 345.8 358.429 346.636V350.189H357.439V346.779C357.439 346.177 357.289 345.719 356.988 345.404C356.688 345.081 356.277 344.92 355.756 344.92C355.228 344.92 354.807 345.085 354.491 345.415C354.183 345.745 354.029 346.225 354.029 346.856V350.189H353.028V344.161H354.029V345.019C354.227 344.711 354.495 344.472 354.832 344.304C355.177 344.135 355.555 344.051 355.965 344.051Z" fill="#424F5F" fill-opacity="0.8"/>
<path d="M508.876 350.266C508.37 350.266 507.915 350.178 507.512 350.002C507.116 349.818 506.804 349.569 506.577 349.254C506.349 348.931 506.232 348.561 506.225 348.143H507.292C507.328 348.502 507.475 348.806 507.732 349.056C507.996 349.298 508.377 349.419 508.876 349.419C509.352 349.419 509.726 349.301 509.998 349.067C510.276 348.825 510.416 348.517 510.416 348.143C510.416 347.849 510.335 347.611 510.174 347.428C510.012 347.244 509.811 347.105 509.569 347.01C509.327 346.914 509 346.812 508.59 346.702C508.084 346.57 507.677 346.438 507.369 346.306C507.068 346.174 506.808 345.968 506.588 345.69C506.375 345.404 506.269 345.022 506.269 344.546C506.269 344.128 506.375 343.757 506.588 343.435C506.8 343.112 507.097 342.863 507.479 342.687C507.867 342.511 508.311 342.423 508.81 342.423C509.528 342.423 510.115 342.602 510.57 342.962C511.032 343.321 511.292 343.798 511.351 344.392H510.251C510.214 344.098 510.06 343.842 509.789 343.622C509.517 343.394 509.158 343.281 508.711 343.281C508.293 343.281 507.952 343.391 507.688 343.611C507.424 343.823 507.292 344.124 507.292 344.513C507.292 344.791 507.369 345.019 507.523 345.195C507.684 345.371 507.878 345.506 508.106 345.602C508.34 345.69 508.667 345.792 509.085 345.91C509.591 346.049 509.998 346.188 510.306 346.328C510.614 346.46 510.878 346.669 511.098 346.955C511.318 347.233 511.428 347.615 511.428 348.099C511.428 348.473 511.329 348.825 511.131 349.155C510.933 349.485 510.639 349.752 510.251 349.958C509.862 350.163 509.404 350.266 508.876 350.266ZM518.401 346.944C518.401 347.134 518.39 347.336 518.368 347.549H513.55C513.586 348.143 513.788 348.608 514.155 348.946C514.529 349.276 514.98 349.441 515.508 349.441C515.94 349.441 516.3 349.342 516.586 349.144C516.879 348.938 517.084 348.667 517.202 348.33H518.28C518.118 348.909 517.796 349.382 517.312 349.749C516.828 350.108 516.226 350.288 515.508 350.288C514.936 350.288 514.422 350.159 513.968 349.903C513.52 349.646 513.168 349.283 512.912 348.814C512.655 348.337 512.527 347.787 512.527 347.164C512.527 346.54 512.651 345.994 512.901 345.525C513.15 345.055 513.498 344.696 513.946 344.447C514.4 344.19 514.921 344.062 515.508 344.062C516.08 344.062 516.586 344.186 517.026 344.436C517.466 344.685 517.803 345.03 518.038 345.47C518.28 345.902 518.401 346.394 518.401 346.944ZM517.367 346.735C517.367 346.353 517.282 346.027 517.114 345.756C516.945 345.477 516.714 345.268 516.421 345.129C516.135 344.982 515.816 344.909 515.464 344.909C514.958 344.909 514.525 345.07 514.166 345.393C513.814 345.715 513.612 346.163 513.561 346.735H517.367ZM520.723 345.272C520.921 344.927 521.214 344.641 521.603 344.414C521.999 344.179 522.457 344.062 522.978 344.062C523.513 344.062 523.997 344.19 524.43 344.447C524.87 344.703 525.215 345.066 525.464 345.536C525.713 345.998 525.838 346.537 525.838 347.153C525.838 347.761 525.713 348.304 525.464 348.781C525.215 349.257 524.87 349.628 524.43 349.892C523.997 350.156 523.513 350.288 522.978 350.288C522.465 350.288 522.01 350.174 521.614 349.947C521.225 349.712 520.928 349.422 520.723 349.078V353.049H519.722V344.161H520.723V345.272ZM524.815 347.153C524.815 346.698 524.723 346.302 524.54 345.965C524.357 345.627 524.107 345.371 523.792 345.195C523.484 345.019 523.143 344.931 522.769 344.931C522.402 344.931 522.061 345.022 521.746 345.206C521.438 345.382 521.189 345.642 520.998 345.987C520.815 346.324 520.723 346.716 520.723 347.164C520.723 347.618 520.815 348.018 520.998 348.363C521.189 348.7 521.438 348.96 521.746 349.144C522.061 349.32 522.402 349.408 522.769 349.408C523.143 349.408 523.484 349.32 523.792 349.144C524.107 348.96 524.357 348.7 524.54 348.363C524.723 348.018 524.815 347.615 524.815 347.153Z" fill="#424F5F" fill-opacity="0.8"/>
<path d="M452.552 348.484H449.208L448.592 350.189H447.536L450.308 342.566H451.463L454.224 350.189H453.168L452.552 348.484ZM452.266 347.67L450.88 343.798L449.494 347.67H452.266ZM460.778 344.161V350.189H459.777V349.298C459.586 349.606 459.319 349.848 458.974 350.024C458.637 350.192 458.263 350.277 457.852 350.277C457.383 350.277 456.961 350.181 456.587 349.991C456.213 349.793 455.916 349.499 455.696 349.111C455.483 348.722 455.377 348.249 455.377 347.692V344.161H456.367V347.56C456.367 348.154 456.517 348.612 456.818 348.935C457.119 349.25 457.529 349.408 458.05 349.408C458.585 349.408 459.007 349.243 459.315 348.913C459.623 348.583 459.777 348.102 459.777 347.472V344.161H460.778ZM464.954 344.062C465.475 344.062 465.93 344.175 466.318 344.403C466.714 344.63 467.008 344.916 467.198 345.261V344.161H468.21V350.321C468.21 350.871 468.093 351.358 467.858 351.784C467.624 352.216 467.286 352.554 466.846 352.796C466.414 353.038 465.908 353.159 465.328 353.159C464.536 353.159 463.876 352.972 463.348 352.598C462.82 352.224 462.509 351.714 462.413 351.069H463.403C463.513 351.435 463.741 351.729 464.085 351.949C464.43 352.176 464.844 352.29 465.328 352.29C465.878 352.29 466.326 352.117 466.67 351.773C467.022 351.428 467.198 350.944 467.198 350.321V349.056C467 349.408 466.707 349.701 466.318 349.936C465.93 350.17 465.475 350.288 464.954 350.288C464.419 350.288 463.931 350.156 463.491 349.892C463.059 349.628 462.718 349.257 462.468 348.781C462.219 348.304 462.094 347.761 462.094 347.153C462.094 346.537 462.219 345.998 462.468 345.536C462.718 345.066 463.059 344.703 463.491 344.447C463.931 344.19 464.419 344.062 464.954 344.062ZM467.198 347.164C467.198 346.709 467.107 346.313 466.923 345.976C466.74 345.638 466.491 345.382 466.175 345.206C465.867 345.022 465.526 344.931 465.152 344.931C464.778 344.931 464.437 345.019 464.129 345.195C463.821 345.371 463.576 345.627 463.392 345.965C463.209 346.302 463.117 346.698 463.117 347.153C463.117 347.615 463.209 348.018 463.392 348.363C463.576 348.7 463.821 348.96 464.129 349.144C464.437 349.32 464.778 349.408 465.152 349.408C465.526 349.408 465.867 349.32 466.175 349.144C466.491 348.96 466.74 348.7 466.923 348.363C467.107 348.018 467.198 347.618 467.198 347.164Z" fill="#424F5F" fill-opacity="0.8"/>
<path d="M16.4117 213.551C16.4117 212.289 16.6171 211.307 17.0277 210.603C17.4384 209.891 18.1571 209.536 19.1837 209.536C20.2031 209.536 20.9181 209.891 21.3287 210.603C21.7394 211.307 21.9447 212.289 21.9447 213.551C21.9447 214.834 21.7394 215.831 21.3287 216.543C20.9181 217.254 20.2031 217.61 19.1837 217.61C18.1571 217.61 17.4384 217.254 17.0277 216.543C16.6171 215.831 16.4117 214.834 16.4117 213.551ZM20.9547 213.551C20.9547 212.913 20.9107 212.374 20.8227 211.934C20.7421 211.486 20.5697 211.127 20.3057 210.856C20.0491 210.584 19.6751 210.449 19.1837 210.449C18.6851 210.449 18.3037 210.584 18.0397 210.856C17.7831 211.127 17.6107 211.486 17.5227 211.934C17.4421 212.374 17.4017 212.913 17.4017 213.551C17.4017 214.211 17.4421 214.764 17.5227 215.212C17.6107 215.659 17.7831 216.018 18.0397 216.29C18.3037 216.561 18.6851 216.697 19.1837 216.697C19.6751 216.697 20.0491 216.561 20.3057 216.29C20.5697 216.018 20.7421 215.659 20.8227 215.212C20.9107 214.764 20.9547 214.211 20.9547 213.551ZM23.8029 217.676C23.6123 217.676 23.4509 217.61 23.3189 217.478C23.1869 217.346 23.1209 217.184 23.1209 216.994C23.1209 216.803 23.1869 216.642 23.3189 216.51C23.4509 216.378 23.6123 216.312 23.8029 216.312C23.9863 216.312 24.1403 216.378 24.2649 216.51C24.3969 216.642 24.4629 216.803 24.4629 216.994C24.4629 217.184 24.3969 217.346 24.2649 217.478C24.1403 217.61 23.9863 217.676 23.8029 217.676ZM25.5075 216.807C26.4389 216.059 27.1685 215.446 27.6965 214.97C28.2245 214.486 28.6682 213.983 29.0275 213.463C29.3942 212.935 29.5775 212.418 29.5775 211.912C29.5775 211.435 29.4602 211.061 29.2255 210.79C28.9982 210.511 28.6279 210.372 28.1145 210.372C27.6159 210.372 27.2272 210.529 26.9485 210.845C26.6772 211.153 26.5305 211.567 26.5085 212.088H25.5405C25.5699 211.266 25.8192 210.632 26.2885 210.185C26.7579 209.737 27.3629 209.514 28.1035 209.514C28.8589 209.514 29.4565 209.723 29.8965 210.141C30.3439 210.559 30.5675 211.134 30.5675 211.868C30.5675 212.476 30.3842 213.07 30.0175 213.65C29.6582 214.222 29.2475 214.728 28.7855 215.168C28.3235 215.6 27.7332 216.106 27.0145 216.686H30.7985V217.522H25.5075V216.807ZM31.7357 211.45C31.7357 210.951 31.886 210.555 32.1867 210.262C32.4873 209.961 32.8723 209.811 33.3417 209.811C33.811 209.811 34.196 209.961 34.4967 210.262C34.7973 210.555 34.9477 210.951 34.9477 211.45C34.9477 211.956 34.7973 212.359 34.4967 212.66C34.196 212.953 33.811 213.1 33.3417 213.1C32.8723 213.1 32.4873 212.953 32.1867 212.66C31.886 212.359 31.7357 211.956 31.7357 211.45ZM38.1597 209.932L33.7047 217.61H32.7147L37.1697 209.932H38.1597ZM33.3417 210.427C33.0923 210.427 32.8943 210.515 32.7477 210.691C32.6083 210.859 32.5387 211.112 32.5387 211.45C32.5387 211.787 32.6083 212.044 32.7477 212.22C32.8943 212.396 33.0923 212.484 33.3417 212.484C33.591 212.484 33.789 212.396 33.9357 212.22C34.0823 212.036 34.1557 211.78 34.1557 211.45C34.1557 211.112 34.0823 210.859 33.9357 210.691C33.789 210.515 33.591 210.427 33.3417 210.427ZM35.9487 216.092C35.9487 215.586 36.099 215.186 36.3997 214.893C36.7003 214.592 37.0853 214.442 37.5547 214.442C38.024 214.442 38.4053 214.592 38.6987 214.893C38.9993 215.186 39.1497 215.586 39.1497 216.092C39.1497 216.59 38.9993 216.99 38.6987 217.291C38.4053 217.591 38.024 217.742 37.5547 217.742C37.0853 217.742 36.7003 217.595 36.3997 217.302C36.099 217.001 35.9487 216.598 35.9487 216.092ZM37.5437 215.069C37.2943 215.069 37.0963 215.157 36.9497 215.333C36.803 215.501 36.7297 215.754 36.7297 216.092C36.7297 216.422 36.803 216.675 36.9497 216.851C37.0963 217.019 37.2943 217.104 37.5437 217.104C37.793 217.104 37.991 217.019 38.1377 216.851C38.2843 216.675 38.3577 216.422 38.3577 216.092C38.3577 215.754 38.2843 215.501 38.1377 215.333C37.991 215.157 37.793 215.069 37.5437 215.069Z" fill="#424F5F"/>
<path d="M15.2882 269.728C15.2882 268.467 15.4935 267.484 15.9042 266.78C16.3148 266.069 17.0335 265.713 18.0602 265.713C19.0795 265.713 19.7945 266.069 20.2052 266.78C20.6158 267.484 20.8212 268.467 20.8212 269.728C20.8212 271.012 20.6158 272.009 20.2052 272.72C19.7945 273.432 19.0795 273.787 18.0602 273.787C17.0335 273.787 16.3148 273.432 15.9042 272.72C15.4935 272.009 15.2882 271.012 15.2882 269.728ZM19.8312 269.728C19.8312 269.09 19.7872 268.551 19.6992 268.111C19.6185 267.664 19.4462 267.305 19.1822 267.033C18.9255 266.762 18.5515 266.626 18.0602 266.626C17.5615 266.626 17.1802 266.762 16.9162 267.033C16.6595 267.305 16.4872 267.664 16.3992 268.111C16.3185 268.551 16.2782 269.09 16.2782 269.728C16.2782 270.388 16.3185 270.942 16.3992 271.389C16.4872 271.837 16.6595 272.196 16.9162 272.467C17.1802 272.739 17.5615 272.874 18.0602 272.874C18.5515 272.874 18.9255 272.739 19.1822 272.467C19.4462 272.196 19.6185 271.837 19.6992 271.389C19.7872 270.942 19.8312 270.388 19.8312 269.728ZM22.6794 273.853C22.4887 273.853 22.3274 273.787 22.1954 273.655C22.0634 273.523 21.9974 273.362 21.9974 273.171C21.9974 272.981 22.0634 272.819 22.1954 272.687C22.3274 272.555 22.4887 272.489 22.6794 272.489C22.8627 272.489 23.0167 272.555 23.1414 272.687C23.2734 272.819 23.3394 272.981 23.3394 273.171C23.3394 273.362 23.2734 273.523 23.1414 273.655C23.0167 273.787 22.8627 273.853 22.6794 273.853ZM24.263 272.016V271.257L28.124 265.911H29.323V271.147H30.423V272.016H29.323V273.787H28.333V272.016H24.263ZM28.377 266.956L25.418 271.147H28.377V266.956ZM31.2029 267.627C31.2029 267.129 31.3533 266.733 31.6539 266.439C31.9546 266.139 32.3396 265.988 32.8089 265.988C33.2783 265.988 33.6633 266.139 33.9639 266.439C34.2646 266.733 34.4149 267.129 34.4149 267.627C34.4149 268.133 34.2646 268.537 33.9639 268.837C33.6633 269.131 33.2783 269.277 32.8089 269.277C32.3396 269.277 31.9546 269.131 31.6539 268.837C31.3533 268.537 31.2029 268.133 31.2029 267.627ZM37.6269 266.109L33.1719 273.787H32.1819L36.6369 266.109H37.6269ZM32.8089 266.604C32.5596 266.604 32.3616 266.692 32.2149 266.868C32.0756 267.037 32.0059 267.29 32.0059 267.627C32.0059 267.965 32.0756 268.221 32.2149 268.397C32.3616 268.573 32.5596 268.661 32.8089 268.661C33.0583 268.661 33.2563 268.573 33.4029 268.397C33.5496 268.214 33.6229 267.957 33.6229 267.627C33.6229 267.29 33.5496 267.037 33.4029 266.868C33.2563 266.692 33.0583 266.604 32.8089 266.604ZM35.4159 272.269C35.4159 271.763 35.5663 271.364 35.8669 271.07C36.1676 270.77 36.5526 270.619 37.0219 270.619C37.4913 270.619 37.8726 270.77 38.1659 271.07C38.4666 271.364 38.6169 271.763 38.6169 272.269C38.6169 272.768 38.4666 273.168 38.1659 273.468C37.8726 273.769 37.4913 273.919 37.0219 273.919C36.5526 273.919 36.1676 273.773 35.8669 273.479C35.5663 273.179 35.4159 272.775 35.4159 272.269ZM37.0109 271.246C36.7616 271.246 36.5636 271.334 36.4169 271.51C36.2703 271.679 36.1969 271.932 36.1969 272.269C36.1969 272.599 36.2703 272.852 36.4169 273.028C36.5636 273.197 36.7616 273.281 37.0109 273.281C37.2603 273.281 37.4583 273.197 37.6049 273.028C37.7516 272.852 37.8249 272.599 37.8249 272.269C37.8249 271.932 37.7516 271.679 37.6049 271.51C37.4583 271.334 37.2603 271.246 37.0109 271.246Z" fill="#424F5F"/>
<path d="M15.2882 157.373C15.2882 156.112 15.4935 155.129 15.9042 154.425C16.3148 153.714 17.0335 153.358 18.0602 153.358C19.0795 153.358 19.7945 153.714 20.2052 154.425C20.6158 155.129 20.8212 156.112 20.8212 157.373C20.8212 158.657 20.6158 159.654 20.2052 160.365C19.7945 161.077 19.0795 161.432 18.0602 161.432C17.0335 161.432 16.3148 161.077 15.9042 160.365C15.4935 159.654 15.2882 158.657 15.2882 157.373ZM19.8312 157.373C19.8312 156.735 19.7872 156.196 19.6992 155.756C19.6185 155.309 19.4462 154.95 19.1822 154.678C18.9255 154.407 18.5515 154.271 18.0602 154.271C17.5615 154.271 17.1802 154.407 16.9162 154.678C16.6595 154.95 16.4872 155.309 16.3992 155.756C16.3185 156.196 16.2782 156.735 16.2782 157.373C16.2782 158.033 16.3185 158.587 16.3992 159.034C16.4872 159.482 16.6595 159.841 16.9162 160.112C17.1802 160.384 17.5615 160.519 18.0602 160.519C18.5515 160.519 18.9255 160.384 19.1822 160.112C19.4462 159.841 19.6185 159.482 19.6992 159.034C19.7872 158.587 19.8312 158.033 19.8312 157.373ZM22.6794 161.498C22.4887 161.498 22.3274 161.432 22.1954 161.3C22.0634 161.168 21.9974 161.007 21.9974 160.816C21.9974 160.626 22.0634 160.464 22.1954 160.332C22.3274 160.2 22.4887 160.134 22.6794 160.134C22.8627 160.134 23.0167 160.2 23.1414 160.332C23.2734 160.464 23.3394 160.626 23.3394 160.816C23.3394 161.007 23.2734 161.168 23.1414 161.3C23.0167 161.432 22.8627 161.498 22.6794 161.498ZM28.938 155.371C28.7766 154.557 28.2743 154.15 27.431 154.15C26.7783 154.15 26.2906 154.403 25.968 154.909C25.6453 155.408 25.4876 156.233 25.495 157.384C25.6636 157.003 25.9423 156.706 26.331 156.493C26.727 156.273 27.167 156.163 27.651 156.163C28.4063 156.163 29.0076 156.398 29.455 156.867C29.9096 157.337 30.137 157.986 30.137 158.814C30.137 159.313 30.038 159.76 29.84 160.156C29.6493 160.552 29.356 160.868 28.96 161.102C28.5713 161.337 28.0983 161.454 27.541 161.454C26.7856 161.454 26.1953 161.286 25.77 160.948C25.3446 160.611 25.0476 160.145 24.879 159.551C24.7103 158.957 24.626 158.224 24.626 157.351C24.626 154.66 25.5646 153.314 27.442 153.314C28.1606 153.314 28.7253 153.509 29.136 153.897C29.5466 154.286 29.7886 154.777 29.862 155.371H28.938ZM27.442 157.01C27.1266 157.01 26.8296 157.076 26.551 157.208C26.2723 157.333 26.045 157.527 25.869 157.791C25.7003 158.048 25.616 158.363 25.616 158.737C25.616 159.295 25.7773 159.749 26.1 160.101C26.4226 160.446 26.8846 160.618 27.486 160.618C27.9993 160.618 28.4063 160.461 28.707 160.145C29.015 159.823 29.169 159.39 29.169 158.847C29.169 158.275 29.0223 157.828 28.729 157.505C28.4356 157.175 28.0066 157.01 27.442 157.01ZM31.2674 155.272C31.2674 154.774 31.4177 154.378 31.7184 154.084C32.0191 153.784 32.4041 153.633 32.8734 153.633C33.3427 153.633 33.7277 153.784 34.0284 154.084C34.3291 154.378 34.4794 154.774 34.4794 155.272C34.4794 155.778 34.3291 156.182 34.0284 156.482C33.7277 156.776 33.3427 156.922 32.8734 156.922C32.4041 156.922 32.0191 156.776 31.7184 156.482C31.4177 156.182 31.2674 155.778 31.2674 155.272ZM37.6914 153.754L33.2364 161.432H32.2464L36.7014 153.754H37.6914ZM32.8734 154.249C32.6241 154.249 32.4261 154.337 32.2794 154.513C32.1401 154.682 32.0704 154.935 32.0704 155.272C32.0704 155.61 32.1401 155.866 32.2794 156.042C32.4261 156.218 32.6241 156.306 32.8734 156.306C33.1227 156.306 33.3207 156.218 33.4674 156.042C33.6141 155.859 33.6874 155.602 33.6874 155.272C33.6874 154.935 33.6141 154.682 33.4674 154.513C33.3207 154.337 33.1227 154.249 32.8734 154.249ZM35.4804 159.914C35.4804 159.408 35.6307 159.009 35.9314 158.715C36.2321 158.415 36.6171 158.264 37.0864 158.264C37.5557 158.264 37.9371 158.415 38.2304 158.715C38.5311 159.009 38.6814 159.408 38.6814 159.914C38.6814 160.413 38.5311 160.813 38.2304 161.113C37.9371 161.414 37.5557 161.564 37.0864 161.564C36.6171 161.564 36.2321 161.418 35.9314 161.124C35.6307 160.824 35.4804 160.42 35.4804 159.914ZM37.0754 158.891C36.8261 158.891 36.6281 158.979 36.4814 159.155C36.3347 159.324 36.2614 159.577 36.2614 159.914C36.2614 160.244 36.3347 160.497 36.4814 160.673C36.6281 160.842 36.8261 160.926 37.0754 160.926C37.3247 160.926 37.5227 160.842 37.6694 160.673C37.8161 160.497 37.8894 160.244 37.8894 159.914C37.8894 159.577 37.8161 159.324 37.6694 159.155C37.5227 158.979 37.3247 158.891 37.0754 158.891Z" fill="#424F5F"/>
<path d="M15.2882 101.196C15.2882 99.9343 15.4935 98.9517 15.9042 98.2477C16.3148 97.5363 17.0335 97.1807 18.0602 97.1807C19.0795 97.1807 19.7945 97.5363 20.2052 98.2477C20.6158 98.9517 20.8212 99.9343 20.8212 101.196C20.8212 102.479 20.6158 103.476 20.2052 104.188C19.7945 104.899 19.0795 105.255 18.0602 105.255C17.0335 105.255 16.3148 104.899 15.9042 104.188C15.4935 103.476 15.2882 102.479 15.2882 101.196ZM19.8312 101.196C19.8312 100.558 19.7872 100.019 19.6992 99.5787C19.6185 99.1313 19.4462 98.772 19.1822 98.5007C18.9255 98.2293 18.5515 98.0937 18.0602 98.0937C17.5615 98.0937 17.1802 98.2293 16.9162 98.5007C16.6595 98.772 16.4872 99.1313 16.3992 99.5787C16.3185 100.019 16.2782 100.558 16.2782 101.196C16.2782 101.856 16.3185 102.409 16.3992 102.857C16.4872 103.304 16.6595 103.663 16.9162 103.935C17.1802 104.206 17.5615 104.342 18.0602 104.342C18.5515 104.342 18.9255 104.206 19.1822 103.935C19.4462 103.663 19.6185 103.304 19.6992 102.857C19.7872 102.409 19.8312 101.856 19.8312 101.196ZM22.6794 105.321C22.4887 105.321 22.3274 105.255 22.1954 105.123C22.0634 104.991 21.9974 104.829 21.9974 104.639C21.9974 104.448 22.0634 104.287 22.1954 104.155C22.3274 104.023 22.4887 103.957 22.6794 103.957C22.8627 103.957 23.0167 104.023 23.1414 104.155C23.2734 104.287 23.3394 104.448 23.3394 104.639C23.3394 104.829 23.2734 104.991 23.1414 105.123C23.0167 105.255 22.8627 105.321 22.6794 105.321ZM25.957 101.119C25.5463 100.957 25.231 100.723 25.011 100.415C24.791 100.107 24.681 99.7327 24.681 99.2927C24.681 98.8967 24.78 98.541 24.978 98.2257C25.176 97.903 25.4693 97.65 25.858 97.4667C26.254 97.276 26.7306 97.1807 27.288 97.1807C27.8453 97.1807 28.3183 97.276 28.707 97.4667C29.103 97.65 29.4 97.903 29.598 98.2257C29.8033 98.541 29.906 98.8967 29.906 99.2927C29.906 99.718 29.7923 100.092 29.565 100.415C29.3376 100.73 29.026 100.965 28.63 101.119C29.0846 101.258 29.444 101.504 29.708 101.856C29.9793 102.2 30.115 102.618 30.115 103.11C30.115 103.586 29.9976 104.004 29.763 104.364C29.5283 104.716 29.1946 104.991 28.762 105.189C28.3366 105.379 27.8453 105.475 27.288 105.475C26.7306 105.475 26.2393 105.379 25.814 105.189C25.396 104.991 25.0696 104.716 24.835 104.364C24.6003 104.004 24.483 103.586 24.483 103.11C24.483 102.618 24.615 102.197 24.879 101.845C25.143 101.493 25.5023 101.251 25.957 101.119ZM28.938 99.4137C28.938 98.9663 28.7913 98.6217 28.498 98.3797C28.2046 98.1377 27.8013 98.0167 27.288 98.0167C26.782 98.0167 26.3823 98.1377 26.089 98.3797C25.7956 98.6217 25.649 98.97 25.649 99.4247C25.649 99.8353 25.7993 100.165 26.1 100.415C26.408 100.664 26.804 100.789 27.288 100.789C27.7793 100.789 28.1753 100.664 28.476 100.415C28.784 100.158 28.938 99.8243 28.938 99.4137ZM27.288 101.559C26.7453 101.559 26.3016 101.687 25.957 101.944C25.6123 102.193 25.44 102.571 25.44 103.077C25.44 103.546 25.605 103.924 25.935 104.21C26.2723 104.496 26.7233 104.639 27.288 104.639C27.8526 104.639 28.3 104.496 28.63 104.21C28.96 103.924 29.125 103.546 29.125 103.077C29.125 102.585 28.9563 102.211 28.619 101.955C28.2816 101.691 27.838 101.559 27.288 101.559ZM31.2244 99.0947C31.2244 98.596 31.3748 98.2 31.6754 97.9067C31.9761 97.606 32.3611 97.4557 32.8304 97.4557C33.2998 97.4557 33.6848 97.606 33.9854 97.9067C34.2861 98.2 34.4364 98.596 34.4364 99.0947C34.4364 99.6007 34.2861 100.004 33.9854 100.305C33.6848 100.598 33.2998 100.745 32.8304 100.745C32.3611 100.745 31.9761 100.598 31.6754 100.305C31.3748 100.004 31.2244 99.6007 31.2244 99.0947ZM37.6484 97.5767L33.1934 105.255H32.2034L36.6584 97.5767H37.6484ZM32.8304 98.0717C32.5811 98.0717 32.3831 98.1597 32.2364 98.3357C32.0971 98.5043 32.0274 98.7573 32.0274 99.0947C32.0274 99.432 32.0971 99.6887 32.2364 99.8647C32.3831 100.041 32.5811 100.129 32.8304 100.129C33.0798 100.129 33.2778 100.041 33.4244 99.8647C33.5711 99.6813 33.6444 99.4247 33.6444 99.0947C33.6444 98.7573 33.5711 98.5043 33.4244 98.3357C33.2778 98.1597 33.0798 98.0717 32.8304 98.0717ZM35.4374 103.737C35.4374 103.231 35.5878 102.831 35.8884 102.538C36.1891 102.237 36.5741 102.087 37.0434 102.087C37.5128 102.087 37.8941 102.237 38.1874 102.538C38.4881 102.831 38.6384 103.231 38.6384 103.737C38.6384 104.235 38.4881 104.635 38.1874 104.936C37.8941 105.236 37.5128 105.387 37.0434 105.387C36.5741 105.387 36.1891 105.24 35.8884 104.947C35.5878 104.646 35.4374 104.243 35.4374 103.737ZM37.0324 102.714C36.7831 102.714 36.5851 102.802 36.4384 102.978C36.2918 103.146 36.2184 103.399 36.2184 103.737C36.2184 104.067 36.2918 104.32 36.4384 104.496C36.5851 104.664 36.7831 104.749 37.0324 104.749C37.2818 104.749 37.4798 104.664 37.6264 104.496C37.7731 104.32 37.8464 104.067 37.8464 103.737C37.8464 103.399 37.7731 103.146 37.6264 102.978C37.4798 102.802 37.2818 102.714 37.0324 102.714Z" fill="#424F5F"/>
<path d="M65.7216 325.219L108.554 270.051L151.988 297.418L194.797 215.844L237.93 188.473L281.364 243.18L324.338 215.596L367.61 243.18L410.744 188.008L453.876 133.768L496.686 160.675L540.12 188.473L582.953 133.305" stroke="#EB008A" stroke-width="1.4173" stroke-miterlimit="10"/>
<path fill-rule="evenodd" clip-rule="evenodd" d="M109.197 266.451C111.064 266.451 112.568 267.953 112.568 269.822C112.568 271.688 111.064 273.192 109.197 273.192C107.328 273.192 105.827 271.688 105.827 269.822C105.827 267.953 107.327 266.451 109.197 266.451Z" fill="#EB008A" stroke="#FEFEFE" stroke-width="0.2268" stroke-miterlimit="10"/>
<path fill-rule="evenodd" clip-rule="evenodd" d="M196.15 212.211C197.978 212.211 199.505 213.736 199.505 215.597C199.505 217.457 197.978 218.952 196.15 218.952C194.293 218.952 192.763 217.457 192.763 215.597C192.762 213.736 194.291 212.211 196.15 212.211Z" fill="#EB008A" stroke="#FEFEFE" stroke-width="0.2268" stroke-miterlimit="10"/>
<path fill-rule="evenodd" clip-rule="evenodd" d="M238.965 184.875C240.835 184.875 242.336 186.376 242.336 188.245C242.336 190.114 240.835 191.617 238.965 191.617C237.098 191.617 235.595 190.114 235.595 188.245C235.595 186.376 237.098 184.875 238.965 184.875Z" fill="#EB008A" stroke="#FEFEFE" stroke-width="0.2268" stroke-miterlimit="10"/>
<path fill-rule="evenodd" clip-rule="evenodd" d="M282.4 239.578C284.27 239.578 285.772 241.08 285.772 242.951C285.772 244.818 284.27 246.32 282.4 246.32C280.531 246.32 279.031 244.818 279.031 242.951C279.031 241.08 280.531 239.578 282.4 239.578Z" fill="#EB008A" stroke="#FEFEFE" stroke-width="0.2268" stroke-miterlimit="10"/>
<path fill-rule="evenodd" clip-rule="evenodd" d="M325.195 211.746C327.055 211.746 328.582 213.275 328.582 215.1C328.582 216.96 327.055 218.487 325.195 218.487C323.37 218.487 321.841 216.96 321.841 215.1C321.841 213.275 323.37 211.746 325.195 211.746Z" fill="#EB008A" stroke="#FEFEFE" stroke-width="0.2268" stroke-miterlimit="10"/>
<path fill-rule="evenodd" clip-rule="evenodd" d="M368.629 239.116C370.487 239.116 372.016 240.62 372.016 242.486C372.016 244.355 370.487 245.857 368.629 245.857C366.804 245.857 365.275 244.355 365.275 242.486C365.275 240.62 366.804 239.116 368.629 239.116Z" fill="#EB008A" stroke="#FEFEFE" stroke-width="0.2268" stroke-miterlimit="10"/>
<path fill-rule="evenodd" clip-rule="evenodd" d="M454.912 130.168C456.784 130.168 458.284 131.695 458.284 133.522C458.284 135.382 456.784 136.909 454.912 136.909C453.045 136.909 451.543 135.382 451.543 133.522C451.543 131.695 453.045 130.168 454.912 130.168Z" fill="#EB008A" stroke="#FEFEFE" stroke-width="0.2268" stroke-miterlimit="10"/>
<path fill-rule="evenodd" clip-rule="evenodd" d="M541.14 184.41C543.003 184.41 544.528 185.912 544.528 187.779C544.528 189.65 543.003 191.152 541.14 191.152C539.28 191.152 537.787 189.65 537.787 187.779C537.786 185.912 539.279 184.41 541.14 184.41Z" fill="#EB008A" stroke="#FEFEFE" stroke-width="0.2268" stroke-miterlimit="10"/>
<path fill-rule="evenodd" clip-rule="evenodd" d="M583.99 129.703C585.86 129.703 587.36 131.206 587.36 133.075C587.36 134.941 585.86 136.444 583.99 136.444C582.121 136.444 580.618 134.941 580.618 133.075C580.618 131.206 582.121 129.703 583.99 129.703Z" fill="#EB008A" stroke="#FEFEFE" stroke-width="0.2268" stroke-miterlimit="10"/>
<path d="M65.7216 243.18L108.854 215.345L151.988 243.18L195.121 161.139H237.93L281.364 188.473L324.175 160.675L367.61 161.139L410.744 116.803L453.876 105.97H497.009L540.12 117.265L582.953 105.97" stroke="#A4CD3C" stroke-width="1.4173" stroke-miterlimit="10"/>
<path fill-rule="evenodd" clip-rule="evenodd" d="M109.197 212.211C111.064 212.211 112.568 213.736 112.568 215.597C112.568 217.457 111.064 218.952 109.197 218.952C107.328 218.952 105.827 217.457 105.827 215.597C105.827 213.736 107.327 212.211 109.197 212.211Z" fill="#A4CD3C" stroke="#FEFEFE" stroke-width="0.2268" stroke-miterlimit="10"/>
<path fill-rule="evenodd" clip-rule="evenodd" d="M67.4954 239.116C69.3642 239.116 70.866 240.62 70.866 242.486C70.866 244.355 69.3642 245.857 67.4954 245.857C65.6265 245.857 64.1247 244.355 64.1247 242.486C64.1247 240.62 65.6265 239.116 67.4954 239.116Z" fill="#A4CD3C" stroke="#FEFEFE" stroke-width="0.2268" stroke-miterlimit="10"/>
<path fill-rule="evenodd" clip-rule="evenodd" d="M152.718 239.578C154.543 239.578 156.07 241.08 156.07 242.951C156.07 244.818 154.543 246.32 152.718 246.32C150.858 246.32 149.329 244.818 149.329 242.951C149.328 241.08 150.857 239.578 152.718 239.578Z" fill="#A4CD3C" stroke="#FEFEFE" stroke-width="0.2268" stroke-miterlimit="10"/>
<path fill-rule="evenodd" clip-rule="evenodd" d="M195.817 158.111C197.677 158.111 199.204 159.611 199.204 161.478C199.204 163.35 197.677 164.852 195.817 164.852C193.957 164.852 192.463 163.35 192.463 161.478C192.463 159.611 193.957 158.111 195.817 158.111Z" fill="#A4CD3C" stroke="#FEFEFE" stroke-width="0.2268" stroke-miterlimit="10"/>
<path fill-rule="evenodd" clip-rule="evenodd" d="M238.965 157.538C240.835 157.538 242.336 159.04 242.336 160.909C242.336 162.78 240.835 164.279 238.965 164.279C237.098 164.279 235.595 162.78 235.595 160.909C235.595 159.04 237.098 157.538 238.965 157.538Z" fill="#A4CD3C" stroke="#FEFEFE" stroke-width="0.2268" stroke-miterlimit="10"/>
<path fill-rule="evenodd" clip-rule="evenodd" d="M282.4 184.41C284.27 184.41 285.772 185.912 285.772 187.779C285.772 189.65 284.27 191.152 282.4 191.152C280.531 191.152 279.031 189.65 279.031 187.779C279.031 185.912 280.531 184.41 282.4 184.41Z" fill="#A4CD3C" stroke="#FEFEFE" stroke-width="0.2268" stroke-miterlimit="10"/>
<path fill-rule="evenodd" clip-rule="evenodd" d="M325.195 157.538C327.055 157.538 328.582 159.04 328.582 160.909C328.582 162.78 327.055 164.279 325.195 164.279C323.37 164.279 321.841 162.78 321.841 160.909C321.841 159.04 323.37 157.538 325.195 157.538Z" fill="#A4CD3C" stroke="#FEFEFE" stroke-width="0.2268" stroke-miterlimit="10"/>
<path fill-rule="evenodd" clip-rule="evenodd" d="M368.629 157.538C370.487 157.538 372.016 159.04 372.016 160.909C372.016 162.78 370.487 164.279 368.629 164.279C366.804 164.279 365.275 162.78 365.275 160.909C365.275 159.04 366.804 157.538 368.629 157.538Z" fill="#A4CD3C" stroke="#FEFEFE" stroke-width="0.2268" stroke-miterlimit="10"/>
<path fill-rule="evenodd" clip-rule="evenodd" d="M411.478 113.488C413.345 113.488 414.848 115.017 414.848 116.845C414.848 118.702 413.345 120.229 411.478 120.229C409.611 120.229 408.107 118.702 408.107 116.845C408.107 115.017 409.61 113.488 411.478 113.488Z" fill="#A4CD3C" stroke="#FEFEFE" stroke-width="0.2268" stroke-miterlimit="10"/>
<path fill-rule="evenodd" clip-rule="evenodd" d="M454.912 102.37C456.784 102.37 458.284 103.872 458.284 105.741C458.284 107.607 456.784 109.111 454.912 109.111C453.045 109.111 451.543 107.607 451.543 105.741C451.543 103.872 453.045 102.37 454.912 102.37Z" fill="#A4CD3C" stroke="#FEFEFE" stroke-width="0.2268" stroke-miterlimit="10"/>
<path fill-rule="evenodd" clip-rule="evenodd" d="M498.037 102.37C499.864 102.37 501.393 103.872 501.393 105.741C501.393 107.607 499.864 109.111 498.037 109.111C496.18 109.111 494.651 107.607 494.651 105.741C494.651 103.872 496.179 102.37 498.037 102.37Z" fill="#A4CD3C" stroke="#FEFEFE" stroke-width="0.2268" stroke-miterlimit="10"/>
<path fill-rule="evenodd" clip-rule="evenodd" d="M540.855 113.56C542.724 113.56 544.226 115.087 544.226 116.947C544.226 118.807 542.724 120.301 540.855 120.301C538.986 120.301 537.484 118.807 537.484 116.947C537.484 115.087 538.986 113.56 540.855 113.56Z" fill="#A4CD3C" stroke="#FEFEFE" stroke-width="0.2268" stroke-miterlimit="10"/>
<path fill-rule="evenodd" clip-rule="evenodd" d="M583.99 102.833C585.86 102.833 587.36 104.335 587.36 106.205C587.36 108.074 585.86 109.574 583.99 109.574C582.121 109.574 580.618 108.074 580.618 106.205C580.618 104.335 582.121 102.833 583.99 102.833Z" fill="#A4CD3C" stroke="#FEFEFE" stroke-width="0.2268" stroke-miterlimit="10"/>
<path d="M76.9317 321.639L119.414 298.723L161.897 321.639L204.379 254.097H246.542L289.321 276.6L331.486 253.715L374.265 254.097L416.749 217.596L459.231 208.678H501.712L544.173 217.977L586.36 208.678" stroke="#3CCDB3" stroke-width="1.4173" stroke-miterlimit="10"/>
<path fill-rule="evenodd" clip-rule="evenodd" d="M119.802 296.143C121.669 296.143 123.173 297.668 123.173 299.528C123.173 301.389 121.669 302.884 119.802 302.884C117.934 302.884 116.432 301.389 116.432 299.528C116.432 297.668 117.932 296.143 119.802 296.143Z" fill="#3CCDB3" stroke="#FEFEFE" stroke-width="0.2268" stroke-miterlimit="10"/>
<path fill-rule="evenodd" clip-rule="evenodd" d="M78.7295 318.293C80.5983 318.293 82.1001 319.797 82.1001 321.663C82.1001 323.532 80.5983 325.034 78.7295 325.034C76.8606 325.034 75.3588 323.532 75.3588 321.663C75.3588 319.797 76.8606 318.293 78.7295 318.293Z" fill="#3CCDB3" stroke="#FEFEFE" stroke-width="0.2268" stroke-miterlimit="10"/>
<path fill-rule="evenodd" clip-rule="evenodd" d="M162.667 318.673C164.492 318.673 166.019 320.175 166.019 322.046C166.019 323.913 164.492 325.415 162.667 325.415C160.807 325.415 159.278 323.913 159.278 322.046C159.277 320.175 160.806 318.673 162.667 318.673Z" fill="#3CCDB3" stroke="#FEFEFE" stroke-width="0.2268" stroke-miterlimit="10"/>
<path fill-rule="evenodd" clip-rule="evenodd" d="M205.115 251.604C206.975 251.604 208.502 253.104 208.502 254.971C208.502 256.843 206.975 258.345 205.115 258.345C203.255 258.345 201.761 256.843 201.761 254.971C201.761 253.104 203.255 251.604 205.115 251.604Z" fill="#3CCDB3" stroke="#FEFEFE" stroke-width="0.2268" stroke-miterlimit="10"/>
<path fill-rule="evenodd" clip-rule="evenodd" d="M247.612 251.132C249.482 251.132 250.984 252.634 250.984 254.503C250.984 256.374 249.482 257.874 247.612 257.874C245.746 257.874 244.242 256.374 244.242 254.503C244.242 252.634 245.746 251.132 247.612 251.132Z" fill="#3CCDB3" stroke="#FEFEFE" stroke-width="0.2268" stroke-miterlimit="10"/>
<path fill-rule="evenodd" clip-rule="evenodd" d="M290.392 273.256C292.262 273.256 293.764 274.757 293.764 276.624C293.764 278.495 292.262 279.997 290.392 279.997C288.523 279.997 287.023 278.495 287.023 276.624C287.023 274.757 288.523 273.256 290.392 273.256Z" fill="#3CCDB3" stroke="#FEFEFE" stroke-width="0.2268" stroke-miterlimit="10"/>
<path fill-rule="evenodd" clip-rule="evenodd" d="M332.541 251.132C334.401 251.132 335.928 252.634 335.928 254.503C335.928 256.374 334.401 257.874 332.541 257.874C330.716 257.874 329.187 256.374 329.187 254.503C329.187 252.634 330.716 251.132 332.541 251.132Z" fill="#3CCDB3" stroke="#FEFEFE" stroke-width="0.2268" stroke-miterlimit="10"/>
<path fill-rule="evenodd" clip-rule="evenodd" d="M375.32 251.132C377.178 251.132 378.707 252.634 378.707 254.503C378.707 256.374 377.178 257.874 375.32 257.874C373.495 257.874 371.966 256.374 371.966 254.503C371.966 252.634 373.495 251.132 375.32 251.132Z" fill="#3CCDB3" stroke="#FEFEFE" stroke-width="0.2268" stroke-miterlimit="10"/>
<path fill-rule="evenodd" clip-rule="evenodd" d="M417.523 214.867C419.389 214.867 420.893 216.396 420.893 218.224C420.893 220.082 419.389 221.609 417.523 221.609C415.656 221.609 414.152 220.082 414.152 218.224C414.152 216.396 415.655 214.867 417.523 214.867Z" fill="#3CCDB3" stroke="#FEFEFE" stroke-width="0.2268" stroke-miterlimit="10"/>
<path fill-rule="evenodd" clip-rule="evenodd" d="M460.302 205.714C462.174 205.714 463.674 207.216 463.674 209.085C463.674 210.952 462.174 212.455 460.302 212.455C458.435 212.455 456.933 210.952 456.933 209.085C456.933 207.216 458.435 205.714 460.302 205.714Z" fill="#3CCDB3" stroke="#FEFEFE" stroke-width="0.2268" stroke-miterlimit="10"/>
<path fill-rule="evenodd" clip-rule="evenodd" d="M502.776 205.714C504.603 205.714 506.132 207.216 506.132 209.085C506.132 210.952 504.603 212.455 502.776 212.455C500.919 212.455 499.391 210.952 499.391 209.085C499.391 207.216 500.918 205.714 502.776 205.714Z" fill="#3CCDB3" stroke="#FEFEFE" stroke-width="0.2268" stroke-miterlimit="10"/>
<path fill-rule="evenodd" clip-rule="evenodd" d="M544.948 214.927C546.817 214.927 548.319 216.454 548.319 218.313C548.319 220.173 546.817 221.668 544.948 221.668C543.079 221.668 541.578 220.173 541.578 218.313C541.578 216.454 543.079 214.927 544.948 214.927Z" fill="#3CCDB3" stroke="#FEFEFE" stroke-width="0.2268" stroke-miterlimit="10"/>
<path fill-rule="evenodd" clip-rule="evenodd" d="M587.433 206.095C589.302 206.095 590.802 207.597 590.802 209.467C590.802 211.336 589.302 212.836 587.433 212.836C585.563 212.836 584.061 211.336 584.061 209.467C584.061 207.597 585.563 206.095 587.433 206.095Z" fill="#3CCDB3" stroke="#FEFEFE" stroke-width="0.2268" stroke-miterlimit="10"/>
</svg>
