<svg width="46" height="46" viewBox="0 0 46 46" fill="none" xmlns="http://www.w3.org/2000/svg">
<path fill-rule="evenodd" clip-rule="evenodd" d="M8.2967 19.7462V30.5986C8.29649 30.6701 8.26802 30.7385 8.21752 30.789C8.16702 30.8395 8.09859 30.868 8.02717 30.8682H3.78241C3.71099 30.868 3.64256 30.8395 3.59206 30.789C3.54156 30.7385 3.5131 30.6701 3.51288 30.5986V19.7462H2.08877C2.03536 19.7464 1.98312 19.7306 1.93869 19.701C1.89425 19.6714 1.85961 19.6292 1.83918 19.5798C1.81874 19.5305 1.81342 19.4762 1.8239 19.4238C1.83438 19.3715 1.86018 19.3234 1.89803 19.2857L5.71405 15.4696C5.76472 15.4192 5.8333 15.3908 5.90479 15.3908C5.97628 15.3908 6.04487 15.4192 6.09553 15.4696L9.91164 19.2857C9.94949 19.3234 9.97529 19.3715 9.98577 19.4238C9.99625 19.4762 9.99093 19.5305 9.9705 19.5798C9.95006 19.6292 9.91543 19.6714 9.87099 19.701C9.82655 19.7306 9.77431 19.7464 9.72091 19.7462H8.2967ZM20.9135 39.4361C20.8535 39.3797 20.8052 39.312 20.7713 39.2368C20.7375 39.1617 20.7188 39.0807 20.7163 38.9983C20.7138 38.916 20.7275 38.8339 20.7567 38.7569C20.7859 38.6798 20.83 38.6093 20.8864 38.5493C20.9429 38.4893 21.0106 38.441 21.0857 38.4071C21.1608 38.3733 21.2419 38.3546 21.3242 38.3521C21.4066 38.3496 21.4886 38.3633 21.5657 38.3925C21.6427 38.4217 21.7133 38.4658 21.7733 38.5222C21.944 38.683 22.0384 38.7803 22.2808 38.7803C22.4947 38.7803 22.7722 38.6539 22.7722 38.4087C22.7722 38.1635 22.4947 38.0372 22.2808 38.0372C21.3718 38.0372 20.5314 37.3529 20.5314 36.4078C20.5314 35.7079 21.0019 35.1274 21.6431 34.8914L21.641 34.8052C21.6371 34.6391 21.6994 34.4782 21.8141 34.358C21.9288 34.2377 22.0866 34.168 22.2527 34.1641C22.4189 34.1601 22.5797 34.2224 22.7 34.3371C22.8202 34.4518 22.89 34.6096 22.8939 34.7758L22.8969 34.8979C23.2321 35.0132 23.6015 35.2266 23.798 35.5257C23.8878 35.6645 23.919 35.8331 23.885 35.9949C23.8509 36.1566 23.7543 36.2984 23.6161 36.3891C23.478 36.4799 23.3096 36.5124 23.1476 36.4795C22.9856 36.4466 22.8432 36.351 22.7514 36.2135C22.7123 36.1541 22.4993 36.0363 22.2808 36.0338C22.0708 36.0338 21.7866 36.1653 21.7866 36.4079C21.7866 36.653 22.0667 36.7795 22.2808 36.7795C23.1909 36.7795 24.03 37.4647 24.03 38.4088C24.03 39.1071 23.5588 39.6892 22.9193 39.9248L22.9205 39.9745C22.9244 40.1406 22.8622 40.3015 22.7474 40.4218C22.6327 40.542 22.475 40.6118 22.3088 40.6157C22.1427 40.6196 21.9818 40.5574 21.8615 40.4427C21.7413 40.328 21.6715 40.1702 21.6676 40.004L21.666 39.9374C21.3825 39.8254 21.1261 39.6545 20.9135 39.4361ZM22.2812 32.361C21.2866 32.361 20.3144 32.656 19.4874 33.2085C18.6604 33.7611 18.0158 34.5465 17.6352 35.4654C17.2546 36.3843 17.155 37.3954 17.349 38.3709C17.5431 39.3464 18.022 40.2425 18.7253 40.9458C19.4286 41.6491 20.3247 42.128 21.3002 42.322C22.2757 42.5161 23.2868 42.4165 24.2057 42.0359C25.1246 41.6553 25.91 41.0107 26.4626 40.1837C27.0151 39.3567 27.3101 38.3845 27.3101 37.3899C27.31 36.0561 26.7802 34.7771 25.8371 33.834C24.894 32.8909 23.615 32.3611 22.2812 32.361ZM22.2812 33.6188C21.5354 33.6188 20.8063 33.84 20.1862 34.2544C19.566 34.6687 19.0827 35.2577 18.7973 35.9467C18.5119 36.6358 18.4372 37.394 18.5827 38.1255C18.7282 38.857 19.0873 39.529 19.6147 40.0564C20.1421 40.5837 20.814 40.9429 21.5456 41.0884C22.2771 41.2339 23.0353 41.1592 23.7243 40.8738C24.4134 40.5884 25.0024 40.1051 25.4167 39.4849C25.8311 38.8648 26.0523 38.1357 26.0523 37.3899C26.0523 36.8946 25.9548 36.4043 25.7653 35.9467C25.5757 35.4892 25.298 35.0735 24.9478 34.7233C24.5976 34.3731 24.1819 34.0953 23.7244 33.9058C23.2668 33.7163 22.7765 33.6188 22.2812 33.6188ZM27.8483 18.6282V14.0187C27.8449 13.5369 27.6512 13.076 27.3093 12.7365C26.9674 12.397 26.5051 12.2064 26.0233 12.2064C25.5415 12.2064 25.0792 12.397 24.7373 12.7365C24.3954 13.076 24.2016 13.5369 24.1982 14.0187V17.2848C24.7988 17.5509 25.2989 18.0017 25.6257 18.5715C25.9526 19.1413 26.0893 19.8004 26.0159 20.4532C26.5007 20.4536 26.9659 20.2617 27.3095 19.9196C27.6531 19.5775 27.8466 19.1131 27.8483 18.6282ZM22.9529 23.1865H19.428C20.5571 24.1229 21.0886 25.3761 21.0667 26.8494C21.066 26.9318 21.0489 27.0132 21.0166 27.089C20.9843 27.1648 20.9374 27.2335 20.8785 27.2911C20.8197 27.3487 20.75 27.3942 20.6735 27.4249C20.5971 27.4555 20.5153 27.4708 20.4329 27.4699C20.3505 27.4689 20.2691 27.4517 20.1934 27.4192C20.1177 27.3868 20.0491 27.3397 19.9916 27.2807C19.9341 27.2217 19.8888 27.1519 19.8583 27.0754C19.8278 26.9988 19.8127 26.917 19.8139 26.8346C19.8437 24.8206 18.521 23.7356 16.7185 23.1731C16.5662 23.141 16.4313 23.0537 16.3397 22.928C16.2481 22.8023 16.2063 22.6471 16.2225 22.4923C16.2386 22.3376 16.3115 22.1944 16.4271 22.0903C16.5427 21.9862 16.6928 21.9286 16.8484 21.9287H22.9529C23.4369 21.9287 23.9011 21.7365 24.2434 21.3942C24.5856 21.0519 24.7779 20.5878 24.7779 20.1037C24.7779 19.6197 24.5856 19.1555 24.2434 18.8133C23.9011 18.471 23.4369 18.2787 22.9529 18.2787H13.9168C13.4331 18.2805 12.9697 18.4732 12.6274 18.815C12.2851 19.1568 12.0918 19.6199 12.0894 20.1036L12.0899 26.1956C12.0744 28.3089 13.3828 29.2227 15.1742 29.8593C15.3132 29.891 15.4373 29.9689 15.5262 30.0803C15.6151 30.1918 15.6635 30.3301 15.6634 30.4726V45.1179H28.8795V30.9367C28.8795 30.7699 28.9457 30.61 29.0637 30.492C29.1816 30.3741 29.3416 30.3078 29.5084 30.3078C31.1813 30.3078 32.73 29.1231 32.73 27.4831C32.73 25.8503 32.7479 24.2193 32.7531 22.5871C32.3566 22.879 31.8959 23.0715 31.4096 23.1486C30.9234 23.2256 30.4257 23.1849 29.9585 23.0298C29.4912 22.8748 29.0679 22.6099 28.7242 22.2574C28.3804 21.905 28.1262 21.4752 27.9829 21.0042C27.6549 21.277 27.2733 21.4781 26.8629 21.5945C26.4524 21.7108 26.0221 21.7399 25.5997 21.6799C25.3264 22.1384 24.9388 22.5182 24.4749 22.7823C24.011 23.0464 23.4867 23.1856 22.9529 23.1865ZM14.3826 17.0208H18.0326V11.0679C18.0326 10.5839 17.8403 10.1197 17.4981 9.77741C17.1558 9.43516 16.6916 9.24288 16.2076 9.24288C15.7236 9.24288 15.2594 9.43516 14.9172 9.77741C14.5749 10.1197 14.3826 10.5839 14.3826 11.0679V17.0208ZM19.2904 17.0208H22.9404V12.5433C22.9404 12.0593 22.7481 11.5951 22.4059 11.2528C22.0636 10.9106 21.5994 10.7183 21.1154 10.7183C20.6314 10.7183 20.1672 10.9106 19.825 11.2528C19.4827 11.5951 19.2904 12.0593 19.2904 12.5433V17.0208ZM30.9311 13.6692C31.4146 13.671 31.8777 13.8639 32.2196 14.2057C32.5614 14.5476 32.7543 15.0107 32.7561 15.4941V20.1036C32.7561 20.5877 32.5639 21.0519 32.2216 21.3941C31.8793 21.7364 31.4151 21.9286 30.9311 21.9286C30.4471 21.9286 29.9829 21.7364 29.6407 21.3941C29.2984 21.0519 29.1061 20.5877 29.1061 20.1036V15.4941C29.108 15.0107 29.3009 14.5476 29.6427 14.2057C29.9846 13.8639 30.4477 13.671 30.9311 13.6692ZM37.3951 6.97478C37.5131 6.85683 37.673 6.79056 37.8398 6.79056C38.0066 6.79056 38.1666 6.85683 38.2846 6.97478C38.4025 7.09273 38.4688 7.2527 38.4688 7.4195C38.4688 7.58631 38.4025 7.74628 38.2846 7.86423L35.1094 11.0391C34.9915 11.1571 34.8315 11.2233 34.6647 11.2233C34.4979 11.2233 34.3379 11.1571 34.2199 11.0391C34.102 10.9212 34.0357 10.7612 34.0357 10.5944C34.0357 10.4276 34.102 10.2676 34.2199 10.1497L37.3951 6.97478ZM6.90116 8.67893C6.84276 8.62053 6.79643 8.5512 6.76482 8.47489C6.73322 8.39858 6.71695 8.3168 6.71695 8.23421C6.71695 8.15161 6.73322 8.06983 6.76482 7.99352C6.79643 7.91722 6.84276 7.84788 6.90116 7.78948C6.95956 7.73108 7.02889 7.68475 7.1052 7.65314C7.18151 7.62154 7.26329 7.60527 7.34589 7.60527C7.42848 7.60527 7.51026 7.62154 7.58657 7.65314C7.66288 7.68475 7.73221 7.73108 7.79061 7.78948L10.9657 10.9646C11.0836 11.0825 11.1499 11.2425 11.1499 11.4093C11.1499 11.5761 11.0836 11.7361 10.9657 11.854C10.8477 11.972 10.6878 12.0382 10.521 12.0382C10.3542 12.0382 10.1942 11.972 10.0762 11.854L6.90116 8.67893ZM21.7952 1.51111C21.7952 1.34431 21.8614 1.18435 21.9794 1.0664C22.0973 0.948462 22.2573 0.882202 22.4241 0.882202C22.5909 0.882202 22.7509 0.948462 22.8688 1.0664C22.9867 1.18435 23.053 1.34431 23.053 1.51111V6.00159C23.053 6.16839 22.9867 6.32835 22.8688 6.44629C22.7509 6.56424 22.5909 6.6305 22.4241 6.6305C22.2573 6.6305 22.0973 6.56424 21.9794 6.44629C21.8614 6.32835 21.7952 6.16839 21.7952 6.00159V1.51111ZM42.4871 19.7462V30.5986C42.4869 30.6701 42.4584 30.7385 42.4079 30.789C42.3574 30.8395 42.289 30.868 42.2176 30.8682H37.9734C37.9019 30.868 37.8335 30.8395 37.783 30.789C37.7325 30.7385 37.704 30.6701 37.7038 30.5986V19.7462H36.2789C36.2255 19.7464 36.1733 19.7306 36.1288 19.701C36.0844 19.6714 36.0497 19.6292 36.0293 19.5798C36.0089 19.5305 36.0036 19.4762 36.014 19.4238C36.0245 19.3715 36.0503 19.3234 36.0882 19.2857L39.9043 15.4696C39.9549 15.4192 40.0235 15.3908 40.095 15.3908C40.1665 15.3908 40.2351 15.4192 40.2858 15.4696L44.1019 19.2857C44.1397 19.3234 44.1655 19.3715 44.176 19.4238C44.1865 19.4762 44.1812 19.5305 44.1607 19.5798C44.1403 19.6292 44.1056 19.6714 44.0612 19.701C44.0168 19.7306 43.9645 19.7464 43.9111 19.7462H42.4871Z" fill="#FF6B54"/>
</svg>
