<svg width="39" height="37" viewBox="0 0 39 37" fill="none" xmlns="http://www.w3.org/2000/svg">
<path d="M30.344 5.49128C28.3611 2.45324 25.0324 0.647583 21.3897 0.647583C17.4624 0.647583 13.9112 2.75099 12.0224 6.16555C10.988 5.71758 9.88902 5.49074 8.74933 5.49074C4.1775 5.49074 0.458099 9.21159 0.458099 13.785C0.458099 17.4295 2.89728 20.6978 6.38968 21.7329C6.62018 21.8013 6.86339 21.6693 6.93164 21.4385C7.00004 21.2077 6.8685 20.9649 6.63754 20.8965C3.51252 19.9703 1.33019 17.0459 1.33019 13.7849C1.33019 9.69246 4.65837 6.36284 8.74933 6.36284C9.89656 6.36284 10.9974 6.61946 12.0213 7.126C12.2363 7.23218 12.4964 7.14558 12.604 6.93123C14.286 3.59338 17.6525 1.51975 21.3897 1.51975C24.8124 1.51975 27.9332 3.25556 29.7377 6.16273C29.8273 6.30692 29.9941 6.385 30.1605 6.36573C30.1917 6.36207 30.2195 6.36314 30.2507 6.36291C34.3416 6.36291 37.6699 9.69254 37.6699 13.785C37.6699 17.0505 35.4828 19.9758 32.3513 20.8994C32.1204 20.9676 31.9884 21.21 32.0564 21.4408C32.1125 21.6307 32.2862 21.7537 32.4746 21.7537C32.5153 21.7537 32.5569 21.748 32.5981 21.7358C36.0978 20.7038 38.542 17.4343 38.542 13.785C38.542 9.24274 34.8729 5.54147 30.344 5.49128Z" fill="#DE51FF"/>
<path d="M27.9978 15.8394C23.3231 11.1617 15.6947 11.1443 10.9996 15.8394C8.72906 18.1069 7.479 21.1275 7.479 24.337C7.479 27.5494 8.72906 30.5671 10.9996 32.8376C15.6656 37.5035 23.294 37.5443 27.9978 32.8376C30.2712 30.5671 31.5213 27.5494 31.5213 24.337C31.5214 21.1275 30.2712 18.1098 27.9978 15.8394ZM19.9362 13.2054C22.5062 13.3043 25.05 14.2898 27.0646 16.1533L25.6779 17.5429C24.0906 16.0951 22.0788 15.2637 19.9362 15.1619V13.2054ZM19.0641 13.2054V15.162C16.9185 15.2637 14.9068 16.0951 13.3195 17.5429L11.9328 16.1533C13.9474 14.2899 16.4913 13.3043 19.0641 13.2054ZM19.0641 35.4714C16.4912 35.3697 13.9474 34.3871 11.9328 32.5207L13.3195 31.134C14.9533 32.6196 16.9942 33.4103 19.0641 33.5091V35.4714ZM19.9362 35.4714V33.5091C22.0032 33.4102 24.047 32.6195 25.6779 31.134L27.0675 32.5207C25.0499 34.3871 22.5062 35.3697 19.9362 35.4714ZM25.3785 30.2153C22.137 33.4568 16.8634 33.4568 13.6219 30.2153C10.3804 26.9738 10.3804 21.7002 13.6219 18.4587C15.1917 16.8889 17.2791 16.0254 19.5001 16.0254C20.6107 16.0254 21.6864 16.2406 22.6835 16.6534C23.6807 17.0663 24.5935 17.6738 25.3785 18.4588C28.62 21.7002 28.62 26.9738 25.3785 30.2153Z" fill="#DE51FF"/>
<path d="M22.8957 23.619L19.8839 17.9472C19.8083 17.8046 19.66 17.7146 19.5001 17.7146C19.3374 17.7146 19.192 17.8018 19.1135 17.9443L16.1046 23.5609C16.0028 23.7499 16.0609 24.0027 16.2412 24.1248L19.1658 26.1337C19.2385 26.1832 19.3257 26.2093 19.41 26.2093C19.4915 26.2093 19.5728 26.186 19.6426 26.1424L22.7416 24.1917C22.9335 24.0696 22.9975 23.8109 22.8957 23.619ZM19.4973 19.078L21.3578 22.5811L19.6426 21.5026C19.5728 21.459 19.4915 21.4357 19.41 21.4357C19.3286 21.4357 19.2473 21.459 19.1746 21.5055L17.6745 22.4765L19.4973 19.078ZM19.4217 25.2528L17.2762 23.7759L19.4159 22.3892L21.6922 23.8224L19.4217 25.2528Z" fill="#DE51FF"/>
<path d="M22.826 25.4738C22.6893 25.3285 22.4684 25.2964 22.294 25.3953L19.4188 27.032L16.7151 25.401C16.5435 25.2964 16.3227 25.3225 16.1802 25.465C16.0378 25.6104 16.0116 25.8313 16.1191 26.0029L19.0408 30.7532C19.1194 30.8812 19.256 30.9596 19.4072 30.9625H19.41C19.5583 30.9625 19.6949 30.8869 19.7764 30.7648L22.8754 26.0116C22.9859 25.843 22.9655 25.622 22.826 25.4738ZM19.4217 29.7096L17.7995 27.0728L19.1863 27.91C19.3229 27.9914 19.4916 27.9943 19.6281 27.9158L21.1631 27.0407L19.4217 29.7096Z" fill="#DE51FF"/>
</svg>
