<svg width="33" height="33" viewBox="0 0 33 33" fill="none" xmlns="http://www.w3.org/2000/svg">
<g clip-path="url(#clip0_107_2616)">
<path d="M9.66797 10.6992C10.0237 10.6992 10.3125 10.4104 10.3125 10.0547C10.3125 9.69894 10.0237 9.41016 9.66797 9.41016C9.31222 9.41016 9.02344 9.69894 9.02344 10.0547C9.02344 10.4104 9.31222 10.6992 9.66797 10.6992Z" fill="#00ADEE"/>
<path d="M12.448 9.97764C12.1207 9.8379 11.7421 9.98947 11.6021 10.3168C11.4621 10.6441 11.6136 11.0227 11.9409 11.163C14.084 12.0799 15.4688 14.1749 15.4688 16.5C15.4688 19.6985 12.8665 22.3008 9.66797 22.3008C6.46948 22.3008 3.86719 19.6985 3.86719 16.5C3.86719 14.1749 5.25192 12.0799 7.39499 11.163C7.72229 11.0227 7.87386 10.6441 7.73387 10.3168C7.59389 9.98947 7.21472 9.83765 6.88792 9.97764C4.26977 11.098 2.57812 13.658 2.57812 16.5C2.57812 20.4092 5.75874 23.5898 9.66797 23.5898C13.5772 23.5898 16.7578 20.4092 16.7578 16.5C16.7578 13.658 15.0662 11.098 12.448 9.97764Z" fill="#00ADEE"/>
<path d="M9.73242 17.0988C10.0879 17.0988 10.377 17.388 10.377 17.7433C10.377 18.0988 10.0879 18.3878 9.73242 18.3878C9.45698 18.3878 9.15989 18.2146 8.89554 17.9004C8.66643 17.6277 8.25982 17.5927 7.9874 17.8218C7.71499 18.0507 7.67974 18.4573 7.90885 18.7297C8.25327 19.1396 8.65862 19.4254 9.08789 19.5691V20.3214C9.08789 20.6774 9.37642 20.9659 9.73242 20.9659C10.0884 20.9659 10.377 20.6774 10.377 20.3214V19.5661C11.1272 19.3 11.666 18.5837 11.666 17.7433C11.666 16.677 10.7987 15.8097 9.73242 15.8097C9.37692 15.8097 9.08789 15.5207 9.08789 15.1652C9.08789 14.8099 9.37692 14.5206 9.73242 14.5206C9.96077 14.5206 10.2017 14.6372 10.4296 14.8575C10.6854 15.1052 11.0932 15.0984 11.341 14.8426C11.5885 14.5868 11.5817 14.1787 11.3259 13.9312C10.9988 13.6148 10.6715 13.4355 10.377 13.3378V12.587C10.377 12.231 10.0884 11.9425 9.73242 11.9425C9.37642 11.9425 9.08789 12.231 9.08789 12.587V13.3426C8.33761 13.6085 7.79883 14.325 7.79883 15.1652C7.79883 16.2314 8.66617 17.0988 9.73242 17.0988Z" fill="#00ADEE"/>
<path d="M27.1992 11.6016C30.3977 11.6016 33 8.99927 33 5.80078C33 2.60229 30.3977 0 27.1992 0C24.0007 0 21.3984 2.60229 21.3984 5.80078C21.3984 6.65806 21.5875 7.49897 21.9483 8.26662L17.5466 10.9032C15.7243 8.34618 12.8002 6.83203 9.66797 6.83203C4.33699 6.83203 0 11.169 0 16.5C0 21.831 4.33699 26.168 9.66797 26.168C12.7952 26.168 15.7215 24.6579 17.5466 22.0968L21.9483 24.7334C21.5875 25.501 21.3984 26.3419 21.3984 27.1992C21.3984 30.3977 24.0007 33 27.1992 33C30.3977 33 33 30.3977 33 27.1992C33 24.0007 30.3977 21.3984 27.1992 21.3984C25.386 21.3984 23.7177 22.2242 22.6228 23.6347L18.2234 20.9996C18.9527 19.6174 19.3359 18.0748 19.3359 16.5C19.3359 14.9252 18.9527 13.3826 18.2234 12.0004L22.6228 9.36534C23.7177 10.7758 25.386 11.6016 27.1992 11.6016ZM27.1992 1.28906C29.687 1.28906 31.7109 3.31304 31.7109 5.80078C31.7109 8.28852 29.687 10.3125 27.1992 10.3125C24.6526 10.3125 22.6875 8.24396 22.6875 5.80078C22.6875 3.31304 24.7115 1.28906 27.1992 1.28906ZM9.66797 24.8789C5.04774 24.8789 1.28906 21.1202 1.28906 16.5C1.28906 11.8798 5.04774 8.12109 9.66797 8.12109C12.5925 8.12109 15.2595 9.61233 16.8024 12.1106C17.6166 13.4277 18.0469 14.9456 18.0469 16.5C18.0469 18.0544 17.6166 19.5723 16.8024 20.8894V20.8896C15.2595 23.3877 12.5925 24.8789 9.66797 24.8789ZM27.1992 22.6875C29.687 22.6875 31.7109 24.7115 31.7109 27.1992C31.7109 29.687 29.687 31.7109 27.1992 31.7109C24.7115 31.7109 22.6875 29.687 22.6875 27.1992C22.6875 24.7515 24.6571 22.6875 27.1992 22.6875Z" fill="#00ADEE"/>
</g>
<defs>
<clipPath id="clip0_107_2616">
<rect width="33" height="33" fill="white"/>
</clipPath>
</defs>
</svg>
