<svg width="250" height="260" viewBox="0 0 250 260" fill="none" xmlns="http://www.w3.org/2000/svg">
<g clip-path="url(#clip0_279_37)">
<g style="mix-blend-mode:multiply">
<path opacity="0.03" d="M125 259.432C182.747 259.432 229.561 255.931 229.561 251.613C229.561 247.296 182.747 243.795 125 243.795C67.2528 243.795 20.4394 247.296 20.4394 251.613C20.4394 255.931 67.2528 259.432 125 259.432Z" fill="#A7A9AC"/>
<path opacity="0.06" d="M125 259.266C181.536 259.266 227.368 255.84 227.368 251.612C227.368 247.385 181.536 243.959 125 243.959C68.4636 243.959 22.6317 247.385 22.6317 251.612C22.6317 255.84 68.4636 259.266 125 259.266Z" fill="#A7A9AC"/>
<path opacity="0.1" d="M125 259.103C180.326 259.103 225.176 255.749 225.176 251.612C225.176 247.476 180.326 244.122 125 244.122C69.6744 244.122 24.8241 247.476 24.8241 251.612C24.8241 255.749 69.6744 259.103 125 259.103Z" fill="#A7A9AC"/>
<path opacity="0.13" d="M125 258.939C179.115 258.939 222.985 255.659 222.985 251.612C222.985 247.566 179.115 244.286 125 244.286C70.8846 244.286 27.0154 247.566 27.0154 251.612C27.0154 255.659 70.8846 258.939 125 258.939Z" fill="#A7A9AC"/>
<path opacity="0.16" d="M125 258.776C177.905 258.776 220.792 255.569 220.792 251.613C220.792 247.658 177.905 244.451 125 244.451C72.0954 244.451 29.2077 247.658 29.2077 251.613C29.2077 255.569 72.0954 258.776 125 258.776Z" fill="#A7A9AC"/>
<path opacity="0.19" d="M125 258.612C176.694 258.612 218.6 255.479 218.6 251.613C218.6 247.748 176.694 244.614 125 244.614C73.3062 244.614 31.4 247.748 31.4 251.613C31.4 255.479 73.3062 258.612 125 258.612Z" fill="#A7A9AC"/>
<path opacity="0.23" d="M216.408 251.612C216.408 255.387 175.483 258.447 125 258.447C74.5173 258.447 33.5923 255.387 33.5923 251.612C33.5923 247.837 74.5173 244.778 125 244.778C175.483 244.778 216.408 247.837 216.408 251.612Z" fill="#A7A9AC"/>
<path opacity="0.26" d="M125 258.284C174.272 258.284 214.215 255.297 214.215 251.612C214.215 247.928 174.272 244.941 125 244.941C75.7277 244.941 35.7846 247.928 35.7846 251.612C35.7846 255.297 75.7277 258.284 125 258.284Z" fill="#A7A9AC"/>
<path opacity="0.29" d="M125 258.119C173.062 258.119 212.024 255.206 212.024 251.612C212.024 248.019 173.062 245.106 125 245.106C76.938 245.106 37.976 248.019 37.976 251.612C37.976 255.206 76.938 258.119 125 258.119Z" fill="#A7A9AC"/>
<path opacity="0.32" d="M209.832 251.612C209.832 255.115 171.851 257.956 125 257.956C78.149 257.956 40.1683 255.116 40.1683 251.612C40.1683 248.109 78.1481 245.269 125 245.269C171.852 245.269 209.832 248.109 209.832 251.612Z" fill="#A7A9AC"/>
<path opacity="0.35" d="M207.639 251.612C207.639 255.025 170.64 257.791 125 257.791C79.3596 257.791 42.3606 255.025 42.3606 251.612C42.3606 248.2 79.3596 245.434 125 245.434C170.64 245.434 207.639 248.2 207.639 251.612Z" fill="#A7A9AC"/>
<path opacity="0.39" d="M205.447 251.612C205.447 254.935 169.43 257.628 125 257.628C80.5702 257.628 44.5529 254.935 44.5529 251.612C44.5529 248.29 80.5702 245.597 125 245.597C169.43 245.597 205.447 248.29 205.447 251.612Z" fill="#A7A9AC"/>
<path opacity="0.42" d="M125 257.463C168.219 257.463 203.255 254.844 203.255 251.612C203.255 248.381 168.219 245.761 125 245.761C81.7811 245.761 46.7452 248.381 46.7452 251.612C46.7452 254.844 81.7811 257.463 125 257.463Z" fill="#A7A9AC"/>
<path opacity="0.45" d="M125 257.3C167.008 257.3 201.063 254.754 201.063 251.612C201.063 248.471 167.008 245.925 125 245.925C82.9918 245.925 48.9375 248.471 48.9375 251.612C48.9375 254.754 82.9918 257.3 125 257.3Z" fill="#A7A9AC"/>
<path opacity="0.48" d="M198.87 251.612C198.87 254.662 165.797 257.135 125 257.135C84.2029 257.135 51.1298 254.662 51.1298 251.612C51.1298 248.562 84.2029 246.089 125 246.089C165.797 246.089 198.87 248.562 198.87 251.612Z" fill="#A7A9AC"/>
<path opacity="0.52" d="M196.679 251.612C196.679 254.572 164.588 256.972 125 256.972C85.4125 256.972 53.3212 254.572 53.3212 251.612C53.3212 248.653 85.4125 246.253 125 246.253C164.588 246.253 196.679 248.653 196.679 251.612Z" fill="#A7A9AC"/>
<path opacity="0.55" d="M125 256.809C163.376 256.809 194.487 254.482 194.487 251.612C194.487 248.743 163.376 246.416 125 246.416C86.6237 246.416 55.5135 248.743 55.5135 251.612C55.5135 254.482 86.6237 256.809 125 256.809Z" fill="#A7A9AC"/>
<path opacity="0.58" d="M125 256.644C162.166 256.644 192.294 254.391 192.294 251.612C192.294 248.833 162.166 246.581 125 246.581C87.8344 246.581 57.7058 248.833 57.7058 251.612C57.7058 254.391 87.8344 256.644 125 256.644Z" fill="#A7A9AC"/>
<path opacity="0.61" d="M190.102 251.612C190.102 254.301 160.955 256.481 125 256.481C89.0452 256.481 59.8981 254.301 59.8981 251.612C59.8981 248.924 89.0452 246.745 125 246.745C160.955 246.745 190.102 248.924 190.102 251.612Z" fill="#A7A9AC"/>
<path opacity="0.65" d="M125 256.316C159.744 256.316 187.91 254.21 187.91 251.613C187.91 249.015 159.744 246.909 125 246.909C90.256 246.909 62.0904 249.015 62.0904 251.613C62.0904 254.21 90.256 256.316 125 256.316Z" fill="#A7A9AC"/>
<path opacity="0.68" d="M125 256.153C158.534 256.153 185.718 254.12 185.718 251.613C185.718 249.105 158.534 247.072 125 247.072C91.4662 247.072 64.2817 249.105 64.2817 251.613C64.2817 254.12 91.4662 256.153 125 256.153Z" fill="#A7A9AC"/>
<path opacity="0.71" d="M125 255.988C157.323 255.988 183.526 254.029 183.526 251.612C183.526 249.196 157.323 247.236 125 247.236C92.677 247.236 66.4741 249.196 66.4741 251.612C66.4741 254.029 92.677 255.988 125 255.988Z" fill="#A7A9AC"/>
<path opacity="0.74" d="M125 255.825C156.112 255.825 181.334 253.939 181.334 251.613C181.334 249.286 156.112 247.4 125 247.4C93.8878 247.4 68.6664 249.286 68.6664 251.613C68.6664 253.939 93.8878 255.825 125 255.825Z" fill="#A7A9AC"/>
<path opacity="0.77" d="M125 255.661C154.901 255.661 179.141 253.848 179.141 251.612C179.141 249.377 154.901 247.564 125 247.564C95.0986 247.564 70.8587 249.377 70.8587 251.612C70.8587 253.848 95.0986 255.661 125 255.661Z" fill="#A7A9AC"/>
<path opacity="0.81" d="M125 255.497C153.691 255.497 176.949 253.758 176.949 251.613C176.949 249.467 153.691 247.728 125 247.728C96.3093 247.728 73.051 249.467 73.051 251.613C73.051 253.758 96.3093 255.497 125 255.497Z" fill="#A7A9AC"/>
<path opacity="0.84" d="M125 255.333C152.48 255.333 174.757 253.667 174.757 251.613C174.757 249.558 152.48 247.892 125 247.892C97.5201 247.892 75.2433 249.558 75.2433 251.613C75.2433 253.667 97.5201 255.333 125 255.333Z" fill="#A7A9AC"/>
<path opacity="0.87" d="M125 255.169C151.269 255.169 172.564 253.577 172.564 251.613C172.564 249.648 151.269 248.056 125 248.056C98.7309 248.056 77.4356 249.648 77.4356 251.613C77.4356 253.577 98.7309 255.169 125 255.169Z" fill="#A7A9AC"/>
<path opacity="0.9" d="M125 255.005C150.059 255.005 170.373 253.486 170.373 251.613C170.373 249.739 150.059 248.22 125 248.22C99.9411 248.22 79.6269 249.739 79.6269 251.613C79.6269 253.486 99.9411 255.005 125 255.005Z" fill="#A7A9AC"/>
<path opacity="0.94" d="M168.181 251.613C168.181 253.395 148.848 254.841 125 254.841C101.152 254.841 81.8192 253.395 81.8192 251.613C81.8192 249.83 101.152 248.384 125 248.384C148.848 248.384 168.181 249.829 168.181 251.613Z" fill="#A7A9AC"/>
<path opacity="0.97" d="M165.988 251.613C165.988 253.305 147.638 254.678 125 254.678C102.363 254.678 84.0115 253.306 84.0115 251.613C84.0115 249.919 102.363 248.548 125 248.548C147.638 248.548 165.988 249.92 165.988 251.613Z" fill="#A7A9AC"/>
<path d="M125 254.513C146.427 254.513 163.796 253.215 163.796 251.613C163.796 250.01 146.427 248.712 125 248.712C103.573 248.712 86.2039 250.01 86.2039 251.613C86.2039 253.215 103.573 254.513 125 254.513Z" fill="#A7A9AC"/>
</g>
<path d="M213.388 213.388C262.204 164.573 262.204 85.4272 213.388 36.6117C164.573 -12.2039 85.427 -12.2039 36.6114 36.6117C-12.2041 85.4272 -12.2041 164.573 36.6114 213.388C85.427 262.204 164.573 262.204 213.388 213.388Z" fill="url(#paint0_radial_279_37)"/>
<path d="M125 227.266C181.48 227.266 227.266 181.48 227.266 125C227.266 68.5198 181.48 22.7336 125 22.7336C68.5198 22.7336 22.7336 68.5198 22.7336 125C22.7336 181.48 68.5198 227.266 125 227.266Z" fill="url(#paint1_linear_279_37)"/>
<path d="M193.819 193.819C231.827 155.811 231.827 94.1886 193.819 56.1808C155.811 18.1731 94.1884 18.1731 56.1806 56.1808C18.1728 94.1886 18.1728 155.811 56.1806 193.819C94.1884 231.827 155.811 231.827 193.819 193.819Z" fill="url(#paint2_radial_279_37)" stroke="#1F3C71" stroke-width="8" stroke-miterlimit="10"/>
<path d="M190.839 190.839C227.201 154.477 227.201 95.5228 190.839 59.1609C154.477 22.7989 95.5226 22.7989 59.1606 59.1609C22.7987 95.5228 22.7987 154.477 59.1606 190.839C95.5226 227.201 154.477 227.201 190.839 190.839Z" fill="url(#paint3_radial_279_37)"/>
<g style="mix-blend-mode:overlay">
<path d="M124.268 152.326L100.616 128.913L62.7164 166.429H185.82L147.921 128.913L124.268 152.326Z" fill="black"/>
<path d="M62.7164 85.7394L124.268 146.667L185.82 85.7394H62.7164Z" fill="black"/>
<path d="M59.1885 87.9058V164.262L97.7577 126.084L59.1885 87.9058Z" fill="black"/>
<path d="M189.349 87.9058L150.78 126.084L189.349 164.262V87.9058Z" fill="black"/>
</g>
<path d="M125.732 150.735L102.079 127.321L64.1798 164.837H187.284L149.385 127.321L125.732 150.735Z" fill="white"/>
<path d="M64.1798 84.1471L125.732 145.075L187.284 84.1471H64.1798Z" fill="white"/>
<path d="M60.651 86.3135V162.67L99.2202 124.492L60.651 86.3135Z" fill="white"/>
<path d="M190.812 86.3135L152.242 124.492L190.812 162.67V86.3135Z" fill="white"/>
<path opacity="0.9" d="M125 16.3028C164.109 16.3028 198.594 36.2759 218.993 66.6673C200.487 30.548 165.33 6.1615 125 6.1615C84.6702 6.1615 49.5125 30.549 31.0067 66.6673C51.4058 36.2759 85.8913 16.3028 125 16.3028Z" fill="url(#paint4_linear_279_37)"/>
</g>
<defs>
<radialGradient id="paint0_radial_279_37" cx="0" cy="0" r="1" gradientUnits="userSpaceOnUse" gradientTransform="translate(125 125) scale(129.383)">
<stop offset="0.22" stop-color="white"/>
<stop offset="0.49" stop-color="#FBFBFC"/>
<stop offset="0.7" stop-color="#F1F2F2"/>
<stop offset="0.89" stop-color="#E0E2E2"/>
<stop offset="1" stop-color="#D4D6D7"/>
</radialGradient>
<linearGradient id="paint1_linear_279_37" x1="125" y1="22.0885" x2="125" y2="227.64" gradientUnits="userSpaceOnUse">
<stop stop-color="#6B6D6F"/>
<stop offset="0.09" stop-color="#7C7E7F"/>
<stop offset="0.4" stop-color="#B4B5B6"/>
<stop offset="0.66" stop-color="#DCDDDD"/>
<stop offset="0.87" stop-color="#F5F5F6"/>
<stop offset="1" stop-color="white"/>
</linearGradient>
<radialGradient id="paint2_radial_279_37" cx="0" cy="0" r="1" gradientUnits="userSpaceOnUse" gradientTransform="translate(125 125) scale(97.325)">
<stop stop-color="#00AEEF"/>
<stop offset="0.43" stop-color="#01ABED"/>
<stop offset="0.64" stop-color="#04A4E6"/>
<stop offset="0.79" stop-color="#0A97DA"/>
<stop offset="0.92" stop-color="#1385CA"/>
<stop offset="1" stop-color="#1C75BC"/>
</radialGradient>
<radialGradient id="paint3_radial_279_37" cx="0" cy="0" r="1" gradientUnits="userSpaceOnUse" gradientTransform="translate(125 125) scale(93.1106)">
<stop stop-color="#00AEEF"/>
<stop offset="0.43" stop-color="#01ABED"/>
<stop offset="0.64" stop-color="#04A4E6"/>
<stop offset="0.79" stop-color="#0A97DA"/>
<stop offset="0.92" stop-color="#1385CA"/>
<stop offset="1" stop-color="#1C75BC"/>
</radialGradient>
<linearGradient id="paint4_linear_279_37" x1="125" y1="-16.9875" x2="125" y2="96.5134" gradientUnits="userSpaceOnUse">
<stop stop-color="white"/>
<stop offset="1" stop-color="white"/>
</linearGradient>
<clipPath id="clip0_279_37">
<rect width="250" height="259.595" fill="white"/>
</clipPath>
</defs>
</svg>
