<svg width="396" height="360" viewBox="0 0 396 360" fill="none" xmlns="http://www.w3.org/2000/svg">
<path d="M338.544 201.272C338.544 234.165 326.47 265.913 304.613 290.494C282.757 315.075 252.637 330.778 219.97 334.623C187.303 338.469 154.361 330.19 127.393 311.357C100.426 292.523 81.3091 264.447 73.6707 232.453L112.851 223.099C118.198 245.494 131.58 265.148 150.457 278.331C169.334 291.514 192.394 297.31 215.261 294.618C238.128 291.926 259.211 280.934 274.511 263.727C289.811 246.521 298.262 224.297 298.262 201.272H338.544Z" fill="#CAEDFA"/>
<path d="M73.6623 232.418C71.4423 223.109 70.224 213.589 70.0281 204.02L110.301 203.196C110.438 209.894 111.291 216.558 112.845 223.074L73.6623 232.418Z" fill="#B4B8C4"/>
<path d="M70.0291 204.069C69.4385 175.72 77.8378 147.911 94.0233 124.629L127.098 147.622C115.768 163.919 109.889 183.385 110.302 203.23L70.0291 204.069Z" fill="#DCE0E7"/>
<path d="M73.2052 230.435C65.4708 195.674 71.8619 159.264 90.9726 129.215C110.083 99.166 140.348 77.9396 175.109 70.2052L183.858 109.525C159.525 114.939 138.34 129.798 124.962 150.832C111.585 171.866 107.111 197.353 112.525 221.686L73.2052 230.435Z" fill="#167499"/>
<path d="M169.52 71.5752C203.918 62.3584 240.568 67.1835 271.408 84.989L251.267 119.874C229.679 107.41 204.024 104.032 179.946 110.484L169.52 71.5752Z" fill="#A9CDD0"/>
<path d="M243.401 72.8278C273.181 81.9 298.884 101.038 316.111 126.969C333.339 152.899 341.021 184.01 337.843 214.979L297.771 210.867C299.996 189.189 294.619 167.411 282.559 149.26C270.5 131.109 252.508 117.712 231.662 111.361L243.401 72.8278Z" fill="#F0ECE7"/>
<path d="M305.011 338.695V335.743H298.855V333.691L304.867 325.285H307.423V333.691H309.385V335.743H307.423V338.695H305.011ZM300.655 334.573L300.223 333.691H305.011V327.211L305.641 327.409L300.655 334.573ZM315.24 338.911C314.328 338.911 313.518 338.719 312.81 338.335C312.114 337.939 311.568 337.411 311.172 336.751C310.776 336.079 310.578 335.317 310.578 334.465C310.578 334.033 310.62 333.601 310.704 333.169C310.8 332.737 310.968 332.275 311.208 331.783C311.46 331.291 311.82 330.745 312.288 330.145L316.032 325.285H318.948L314.394 331.135L313.998 330.703C314.166 330.571 314.34 330.469 314.52 330.397C314.7 330.313 314.88 330.253 315.06 330.217C315.252 330.181 315.45 330.163 315.654 330.163C316.47 330.163 317.196 330.349 317.832 330.721C318.468 331.093 318.966 331.603 319.326 332.251C319.698 332.887 319.884 333.607 319.884 334.411C319.884 335.275 319.686 336.049 319.29 336.733C318.894 337.405 318.342 337.939 317.634 338.335C316.938 338.719 316.14 338.911 315.24 338.911ZM315.24 336.697C315.648 336.697 316.014 336.607 316.338 336.427C316.674 336.235 316.938 335.965 317.13 335.617C317.334 335.269 317.436 334.879 317.436 334.447C317.436 333.991 317.334 333.601 317.13 333.277C316.938 332.941 316.68 332.677 316.356 332.485C316.032 332.293 315.66 332.197 315.24 332.197C314.832 332.197 314.46 332.293 314.124 332.485C313.788 332.677 313.518 332.941 313.314 333.277C313.122 333.601 313.026 333.991 313.026 334.447C313.026 334.879 313.122 335.269 313.314 335.617C313.518 335.965 313.788 336.235 314.124 336.427C314.46 336.607 314.832 336.697 315.24 336.697ZM322.666 338.695V336.175H325.042V338.695H322.666ZM327.903 338.695V336.841L331.539 333.043C332.259 332.287 332.811 331.687 333.195 331.243C333.591 330.787 333.867 330.397 334.023 330.073C334.179 329.749 334.257 329.419 334.257 329.083C334.257 328.519 334.077 328.075 333.717 327.751C333.369 327.427 332.919 327.265 332.367 327.265C331.791 327.265 331.293 327.433 330.873 327.769C330.453 328.093 330.147 328.573 329.955 329.209L327.813 328.543C327.957 327.835 328.251 327.223 328.695 326.707C329.139 326.179 329.679 325.777 330.315 325.501C330.963 325.213 331.647 325.069 332.367 325.069C333.231 325.069 333.987 325.225 334.635 325.537C335.295 325.849 335.805 326.287 336.165 326.851C336.537 327.415 336.723 328.075 336.723 328.831C336.723 329.311 336.633 329.785 336.453 330.253C336.273 330.721 336.003 331.201 335.643 331.693C335.283 332.173 334.815 332.713 334.239 333.313L331.089 336.625H336.903V338.695H327.903ZM338.931 338.695L344.511 327.355H338.193V325.285H347.085V327.355L341.631 338.695H338.931ZM350.264 338.695L361.136 325.285H363.656L352.784 338.695H350.264ZM352.352 332.089C351.692 332.089 351.092 331.933 350.552 331.621C350.024 331.297 349.604 330.871 349.292 330.343C348.98 329.815 348.824 329.227 348.824 328.579C348.824 327.931 348.98 327.343 349.292 326.815C349.604 326.275 350.024 325.849 350.552 325.537C351.092 325.225 351.692 325.069 352.352 325.069C353.024 325.069 353.624 325.225 354.152 325.537C354.68 325.849 355.1 326.275 355.412 326.815C355.724 327.343 355.88 327.931 355.88 328.579C355.88 329.227 355.724 329.815 355.412 330.343C355.1 330.871 354.68 331.297 354.152 331.621C353.624 331.933 353.024 332.089 352.352 332.089ZM352.352 330.271C352.712 330.271 353.012 330.193 353.252 330.037C353.492 329.869 353.672 329.659 353.792 329.407C353.924 329.143 353.99 328.867 353.99 328.579C353.99 328.279 353.924 328.003 353.792 327.751C353.672 327.499 353.492 327.289 353.252 327.121C353.012 326.953 352.712 326.869 352.352 326.869C352.016 326.869 351.722 326.953 351.47 327.121C351.23 327.289 351.044 327.505 350.912 327.769C350.78 328.021 350.714 328.291 350.714 328.579C350.714 328.855 350.78 329.125 350.912 329.389C351.044 329.653 351.23 329.869 351.47 330.037C351.722 330.193 352.016 330.271 352.352 330.271ZM361.496 338.911C360.836 338.911 360.236 338.755 359.696 338.443C359.168 338.119 358.748 337.693 358.436 337.165C358.124 336.637 357.968 336.049 357.968 335.401C357.968 334.753 358.124 334.165 358.436 333.637C358.748 333.097 359.168 332.671 359.696 332.359C360.236 332.047 360.836 331.891 361.496 331.891C362.168 331.891 362.768 332.047 363.296 332.359C363.824 332.671 364.244 333.097 364.556 333.637C364.868 334.165 365.024 334.753 365.024 335.401C365.024 336.049 364.868 336.637 364.556 337.165C364.244 337.693 363.824 338.119 363.296 338.443C362.768 338.755 362.168 338.911 361.496 338.911ZM361.496 337.093C361.844 337.093 362.138 337.015 362.378 336.859C362.63 336.691 362.816 336.481 362.936 336.229C363.068 335.965 363.134 335.689 363.134 335.401C363.134 335.101 363.068 334.825 362.936 334.573C362.816 334.321 362.63 334.111 362.378 333.943C362.138 333.775 361.844 333.691 361.496 333.691C361.16 333.691 360.866 333.775 360.614 333.943C360.374 334.111 360.188 334.327 360.056 334.591C359.924 334.843 359.858 335.113 359.858 335.401C359.858 335.677 359.924 335.947 360.056 336.211C360.188 336.475 360.374 336.691 360.614 336.859C360.866 337.015 361.16 337.093 361.496 337.093Z" fill="#123340"/>
<path d="M299.535 359.695V347.775H303.743C304.532 347.775 305.225 347.924 305.823 348.223C306.42 348.522 306.884 348.948 307.215 349.503C307.556 350.058 307.727 350.708 307.727 351.455C307.727 352.202 307.556 352.852 307.215 353.407C306.884 353.951 306.42 354.378 305.823 354.687C305.236 354.986 304.543 355.135 303.743 355.135H301.103V359.695H299.535ZM301.103 353.695H303.791C304.271 353.695 304.687 353.604 305.039 353.423C305.391 353.242 305.663 352.98 305.855 352.639C306.047 352.298 306.143 351.903 306.143 351.455C306.143 350.996 306.047 350.602 305.855 350.271C305.663 349.93 305.391 349.668 305.039 349.487C304.687 349.306 304.271 349.215 303.791 349.215H301.103V353.695ZM314.007 359.887C313.143 359.887 312.375 359.706 311.703 359.343C311.042 358.98 310.524 358.484 310.151 357.855C309.788 357.215 309.607 356.49 309.607 355.679V347.775H311.191V355.647C311.191 356.191 311.308 356.676 311.543 357.103C311.788 357.519 312.119 357.844 312.535 358.079C312.962 358.314 313.452 358.431 314.007 358.431C314.562 358.431 315.047 358.314 315.463 358.079C315.89 357.844 316.22 357.519 316.455 357.103C316.7 356.676 316.823 356.191 316.823 355.647V347.775H318.407V355.679C318.407 356.49 318.22 357.215 317.847 357.855C317.484 358.484 316.972 358.98 316.311 359.343C315.65 359.706 314.882 359.887 314.007 359.887ZM320.824 359.695V347.775H325.832C326.547 347.775 327.16 347.903 327.672 348.159C328.195 348.415 328.595 348.778 328.872 349.247C329.16 349.706 329.304 350.255 329.304 350.895C329.304 351.482 329.149 352.015 328.84 352.495C328.541 352.964 328.099 353.332 327.512 353.599L327.496 353.007C328.008 353.199 328.429 353.455 328.76 353.775C329.101 354.084 329.357 354.447 329.528 354.863C329.699 355.268 329.784 355.7 329.784 356.159C329.784 357.258 329.432 358.122 328.728 358.751C328.024 359.38 327.064 359.695 325.848 359.695H320.824ZM322.392 358.255H325.912C326.605 358.255 327.16 358.068 327.576 357.695C327.992 357.322 328.2 356.815 328.2 356.175C328.2 355.535 327.992 355.028 327.576 354.655C327.16 354.271 326.605 354.079 325.912 354.079H322.392V358.255ZM322.392 352.671H325.8C326.376 352.671 326.84 352.506 327.192 352.175C327.544 351.834 327.72 351.402 327.72 350.879C327.72 350.335 327.544 349.919 327.192 349.631C326.84 349.343 326.376 349.199 325.8 349.199H322.392V352.671ZM331.742 359.695V347.775H333.31V358.255H338.542V359.695H331.742ZM340.145 359.695V347.775H341.713V359.695H340.145ZM349.691 359.887C348.849 359.887 348.07 359.738 347.355 359.439C346.651 359.13 346.033 358.698 345.499 358.143C344.977 357.588 344.571 356.938 344.283 356.191C343.995 355.444 343.851 354.628 343.851 353.743C343.851 352.847 343.995 352.026 344.283 351.279C344.571 350.532 344.977 349.882 345.499 349.327C346.022 348.772 346.641 348.346 347.355 348.047C348.07 347.738 348.849 347.583 349.691 347.583C350.513 347.583 351.249 347.727 351.899 348.015C352.561 348.303 353.115 348.676 353.563 349.135C354.022 349.594 354.347 350.084 354.539 350.607L353.099 351.263C352.822 350.602 352.39 350.068 351.803 349.663C351.217 349.247 350.513 349.039 349.691 349.039C348.859 349.039 348.118 349.236 347.467 349.631C346.827 350.026 346.326 350.575 345.963 351.279C345.601 351.983 345.419 352.804 345.419 353.743C345.419 354.671 345.601 355.487 345.963 356.191C346.326 356.895 346.827 357.444 347.467 357.839C348.118 358.234 348.859 358.431 349.691 358.431C350.513 358.431 351.217 358.228 351.803 357.823C352.39 357.407 352.822 356.868 353.099 356.207L354.539 356.863C354.347 357.386 354.022 357.876 353.563 358.335C353.115 358.794 352.561 359.167 351.899 359.455C351.249 359.743 350.513 359.887 349.691 359.887ZM363.214 359.887C362.456 359.887 361.763 359.748 361.134 359.471C360.504 359.183 359.971 358.794 359.534 358.303C359.096 357.812 358.782 357.263 358.59 356.655L359.95 356.095C360.238 356.863 360.664 357.455 361.23 357.871C361.806 358.276 362.478 358.479 363.246 358.479C363.715 358.479 364.126 358.404 364.478 358.255C364.83 358.106 365.102 357.898 365.294 357.631C365.496 357.354 365.598 357.034 365.598 356.671C365.598 356.17 365.454 355.775 365.166 355.487C364.888 355.188 364.478 354.964 363.934 354.815L361.742 354.143C360.878 353.876 360.216 353.455 359.758 352.879C359.299 352.303 359.07 351.642 359.07 350.895C359.07 350.244 359.224 349.674 359.534 349.183C359.854 348.682 360.291 348.292 360.846 348.015C361.411 347.727 362.051 347.583 362.766 347.583C363.48 347.583 364.126 347.711 364.702 347.967C365.288 348.223 365.784 348.57 366.19 349.007C366.595 349.434 366.894 349.924 367.086 350.479L365.742 351.039C365.486 350.367 365.102 349.86 364.59 349.519C364.078 349.167 363.475 348.991 362.782 348.991C362.355 348.991 361.976 349.066 361.646 349.215C361.326 349.354 361.075 349.562 360.894 349.839C360.723 350.106 360.638 350.426 360.638 350.799C360.638 351.236 360.776 351.626 361.054 351.967C361.331 352.308 361.752 352.57 362.318 352.751L364.318 353.343C365.256 353.631 365.966 354.042 366.446 354.575C366.926 355.108 367.166 355.77 367.166 356.559C367.166 357.21 366.995 357.786 366.654 358.287C366.323 358.788 365.859 359.183 365.262 359.471C364.675 359.748 363.992 359.887 363.214 359.887ZM368.103 359.695L372.375 347.775H374.231L378.503 359.695H376.823L375.847 356.895H370.759L369.783 359.695H368.103ZM371.255 355.455H375.351L373.079 348.911H373.527L371.255 355.455ZM379.845 359.695V347.775H381.413V358.255H386.645V359.695H379.845ZM388.247 359.695V347.775H396.007V349.215H389.815V352.991H395.687V354.431H389.815V358.255H396.007V359.695H388.247Z" fill="#123340"/>
<path d="M336.613 317.611H299.695L286 306" stroke="#123340"/>
<path d="M40.114 90V78.678H37.522V76.59H42.562V90H40.114ZM49.4258 90.216C48.7178 90.216 48.0398 90.084 47.3918 89.82C46.7558 89.556 46.2038 89.184 45.7358 88.704C45.2798 88.212 44.9678 87.63 44.7998 86.958L46.9238 86.202C47.1278 86.814 47.4578 87.27 47.9138 87.57C48.3698 87.858 48.8738 88.002 49.4258 88.002C49.8818 88.002 50.2838 87.906 50.6318 87.714C50.9918 87.51 51.2678 87.234 51.4598 86.886C51.6518 86.526 51.7478 86.112 51.7478 85.644C51.7478 85.176 51.6458 84.768 51.4418 84.42C51.2498 84.072 50.9798 83.802 50.6318 83.61C50.2838 83.406 49.8818 83.304 49.4258 83.304C48.9578 83.304 48.5318 83.406 48.1478 83.61C47.7758 83.814 47.5058 84.108 47.3378 84.492L45.3398 84.042L46.4018 76.59H53.7098V78.66H47.3738L48.2918 77.598L47.5358 83.214L46.8338 82.638C47.1698 82.146 47.5778 81.786 48.0578 81.558C48.5498 81.33 49.1438 81.216 49.8398 81.216C50.7278 81.216 51.4958 81.408 52.1438 81.792C52.8038 82.176 53.3138 82.698 53.6738 83.358C54.0338 84.018 54.2138 84.78 54.2138 85.644C54.2138 86.508 54.0038 87.288 53.5838 87.984C53.1638 88.68 52.5938 89.226 51.8738 89.622C51.1538 90.018 50.3378 90.216 49.4258 90.216ZM57.728 90L68.6 76.59H71.12L60.248 90H57.728ZM59.816 83.394C59.156 83.394 58.556 83.238 58.016 82.926C57.488 82.602 57.068 82.176 56.756 81.648C56.444 81.12 56.288 80.532 56.288 79.884C56.288 79.236 56.444 78.648 56.756 78.12C57.068 77.58 57.488 77.154 58.016 76.842C58.556 76.53 59.156 76.374 59.816 76.374C60.488 76.374 61.088 76.53 61.616 76.842C62.144 77.154 62.564 77.58 62.876 78.12C63.188 78.648 63.344 79.236 63.344 79.884C63.344 80.532 63.188 81.12 62.876 81.648C62.564 82.176 62.144 82.602 61.616 82.926C61.088 83.238 60.488 83.394 59.816 83.394ZM59.816 81.576C60.176 81.576 60.476 81.498 60.716 81.342C60.956 81.174 61.136 80.964 61.256 80.712C61.388 80.448 61.454 80.172 61.454 79.884C61.454 79.584 61.388 79.308 61.256 79.056C61.136 78.804 60.956 78.594 60.716 78.426C60.476 78.258 60.176 78.174 59.816 78.174C59.48 78.174 59.186 78.258 58.934 78.426C58.694 78.594 58.508 78.81 58.376 79.074C58.244 79.326 58.178 79.596 58.178 79.884C58.178 80.16 58.244 80.43 58.376 80.694C58.508 80.958 58.694 81.174 58.934 81.342C59.186 81.498 59.48 81.576 59.816 81.576ZM68.96 90.216C68.3 90.216 67.7 90.06 67.16 89.748C66.632 89.424 66.212 88.998 65.9 88.47C65.588 87.942 65.432 87.354 65.432 86.706C65.432 86.058 65.588 85.47 65.9 84.942C66.212 84.402 66.632 83.976 67.16 83.664C67.7 83.352 68.3 83.196 68.96 83.196C69.632 83.196 70.232 83.352 70.76 83.664C71.288 83.976 71.708 84.402 72.02 84.942C72.332 85.47 72.488 86.058 72.488 86.706C72.488 87.354 72.332 87.942 72.02 88.47C71.708 88.998 71.288 89.424 70.76 89.748C70.232 90.06 69.632 90.216 68.96 90.216ZM68.96 88.398C69.308 88.398 69.602 88.32 69.842 88.164C70.094 87.996 70.28 87.786 70.4 87.534C70.532 87.27 70.598 86.994 70.598 86.706C70.598 86.406 70.532 86.13 70.4 85.878C70.28 85.626 70.094 85.416 69.842 85.248C69.602 85.08 69.308 84.996 68.96 84.996C68.624 84.996 68.33 85.08 68.078 85.248C67.838 85.416 67.652 85.632 67.52 85.896C67.388 86.148 67.322 86.418 67.322 86.706C67.322 86.982 67.388 87.252 67.52 87.516C67.652 87.78 67.838 87.996 68.078 88.164C68.33 88.32 68.624 88.398 68.96 88.398Z" fill="#123340"/>
<path d="M5.36025 121.192C4.60292 121.192 3.90958 121.053 3.28025 120.776C2.65092 120.488 2.11758 120.099 1.68025 119.608C1.24292 119.117 0.928249 118.568 0.736249 117.96L2.09625 117.4C2.38425 118.168 2.81092 118.76 3.37625 119.176C3.95225 119.581 4.62425 119.784 5.39225 119.784C5.86158 119.784 6.27225 119.709 6.62425 119.56C6.97625 119.411 7.24825 119.203 7.44025 118.936C7.64292 118.659 7.74425 118.339 7.74425 117.976C7.74425 117.475 7.60025 117.08 7.31225 116.792C7.03492 116.493 6.62425 116.269 6.08025 116.12L3.88825 115.448C3.02425 115.181 2.36292 114.76 1.90425 114.184C1.44558 113.608 1.21625 112.947 1.21625 112.2C1.21625 111.549 1.37092 110.979 1.68025 110.488C2.00025 109.987 2.43758 109.597 2.99225 109.32C3.55758 109.032 4.19758 108.888 4.91225 108.888C5.62692 108.888 6.27225 109.016 6.84825 109.272C7.43492 109.528 7.93092 109.875 8.33625 110.312C8.74158 110.739 9.04025 111.229 9.23225 111.784L7.88825 112.344C7.63225 111.672 7.24825 111.165 6.73625 110.824C6.22425 110.472 5.62158 110.296 4.92825 110.296C4.50158 110.296 4.12292 110.371 3.79225 110.52C3.47225 110.659 3.22158 110.867 3.04025 111.144C2.86958 111.411 2.78425 111.731 2.78425 112.104C2.78425 112.541 2.92292 112.931 3.20025 113.272C3.47758 113.613 3.89892 113.875 4.46425 114.056L6.46425 114.648C7.40292 114.936 8.11225 115.347 8.59225 115.88C9.07225 116.413 9.31225 117.075 9.31225 117.864C9.31225 118.515 9.14158 119.091 8.80025 119.592C8.46958 120.093 8.00558 120.488 7.40825 120.776C6.82158 121.053 6.13892 121.192 5.36025 121.192ZM13.528 121V110.52H10.296V109.08H18.296V110.52H15.112V121H13.528ZM17.6985 121L21.9705 109.08H23.8265L28.0985 121H26.4185L25.4425 118.2H20.3545L19.3785 121H17.6985ZM20.8505 116.76H24.9465L22.6745 110.216H23.1225L20.8505 116.76ZM34.4441 121.192C33.6015 121.192 32.8228 121.043 32.1081 120.744C31.4041 120.435 30.7855 120.003 30.2521 119.448C29.7295 118.893 29.3241 118.243 29.0361 117.496C28.7481 116.749 28.6041 115.933 28.6041 115.048C28.6041 114.152 28.7481 113.331 29.0361 112.584C29.3241 111.837 29.7295 111.187 30.2521 110.632C30.7748 110.077 31.3935 109.651 32.1081 109.352C32.8228 109.043 33.6015 108.888 34.4441 108.888C35.2655 108.888 36.0015 109.032 36.6521 109.32C37.3135 109.608 37.8681 109.981 38.3161 110.44C38.7748 110.899 39.1001 111.389 39.2921 111.912L37.8521 112.568C37.5748 111.907 37.1428 111.373 36.5561 110.968C35.9695 110.552 35.2655 110.344 34.4441 110.344C33.6121 110.344 32.8708 110.541 32.2201 110.936C31.5801 111.331 31.0788 111.88 30.7161 112.584C30.3535 113.288 30.1721 114.109 30.1721 115.048C30.1721 115.976 30.3535 116.792 30.7161 117.496C31.0788 118.2 31.5801 118.749 32.2201 119.144C32.8708 119.539 33.6121 119.736 34.4441 119.736C35.2655 119.736 35.9695 119.533 36.5561 119.128C37.1428 118.712 37.5748 118.173 37.8521 117.512L39.2921 118.168C39.1001 118.691 38.7748 119.181 38.3161 119.64C37.8681 120.099 37.3135 120.472 36.6521 120.76C36.0015 121.048 35.2655 121.192 34.4441 121.192ZM41.2649 121V109.08H42.8329V115.784L42.4489 115.624L48.1449 109.08H50.1129L45.3289 114.6L45.4089 113.48L50.3529 121H48.4809L44.7049 115.336L42.8329 117.48V121H41.2649ZM51.6986 121V109.08H53.2666V121H51.6986ZM55.7574 121V109.08H57.0694L63.9174 118.712L63.3254 118.776V109.08H64.9094V121H63.5974L56.7814 111.304L57.3254 111.24V121H55.7574ZM72.9139 121.192C72.0712 121.192 71.2925 121.043 70.5779 120.744C69.8632 120.435 69.2445 120.003 68.7219 119.448C68.1992 118.893 67.7885 118.243 67.4899 117.496C67.2019 116.749 67.0579 115.933 67.0579 115.048C67.0579 114.152 67.2019 113.331 67.4899 112.584C67.7779 111.837 68.1832 111.187 68.7059 110.632C69.2285 110.077 69.8472 109.651 70.5619 109.352C71.2765 109.043 72.0552 108.888 72.8979 108.888C73.7192 108.888 74.4552 109.032 75.1059 109.32C75.7672 109.608 76.3219 109.981 76.7699 110.44C77.2285 110.899 77.5539 111.389 77.7459 111.912L76.3379 112.6C76.0605 111.907 75.6285 111.357 75.0419 110.952C74.4552 110.547 73.7405 110.344 72.8979 110.344C72.0659 110.344 71.3245 110.541 70.6739 110.936C70.0339 111.331 69.5325 111.88 69.1699 112.584C68.8072 113.288 68.6259 114.109 68.6259 115.048C68.6259 115.976 68.8072 116.792 69.1699 117.496C69.5432 118.2 70.0499 118.749 70.6899 119.144C71.3405 119.539 72.0819 119.736 72.9139 119.736C73.6392 119.736 74.2952 119.581 74.8819 119.272C75.4685 118.963 75.9325 118.536 76.2739 117.992C76.6152 117.448 76.7859 116.819 76.7859 116.104V115.368L77.5059 116.04H72.8979V114.68H78.3699V115.736C78.3699 116.568 78.2259 117.32 77.9379 117.992C77.6499 118.664 77.2552 119.24 76.7539 119.72C76.2525 120.189 75.6712 120.552 75.0099 120.808C74.3485 121.064 73.6499 121.192 72.9139 121.192ZM2.58487 141V129.08H6.79287C7.58221 129.08 8.27554 129.229 8.87287 129.528C9.47021 129.827 9.93421 130.253 10.2649 130.808C10.6062 131.363 10.7769 132.013 10.7769 132.76C10.7769 133.603 10.5635 134.317 10.1369 134.904C9.71021 135.491 9.13421 135.912 8.40887 136.168L11.1769 141H9.35287L6.44087 135.832L7.48087 136.44H4.15287V141H2.58487ZM4.15287 135H6.84087C7.31021 135 7.72087 134.909 8.07287 134.728C8.42487 134.547 8.69687 134.285 8.88887 133.944C9.09154 133.603 9.19287 133.208 9.19287 132.76C9.19287 132.301 9.09154 131.907 8.88887 131.576C8.69687 131.235 8.42487 130.973 8.07287 130.792C7.72087 130.611 7.31021 130.52 6.84087 130.52H4.15287V135ZM12.7999 141V129.08H20.5599V130.52H14.3679V134.296H20.2399V135.736H14.3679V139.56H20.5599V141H12.7999ZM24.535 141L21.191 129.08H22.839L25.639 139.576H25.255L28.167 129.08H29.815L32.711 139.576H32.311L35.127 129.08H36.775L33.431 141H31.687L28.775 130.552H29.191L26.279 141H24.535ZM36.3279 141L40.5999 129.08H42.4559L46.7279 141H45.0479L44.0719 138.2H38.9839L38.0079 141H36.3279ZM39.4799 136.76H43.5759L41.3039 130.216H41.7519L39.4799 136.76ZM48.0699 141V129.08H52.2779C53.0672 129.08 53.7605 129.229 54.3579 129.528C54.9552 129.827 55.4192 130.253 55.7499 130.808C56.0912 131.363 56.2619 132.013 56.2619 132.76C56.2619 133.603 56.0485 134.317 55.6219 134.904C55.1952 135.491 54.6192 135.912 53.8939 136.168L56.6619 141H54.8379L51.9259 135.832L52.9659 136.44H49.6379V141H48.0699ZM49.6379 135H52.3259C52.7952 135 53.2059 134.909 53.5579 134.728C53.9099 134.547 54.1819 134.285 54.3739 133.944C54.5765 133.603 54.6779 133.208 54.6779 132.76C54.6779 132.301 54.5765 131.907 54.3739 131.576C54.1819 131.235 53.9099 130.973 53.5579 130.792C53.2059 130.611 52.7952 130.52 52.3259 130.52H49.6379V135ZM58.2849 141V129.08H62.1889C63.3942 129.08 64.4449 129.325 65.3409 129.816C66.2369 130.307 66.9302 131 67.4209 131.896C67.9115 132.781 68.1569 133.827 68.1569 135.032C68.1569 136.227 67.9115 137.272 67.4209 138.168C66.9302 139.064 66.2369 139.763 65.3409 140.264C64.4449 140.755 63.3942 141 62.1889 141H58.2849ZM59.8529 139.56H62.2049C63.0902 139.56 63.8529 139.373 64.4929 139C65.1435 138.627 65.6449 138.104 65.9969 137.432C66.3489 136.749 66.5249 135.949 66.5249 135.032C66.5249 134.104 66.3435 133.304 65.9809 132.632C65.6289 131.96 65.1275 131.443 64.4769 131.08C63.8369 130.707 63.0795 130.52 62.2049 130.52H59.8529V139.56ZM74.0803 141.192C73.3229 141.192 72.6296 141.053 72.0003 140.776C71.3709 140.488 70.8376 140.099 70.4003 139.608C69.9629 139.117 69.6483 138.568 69.4563 137.96L70.8163 137.4C71.1043 138.168 71.5309 138.76 72.0963 139.176C72.6723 139.581 73.3443 139.784 74.1123 139.784C74.5816 139.784 74.9923 139.709 75.3443 139.56C75.6963 139.411 75.9683 139.203 76.1603 138.936C76.3629 138.659 76.4643 138.339 76.4643 137.976C76.4643 137.475 76.3203 137.08 76.0323 136.792C75.7549 136.493 75.3443 136.269 74.8003 136.12L72.6083 135.448C71.7443 135.181 71.0829 134.76 70.6243 134.184C70.1656 133.608 69.9363 132.947 69.9363 132.2C69.9363 131.549 70.0909 130.979 70.4003 130.488C70.7203 129.987 71.1576 129.597 71.7123 129.32C72.2776 129.032 72.9176 128.888 73.6323 128.888C74.3469 128.888 74.9923 129.016 75.5683 129.272C76.1549 129.528 76.6509 129.875 77.0563 130.312C77.4616 130.739 77.7603 131.229 77.9523 131.784L76.6083 132.344C76.3523 131.672 75.9683 131.165 75.4563 130.824C74.9443 130.472 74.3416 130.296 73.6483 130.296C73.2216 130.296 72.8429 130.371 72.5123 130.52C72.1923 130.659 71.9416 130.867 71.7603 131.144C71.5896 131.411 71.5043 131.731 71.5043 132.104C71.5043 132.541 71.6429 132.931 71.9203 133.272C72.1976 133.613 72.6189 133.875 73.1843 134.056L75.1843 134.648C76.1229 134.936 76.8323 135.347 77.3123 135.88C77.7923 136.413 78.0323 137.075 78.0323 137.864C78.0323 138.515 77.8616 139.091 77.5203 139.592C77.1896 140.093 76.7256 140.488 76.1283 140.776C75.5416 141.053 74.8589 141.192 74.0803 141.192Z" fill="#123340"/>
<path d="M22 99H80.697L100 121" stroke="#123340"/>
<path d="M210.671 19.216C209.963 19.216 209.285 19.084 208.637 18.82C208.001 18.556 207.449 18.184 206.981 17.704C206.525 17.212 206.213 16.63 206.045 15.958L208.169 15.202C208.373 15.814 208.703 16.27 209.159 16.57C209.615 16.858 210.119 17.002 210.671 17.002C211.127 17.002 211.529 16.906 211.877 16.714C212.237 16.51 212.513 16.234 212.705 15.886C212.897 15.526 212.993 15.112 212.993 14.644C212.993 14.176 212.891 13.768 212.687 13.42C212.495 13.072 212.225 12.802 211.877 12.61C211.529 12.406 211.127 12.304 210.671 12.304C210.203 12.304 209.777 12.406 209.393 12.61C209.021 12.814 208.751 13.108 208.583 13.492L206.585 13.042L207.647 5.59H214.955V7.66H208.619L209.537 6.598L208.781 12.214L208.079 11.638C208.415 11.146 208.823 10.786 209.303 10.558C209.795 10.33 210.389 10.216 211.085 10.216C211.973 10.216 212.741 10.408 213.389 10.792C214.049 11.176 214.559 11.698 214.919 12.358C215.279 13.018 215.459 13.78 215.459 14.644C215.459 15.508 215.249 16.288 214.829 16.984C214.409 17.68 213.839 18.226 213.119 18.622C212.399 19.018 211.583 19.216 210.671 19.216ZM218.973 19L229.845 5.59H232.365L221.493 19H218.973ZM221.061 12.394C220.401 12.394 219.801 12.238 219.261 11.926C218.733 11.602 218.313 11.176 218.001 10.648C217.689 10.12 217.533 9.532 217.533 8.884C217.533 8.236 217.689 7.648 218.001 7.12C218.313 6.58 218.733 6.154 219.261 5.842C219.801 5.53 220.401 5.374 221.061 5.374C221.733 5.374 222.333 5.53 222.861 5.842C223.389 6.154 223.809 6.58 224.121 7.12C224.433 7.648 224.589 8.236 224.589 8.884C224.589 9.532 224.433 10.12 224.121 10.648C223.809 11.176 223.389 11.602 222.861 11.926C222.333 12.238 221.733 12.394 221.061 12.394ZM221.061 10.576C221.421 10.576 221.721 10.498 221.961 10.342C222.201 10.174 222.381 9.964 222.501 9.712C222.633 9.448 222.699 9.172 222.699 8.884C222.699 8.584 222.633 8.308 222.501 8.056C222.381 7.804 222.201 7.594 221.961 7.426C221.721 7.258 221.421 7.174 221.061 7.174C220.725 7.174 220.431 7.258 220.179 7.426C219.939 7.594 219.753 7.81 219.621 8.074C219.489 8.326 219.423 8.596 219.423 8.884C219.423 9.16 219.489 9.43 219.621 9.694C219.753 9.958 219.939 10.174 220.179 10.342C220.431 10.498 220.725 10.576 221.061 10.576ZM230.205 19.216C229.545 19.216 228.945 19.06 228.405 18.748C227.877 18.424 227.457 17.998 227.145 17.47C226.833 16.942 226.677 16.354 226.677 15.706C226.677 15.058 226.833 14.47 227.145 13.942C227.457 13.402 227.877 12.976 228.405 12.664C228.945 12.352 229.545 12.196 230.205 12.196C230.877 12.196 231.477 12.352 232.005 12.664C232.533 12.976 232.953 13.402 233.265 13.942C233.577 14.47 233.733 15.058 233.733 15.706C233.733 16.354 233.577 16.942 233.265 17.47C232.953 17.998 232.533 18.424 232.005 18.748C231.477 19.06 230.877 19.216 230.205 19.216ZM230.205 17.398C230.553 17.398 230.847 17.32 231.087 17.164C231.339 16.996 231.525 16.786 231.645 16.534C231.777 16.27 231.843 15.994 231.843 15.706C231.843 15.406 231.777 15.13 231.645 14.878C231.525 14.626 231.339 14.416 231.087 14.248C230.847 14.08 230.553 13.996 230.205 13.996C229.869 13.996 229.575 14.08 229.323 14.248C229.083 14.416 228.897 14.632 228.765 14.896C228.633 15.148 228.567 15.418 228.567 15.706C228.567 15.982 228.633 16.252 228.765 16.516C228.897 16.78 229.083 16.996 229.323 17.164C229.575 17.32 229.869 17.398 230.205 17.398Z" fill="#123340"/>
<path d="M140.202 40V28.08H147.962V29.52H141.77V33.296H147.642V34.736H141.77V38.56H147.962V40H140.202ZM155.233 40.192C154.39 40.192 153.612 40.0427 152.897 39.744C152.193 39.4347 151.574 39.0027 151.041 38.448C150.518 37.8933 150.113 37.2427 149.825 36.496C149.537 35.7493 149.393 34.9333 149.393 34.048C149.393 33.152 149.537 32.3307 149.825 31.584C150.113 30.8373 150.518 30.1867 151.041 29.632C151.564 29.0773 152.182 28.6507 152.897 28.352C153.612 28.0427 154.39 27.888 155.233 27.888C156.054 27.888 156.79 28.032 157.441 28.32C158.102 28.608 158.657 28.9813 159.105 29.44C159.564 29.8987 159.889 30.3893 160.081 30.912L158.641 31.568C158.364 30.9067 157.932 30.3733 157.345 29.968C156.758 29.552 156.054 29.344 155.233 29.344C154.401 29.344 153.66 29.5413 153.009 29.936C152.369 30.3307 151.868 30.88 151.505 31.584C151.142 32.288 150.961 33.1093 150.961 34.048C150.961 34.976 151.142 35.792 151.505 36.496C151.868 37.2 152.369 37.7493 153.009 38.144C153.66 38.5387 154.401 38.736 155.233 38.736C156.054 38.736 156.758 38.5333 157.345 38.128C157.932 37.712 158.364 37.1733 158.641 36.512L160.081 37.168C159.889 37.6907 159.564 38.1813 159.105 38.64C158.657 39.0987 158.102 39.472 157.441 39.76C156.79 40.048 156.054 40.192 155.233 40.192ZM167.75 40.192C166.907 40.192 166.118 40.0427 165.382 39.744C164.646 39.4347 164.001 39.0027 163.446 38.448C162.902 37.8933 162.475 37.2427 162.166 36.496C161.857 35.7387 161.702 34.9173 161.702 34.032C161.702 33.136 161.857 32.3147 162.166 31.568C162.475 30.8213 162.902 30.1707 163.446 29.616C164.001 29.0613 164.641 28.6347 165.366 28.336C166.102 28.0373 166.897 27.888 167.75 27.888C168.603 27.888 169.393 28.0427 170.118 28.352C170.854 28.6507 171.494 29.0773 172.038 29.632C172.593 30.176 173.025 30.8213 173.334 31.568C173.654 32.3147 173.814 33.136 173.814 34.032C173.814 34.9173 173.654 35.7387 173.334 36.496C173.025 37.2427 172.593 37.8933 172.038 38.448C171.494 39.0027 170.854 39.4347 170.118 39.744C169.393 40.0427 168.603 40.192 167.75 40.192ZM167.75 38.736C168.411 38.736 169.014 38.6187 169.558 38.384C170.102 38.1387 170.571 37.8027 170.966 37.376C171.371 36.9387 171.681 36.4373 171.894 35.872C172.118 35.296 172.23 34.6827 172.23 34.032C172.23 33.3813 172.118 32.7733 171.894 32.208C171.681 31.6427 171.371 31.1467 170.966 30.72C170.571 30.2827 170.102 29.9467 169.558 29.712C169.014 29.4667 168.411 29.344 167.75 29.344C167.099 29.344 166.502 29.4667 165.958 29.712C165.414 29.9467 164.939 30.2827 164.534 30.72C164.139 31.1467 163.83 31.6427 163.606 32.208C163.382 32.7733 163.27 33.3813 163.27 34.032C163.27 34.6827 163.382 35.296 163.606 35.872C163.83 36.4373 164.139 36.9387 164.534 37.376C164.939 37.8027 165.414 38.1387 165.958 38.384C166.502 38.6187 167.099 38.736 167.75 38.736ZM180.037 40.192C179.279 40.192 178.586 40.0533 177.957 39.776C177.327 39.488 176.794 39.0987 176.357 38.608C175.919 38.1173 175.605 37.568 175.413 36.96L176.773 36.4C177.061 37.168 177.487 37.76 178.053 38.176C178.629 38.5813 179.301 38.784 180.069 38.784C180.538 38.784 180.949 38.7093 181.301 38.56C181.653 38.4107 181.925 38.2027 182.117 37.936C182.319 37.6587 182.421 37.3387 182.421 36.976C182.421 36.4747 182.277 36.08 181.989 35.792C181.711 35.4933 181.301 35.2693 180.757 35.12L178.565 34.448C177.701 34.1813 177.039 33.76 176.581 33.184C176.122 32.608 175.893 31.9467 175.893 31.2C175.893 30.5493 176.047 29.9787 176.357 29.488C176.677 28.9867 177.114 28.5973 177.669 28.32C178.234 28.032 178.874 27.888 179.589 27.888C180.303 27.888 180.949 28.016 181.525 28.272C182.111 28.528 182.607 28.8747 183.013 29.312C183.418 29.7387 183.717 30.2293 183.909 30.784L182.565 31.344C182.309 30.672 181.925 30.1653 181.413 29.824C180.901 29.472 180.298 29.296 179.605 29.296C179.178 29.296 178.799 29.3707 178.469 29.52C178.149 29.6587 177.898 29.8667 177.717 30.144C177.546 30.4107 177.461 30.7307 177.461 31.104C177.461 31.5413 177.599 31.9307 177.877 32.272C178.154 32.6133 178.575 32.8747 179.141 33.056L181.141 33.648C182.079 33.936 182.789 34.3467 183.269 34.88C183.749 35.4133 183.989 36.0747 183.989 36.864C183.989 37.5147 183.818 38.0907 183.477 38.592C183.146 39.0933 182.682 39.488 182.085 39.776C181.498 40.0533 180.815 40.192 180.037 40.192ZM188.663 40V34.544L184.535 28.08H186.311L189.767 33.504H189.127L192.567 28.08H194.343L190.247 34.544V40H188.663ZM199.295 40.192C198.538 40.192 197.844 40.0533 197.215 39.776C196.586 39.488 196.052 39.0987 195.615 38.608C195.178 38.1173 194.863 37.568 194.671 36.96L196.031 36.4C196.319 37.168 196.746 37.76 197.311 38.176C197.887 38.5813 198.559 38.784 199.327 38.784C199.796 38.784 200.207 38.7093 200.559 38.56C200.911 38.4107 201.183 38.2027 201.375 37.936C201.578 37.6587 201.679 37.3387 201.679 36.976C201.679 36.4747 201.535 36.08 201.247 35.792C200.97 35.4933 200.559 35.2693 200.015 35.12L197.823 34.448C196.959 34.1813 196.298 33.76 195.839 33.184C195.38 32.608 195.151 31.9467 195.151 31.2C195.151 30.5493 195.306 29.9787 195.615 29.488C195.935 28.9867 196.372 28.5973 196.927 28.32C197.492 28.032 198.132 27.888 198.847 27.888C199.562 27.888 200.207 28.016 200.783 28.272C201.37 28.528 201.866 28.8747 202.271 29.312C202.676 29.7387 202.975 30.2293 203.167 30.784L201.823 31.344C201.567 30.672 201.183 30.1653 200.671 29.824C200.159 29.472 199.556 29.296 198.863 29.296C198.436 29.296 198.058 29.3707 197.727 29.52C197.407 29.6587 197.156 29.8667 196.975 30.144C196.804 30.4107 196.719 30.7307 196.719 31.104C196.719 31.5413 196.858 31.9307 197.135 32.272C197.412 32.6133 197.834 32.8747 198.399 33.056L200.399 33.648C201.338 33.936 202.047 34.3467 202.527 34.88C203.007 35.4133 203.247 36.0747 203.247 36.864C203.247 37.5147 203.076 38.0907 202.735 38.592C202.404 39.0933 201.94 39.488 201.343 39.776C200.756 40.0533 200.074 40.192 199.295 40.192ZM207.463 40V29.52H204.231V28.08H212.231V29.52H209.047V40H207.463ZM213.582 40V28.08H221.342V29.52H215.15V33.296H221.022V34.736H215.15V38.56H221.342V40H213.582ZM223.125 40V28.08H224.565L229.029 34.432H228.293L232.725 28.08H234.165V40H232.581V30.064L233.141 30.24L228.709 36.48H228.581L224.197 30.24L224.693 30.064V40H223.125ZM120.143 60V48.08H124.047C125.253 48.08 126.303 48.3253 127.199 48.816C128.095 49.3067 128.789 50 129.279 50.896C129.77 51.7813 130.015 52.8267 130.015 54.032C130.015 55.2267 129.77 56.272 129.279 57.168C128.789 58.064 128.095 58.7627 127.199 59.264C126.303 59.7547 125.253 60 124.047 60H120.143ZM121.711 58.56H124.063C124.949 58.56 125.711 58.3733 126.351 58C127.002 57.6267 127.503 57.104 127.855 56.432C128.207 55.7493 128.383 54.9493 128.383 54.032C128.383 53.104 128.202 52.304 127.839 51.632C127.487 50.96 126.986 50.4427 126.335 50.08C125.695 49.7067 124.938 49.52 124.063 49.52H121.711V58.56ZM131.843 60V48.08H139.603V49.52H133.411V53.296H139.283V54.736H133.411V58.56H139.603V60H131.843ZM144.538 60L140.234 48.08H141.914L145.562 58.56H145.226L148.874 48.08H150.554L146.266 60H144.538ZM151.898 60V48.08H159.658V49.52H153.466V53.296H159.338V54.736H153.466V58.56H159.658V60H151.898ZM161.441 60V48.08H163.009V58.56H168.241V60H161.441ZM175.227 60.192C174.384 60.192 173.595 60.0427 172.859 59.744C172.123 59.4347 171.477 59.0027 170.923 58.448C170.379 57.8933 169.952 57.2427 169.643 56.496C169.333 55.7387 169.179 54.9173 169.179 54.032C169.179 53.136 169.333 52.3147 169.643 51.568C169.952 50.8213 170.379 50.1707 170.923 49.616C171.477 49.0613 172.117 48.6347 172.843 48.336C173.579 48.0373 174.373 47.888 175.227 47.888C176.08 47.888 176.869 48.0427 177.595 48.352C178.331 48.6507 178.971 49.0773 179.515 49.632C180.069 50.176 180.501 50.8213 180.811 51.568C181.131 52.3147 181.291 53.136 181.291 54.032C181.291 54.9173 181.131 55.7387 180.811 56.496C180.501 57.2427 180.069 57.8933 179.515 58.448C178.971 59.0027 178.331 59.4347 177.595 59.744C176.869 60.0427 176.08 60.192 175.227 60.192ZM175.227 58.736C175.888 58.736 176.491 58.6187 177.035 58.384C177.579 58.1387 178.048 57.8027 178.443 57.376C178.848 56.9387 179.157 56.4373 179.371 55.872C179.595 55.296 179.707 54.6827 179.707 54.032C179.707 53.3813 179.595 52.7733 179.371 52.208C179.157 51.6427 178.848 51.1467 178.443 50.72C178.048 50.2827 177.579 49.9467 177.035 49.712C176.491 49.4667 175.888 49.344 175.227 49.344C174.576 49.344 173.979 49.4667 173.435 49.712C172.891 49.9467 172.416 50.2827 172.011 50.72C171.616 51.1467 171.307 51.6427 171.083 52.208C170.859 52.7733 170.747 53.3813 170.747 54.032C170.747 54.6827 170.859 55.296 171.083 55.872C171.307 56.4373 171.616 56.9387 172.011 57.376C172.416 57.8027 172.891 58.1387 173.435 58.384C173.979 58.6187 174.576 58.736 175.227 58.736ZM183.418 60V48.08H187.626C188.415 48.08 189.108 48.2293 189.706 48.528C190.303 48.8267 190.767 49.2533 191.098 49.808C191.439 50.3627 191.61 51.0133 191.61 51.76C191.61 52.5067 191.439 53.1573 191.098 53.712C190.767 54.256 190.303 54.6827 189.706 54.992C189.119 55.2907 188.426 55.44 187.626 55.44H184.986V60H183.418ZM184.986 54H187.674C188.154 54 188.57 53.9093 188.922 53.728C189.274 53.5467 189.546 53.2853 189.738 52.944C189.93 52.6027 190.026 52.208 190.026 51.76C190.026 51.3013 189.93 50.9067 189.738 50.576C189.546 50.2347 189.274 49.9733 188.922 49.792C188.57 49.6107 188.154 49.52 187.674 49.52H184.986V54ZM193.57 60V48.08H195.01L199.474 54.432H198.738L203.17 48.08H204.61V60H203.026V50.064L203.586 50.24L199.154 56.48H199.026L194.642 50.24L195.138 50.064V60H193.57ZM207.098 60V48.08H214.858V49.52H208.666V53.296H214.538V54.736H208.666V58.56H214.858V60H207.098ZM216.641 60V48.08H217.953L224.801 57.712L224.209 57.776V48.08H225.793V60H224.481L217.665 50.304L218.209 50.24V60H216.641ZM230.373 60V49.52H227.141V48.08H235.141V49.52H231.957V60H230.373Z" fill="#123340"/>
<path d="M173 23H260L234 69" stroke="#123340"/>
<path d="M316.346 47.216C315.638 47.216 314.96 47.084 314.312 46.82C313.676 46.556 313.124 46.184 312.656 45.704C312.2 45.212 311.888 44.63 311.72 43.958L313.844 43.202C314.048 43.814 314.378 44.27 314.834 44.57C315.29 44.858 315.794 45.002 316.346 45.002C316.802 45.002 317.204 44.906 317.552 44.714C317.912 44.51 318.188 44.234 318.38 43.886C318.572 43.526 318.668 43.112 318.668 42.644C318.668 42.176 318.566 41.768 318.362 41.42C318.17 41.072 317.9 40.802 317.552 40.61C317.204 40.406 316.802 40.304 316.346 40.304C315.878 40.304 315.452 40.406 315.068 40.61C314.696 40.814 314.426 41.108 314.258 41.492L312.26 41.042L313.322 33.59H320.63V35.66H314.294L315.212 34.598L314.456 40.214L313.754 39.638C314.09 39.146 314.498 38.786 314.978 38.558C315.47 38.33 316.064 38.216 316.76 38.216C317.648 38.216 318.416 38.408 319.064 38.792C319.724 39.176 320.234 39.698 320.594 40.358C320.954 41.018 321.134 41.78 321.134 42.644C321.134 43.508 320.924 44.288 320.504 44.984C320.084 45.68 319.514 46.226 318.794 46.622C318.074 47.018 317.258 47.216 316.346 47.216ZM324.648 47L335.52 33.59H338.04L327.168 47H324.648ZM326.736 40.394C326.076 40.394 325.476 40.238 324.936 39.926C324.408 39.602 323.988 39.176 323.676 38.648C323.364 38.12 323.208 37.532 323.208 36.884C323.208 36.236 323.364 35.648 323.676 35.12C323.988 34.58 324.408 34.154 324.936 33.842C325.476 33.53 326.076 33.374 326.736 33.374C327.408 33.374 328.008 33.53 328.536 33.842C329.064 34.154 329.484 34.58 329.796 35.12C330.108 35.648 330.264 36.236 330.264 36.884C330.264 37.532 330.108 38.12 329.796 38.648C329.484 39.176 329.064 39.602 328.536 39.926C328.008 40.238 327.408 40.394 326.736 40.394ZM326.736 38.576C327.096 38.576 327.396 38.498 327.636 38.342C327.876 38.174 328.056 37.964 328.176 37.712C328.308 37.448 328.374 37.172 328.374 36.884C328.374 36.584 328.308 36.308 328.176 36.056C328.056 35.804 327.876 35.594 327.636 35.426C327.396 35.258 327.096 35.174 326.736 35.174C326.4 35.174 326.106 35.258 325.854 35.426C325.614 35.594 325.428 35.81 325.296 36.074C325.164 36.326 325.098 36.596 325.098 36.884C325.098 37.16 325.164 37.43 325.296 37.694C325.428 37.958 325.614 38.174 325.854 38.342C326.106 38.498 326.4 38.576 326.736 38.576ZM335.88 47.216C335.22 47.216 334.62 47.06 334.08 46.748C333.552 46.424 333.132 45.998 332.82 45.47C332.508 44.942 332.352 44.354 332.352 43.706C332.352 43.058 332.508 42.47 332.82 41.942C333.132 41.402 333.552 40.976 334.08 40.664C334.62 40.352 335.22 40.196 335.88 40.196C336.552 40.196 337.152 40.352 337.68 40.664C338.208 40.976 338.628 41.402 338.94 41.942C339.252 42.47 339.408 43.058 339.408 43.706C339.408 44.354 339.252 44.942 338.94 45.47C338.628 45.998 338.208 46.424 337.68 46.748C337.152 47.06 336.552 47.216 335.88 47.216ZM335.88 45.398C336.228 45.398 336.522 45.32 336.762 45.164C337.014 44.996 337.2 44.786 337.32 44.534C337.452 44.27 337.518 43.994 337.518 43.706C337.518 43.406 337.452 43.13 337.32 42.878C337.2 42.626 337.014 42.416 336.762 42.248C336.522 42.08 336.228 41.996 335.88 41.996C335.544 41.996 335.25 42.08 334.998 42.248C334.758 42.416 334.572 42.632 334.44 42.896C334.308 43.148 334.242 43.418 334.242 43.706C334.242 43.982 334.308 44.252 334.44 44.516C334.572 44.78 334.758 44.996 334.998 45.164C335.25 45.32 335.544 45.398 335.88 45.398Z" fill="#123340"/>
<path d="M316.424 68.192C315.667 68.192 314.973 68.0533 314.344 67.776C313.715 67.488 313.181 67.0987 312.744 66.608C312.307 66.1173 311.992 65.568 311.8 64.96L313.16 64.4C313.448 65.168 313.875 65.76 314.44 66.176C315.016 66.5813 315.688 66.784 316.456 66.784C316.925 66.784 317.336 66.7093 317.688 66.56C318.04 66.4107 318.312 66.2027 318.504 65.936C318.707 65.6587 318.808 65.3387 318.808 64.976C318.808 64.4747 318.664 64.08 318.376 63.792C318.099 63.4933 317.688 63.2693 317.144 63.12L314.952 62.448C314.088 62.1813 313.427 61.76 312.968 61.184C312.509 60.608 312.28 59.9467 312.28 59.2C312.28 58.5493 312.435 57.9787 312.744 57.488C313.064 56.9867 313.501 56.5973 314.056 56.32C314.621 56.032 315.261 55.888 315.976 55.888C316.691 55.888 317.336 56.016 317.912 56.272C318.499 56.528 318.995 56.8747 319.4 57.312C319.805 57.7387 320.104 58.2293 320.296 58.784L318.952 59.344C318.696 58.672 318.312 58.1653 317.8 57.824C317.288 57.472 316.685 57.296 315.992 57.296C315.565 57.296 315.187 57.3707 314.856 57.52C314.536 57.6587 314.285 57.8667 314.104 58.144C313.933 58.4107 313.848 58.7307 313.848 59.104C313.848 59.5413 313.987 59.9307 314.264 60.272C314.541 60.6133 314.963 60.8747 315.528 61.056L317.528 61.648C318.467 61.936 319.176 62.3467 319.656 62.88C320.136 63.4133 320.376 64.0747 320.376 64.864C320.376 65.5147 320.205 66.0907 319.864 66.592C319.533 67.0933 319.069 67.488 318.472 67.776C317.885 68.0533 317.203 68.192 316.424 68.192ZM325.05 68V62.544L320.922 56.08H322.698L326.154 61.504H325.514L328.954 56.08H330.73L326.634 62.544V68H325.05ZM332.071 68V56.08H333.383L340.231 65.712L339.639 65.776V56.08H341.223V68H339.911L333.095 58.304L333.639 58.24V68H332.071ZM345.803 68V57.52H342.571V56.08H350.571V57.52H347.387V68H345.803ZM351.922 68V56.08H353.49V61.392H359.458V56.08H361.042V68H359.458V62.832H353.49V68H351.922ZM363.528 68V56.08H371.288V57.52H365.096V61.296H370.968V62.736H365.096V66.56H371.288V68H363.528ZM375.151 68V57.52H371.919V56.08H379.919V57.52H376.735V68H375.151ZM381.27 68V56.08H382.838V68H381.27ZM390.817 68.192C389.975 68.192 389.196 68.0427 388.481 67.744C387.777 67.4347 387.159 67.0027 386.625 66.448C386.103 65.8933 385.697 65.2427 385.409 64.496C385.121 63.7493 384.977 62.9333 384.977 62.048C384.977 61.152 385.121 60.3307 385.409 59.584C385.697 58.8373 386.103 58.1867 386.625 57.632C387.148 57.0773 387.767 56.6507 388.481 56.352C389.196 56.0427 389.975 55.888 390.817 55.888C391.639 55.888 392.375 56.032 393.025 56.32C393.687 56.608 394.241 56.9813 394.689 57.44C395.148 57.8987 395.473 58.3893 395.665 58.912L394.225 59.568C393.948 58.9067 393.516 58.3733 392.929 57.968C392.343 57.552 391.639 57.344 390.817 57.344C389.985 57.344 389.244 57.5413 388.593 57.936C387.953 58.3307 387.452 58.88 387.089 59.584C386.727 60.288 386.545 61.1093 386.545 62.048C386.545 62.976 386.727 63.792 387.089 64.496C387.452 65.2 387.953 65.7493 388.593 66.144C389.244 66.5387 389.985 66.736 390.817 66.736C391.639 66.736 392.343 66.5333 392.929 66.128C393.516 65.712 393.948 65.1733 394.225 64.512L395.665 65.168C395.473 65.6907 395.148 66.1813 394.689 66.64C394.241 67.0987 393.687 67.472 393.025 67.76C392.375 68.048 391.639 68.192 390.817 68.192ZM312.328 88V76.08H320.088V77.52H313.896V81.296H319.768V82.736H313.896V86.56H320.088V88H312.328ZM327.567 88.192C326.724 88.192 325.935 88.0427 325.199 87.744C324.463 87.4347 323.818 87.0027 323.263 86.448C322.719 85.8933 322.292 85.2427 321.983 84.496C321.674 83.7387 321.519 82.9173 321.519 82.032C321.519 81.136 321.674 80.3147 321.983 79.568C322.292 78.8213 322.719 78.1707 323.263 77.616C323.818 77.0613 324.458 76.6347 325.183 76.336C325.919 76.0373 326.714 75.888 327.567 75.888C328.42 75.888 329.21 76.0427 329.935 76.352C330.671 76.6507 331.311 77.0773 331.855 77.632C332.41 78.176 332.842 78.8213 333.151 79.568C333.471 80.3147 333.631 81.136 333.631 82.032C333.631 82.9173 333.471 83.7387 333.151 84.496C332.842 85.2427 332.41 85.8933 331.855 86.448C331.311 87.0027 330.671 87.4347 329.935 87.744C329.21 88.0427 328.42 88.192 327.567 88.192ZM327.567 86.736C328.228 86.736 328.831 86.6187 329.375 86.384C329.919 86.1387 330.388 85.8027 330.783 85.376C331.188 84.9387 331.498 84.4373 331.711 83.872C331.935 83.296 332.047 82.6827 332.047 82.032C332.047 81.3813 331.935 80.7733 331.711 80.208C331.498 79.6427 331.188 79.1467 330.783 78.72C330.388 78.2827 329.919 77.9467 329.375 77.712C328.831 77.4667 328.228 77.344 327.567 77.344C326.916 77.344 326.319 77.4667 325.775 77.712C325.231 77.9467 324.756 78.2827 324.351 78.72C323.956 79.1467 323.647 79.6427 323.423 80.208C323.199 80.7733 323.087 81.3813 323.087 82.032C323.087 82.6827 323.199 83.296 323.423 83.872C323.647 84.4373 323.956 84.9387 324.351 85.376C324.756 85.8027 325.231 86.1387 325.775 86.384C326.319 86.6187 326.916 86.736 327.567 86.736ZM330.783 89.44L326.719 83.232H328.447L332.527 89.44H330.783ZM340.078 88.192C339.214 88.192 338.446 88.0107 337.774 87.648C337.113 87.2853 336.595 86.7893 336.222 86.16C335.859 85.52 335.678 84.7947 335.678 83.984V76.08H337.262V83.952C337.262 84.496 337.379 84.9813 337.614 85.408C337.859 85.824 338.19 86.1493 338.606 86.384C339.033 86.6187 339.523 86.736 340.078 86.736C340.633 86.736 341.118 86.6187 341.534 86.384C341.961 86.1493 342.291 85.824 342.526 85.408C342.771 84.9813 342.894 84.496 342.894 83.952V76.08H344.478V83.984C344.478 84.7947 344.291 85.52 343.918 86.16C343.555 86.7893 343.043 87.2853 342.382 87.648C341.721 88.0107 340.953 88.192 340.078 88.192ZM346.895 88V76.08H348.463V88H346.895ZM353.034 88V77.52H349.802V76.08H357.802V77.52H354.618V88H353.034ZM359.153 88V76.08H360.721V88H359.153ZM363.212 88V76.08H370.972V77.52H364.78V81.296H370.652V82.736H364.78V86.56H370.972V88H363.212ZM376.851 88.192C376.094 88.192 375.4 88.0533 374.771 87.776C374.142 87.488 373.608 87.0987 373.171 86.608C372.734 86.1173 372.419 85.568 372.227 84.96L373.587 84.4C373.875 85.168 374.302 85.76 374.867 86.176C375.443 86.5813 376.115 86.784 376.883 86.784C377.352 86.784 377.763 86.7093 378.115 86.56C378.467 86.4107 378.739 86.2027 378.931 85.936C379.134 85.6587 379.235 85.3387 379.235 84.976C379.235 84.4747 379.091 84.08 378.803 83.792C378.526 83.4933 378.115 83.2693 377.571 83.12L375.379 82.448C374.515 82.1813 373.854 81.76 373.395 81.184C372.936 80.608 372.707 79.9467 372.707 79.2C372.707 78.5493 372.862 77.9787 373.171 77.488C373.491 76.9867 373.928 76.5973 374.483 76.32C375.048 76.032 375.688 75.888 376.403 75.888C377.118 75.888 377.763 76.016 378.339 76.272C378.926 76.528 379.422 76.8747 379.827 77.312C380.232 77.7387 380.531 78.2293 380.723 78.784L379.379 79.344C379.123 78.672 378.739 78.1653 378.227 77.824C377.715 77.472 377.112 77.296 376.419 77.296C375.992 77.296 375.614 77.3707 375.283 77.52C374.963 77.6587 374.712 77.8667 374.531 78.144C374.36 78.4107 374.275 78.7307 374.275 79.104C374.275 79.5413 374.414 79.9307 374.691 80.272C374.968 80.6133 375.39 80.8747 375.955 81.056L377.955 81.648C378.894 81.936 379.603 82.3467 380.083 82.88C380.563 83.4133 380.803 84.0747 380.803 84.864C380.803 85.5147 380.632 86.0907 380.291 86.592C379.96 87.0933 379.496 87.488 378.899 87.776C378.312 88.0533 377.63 88.192 376.851 88.192Z" fill="#123340"/>
<path d="M381.5 51H301.5L274 83" stroke="#123340"/>
</svg>
