<svg width="66" height="65" viewBox="0 0 66 65" fill="none" xmlns="http://www.w3.org/2000/svg">
<path d="M46.5284 0H19.6144C9.09758 0 0.571411 8.52617 0.571411 19.043V45.957C0.571411 56.4738 9.09758 65 19.6144 65H46.5284C57.0452 65 65.5714 56.4738 65.5714 45.957V19.043C65.5714 8.52617 57.0452 0 46.5284 0ZM42.9458 34.7445L27.6848 50.0056C26.4457 51.2446 24.4361 51.2446 23.1957 50.0056C21.9567 48.7665 21.9567 46.7568 23.1957 45.5165L36.2122 32.5L23.1957 19.4835C21.9567 18.2444 21.9567 16.2348 23.1957 14.9944C24.4348 13.7554 26.4445 13.7554 27.6848 14.9944L42.9458 30.2555C44.1849 31.4945 44.1849 33.5042 42.9458 34.7445Z" fill="#00ADEE"/>
</svg>
