<svg width="32" height="20" viewBox="0 0 32 20" fill="none" xmlns="http://www.w3.org/2000/svg">
<path d="M31.843 1.475C31.849 1.086 31.697 0.711 31.425 0.433C31.154 0.156 30.779 0 30.39 0H23.994C23.813 0 23.65 0.109 23.581 0.276C23.514 0.443 23.553 0.635 23.68 0.763L24.913 1.995C25.108 2.189 25.219 2.452 25.219 2.727C25.219 3.001 25.111 3.265 24.914 3.459L18.654 9.716C18.118 10.253 17.249 10.253 16.715 9.716L12.676 5.677C12.437 5.438 12.114 5.304 11.776 5.304C11.438 5.304 11.114 5.438 10.875 5.677L0.372 16.174C-0.124 16.672 -0.124 17.479 0.372 17.977L1.726 19.329C1.965 19.568 2.288 19.701 2.626 19.701C2.964 19.701 3.287 19.568 3.526 19.331L10.803 12.055C11.339 11.52 12.208 11.52 12.743 12.055L16.711 16.024C16.969 16.28 17.316 16.423 17.682 16.423C18.048 16.423 18.397 16.277 18.655 16.024L28.071 6.607C28.264 6.413 28.528 6.304 28.801 6.304C29.075 6.304 29.34 6.413 29.532 6.608L30.985 8.065C31.112 8.192 31.301 8.231 31.469 8.164C31.635 8.097 31.742 7.936 31.748 7.757L31.843 1.475Z" fill="#00ADEE"/>
</svg>
