<svg width="66" height="65" viewBox="0 0 66 65" fill="none" xmlns="http://www.w3.org/2000/svg">
<path d="M19.4715 0H46.3856C56.9024 0 65.4286 8.52617 65.4286 19.043V45.957C65.4286 56.4738 56.9024 65 46.3856 65H19.4715C8.95475 65 0.428581 56.4738 0.428581 45.957V19.043C0.428581 8.52617 8.95475 0 19.4715 0ZM23.0542 34.7445L38.3152 50.0056C39.5543 51.2446 41.5639 51.2446 42.8043 50.0056C44.0433 48.7665 44.0433 46.7568 42.8043 45.5165L29.7878 32.5L42.8043 19.4835C44.0433 18.2444 44.0433 16.2348 42.8043 14.9944C41.5652 13.7554 39.5555 13.7554 38.3152 14.9944L23.0542 30.2555C21.8151 31.4945 21.8151 33.5042 23.0542 34.7445Z" fill="#00ADEE"/>
</svg>
