<svg width="40" height="40" viewBox="0 0 40 40" fill="none" xmlns="http://www.w3.org/2000/svg">
<path fill-rule="evenodd" clip-rule="evenodd" d="M18.4466 35.5065C18.0376 35.4666 17.6334 35.4109 17.2343 35.3402C17.0647 35.3101 16.9025 35.4233 16.8725 35.5929C16.8424 35.7625 16.9557 35.9246 17.1253 35.9547C17.5402 36.0284 17.9608 36.0863 18.3861 36.1278C18.5575 36.1444 18.7103 36.0189 18.7269 35.8473C18.7437 35.6759 18.618 35.5231 18.4466 35.5065ZM23.332 35.218C22.9359 35.305 22.5341 35.3769 22.1275 35.4331C21.9569 35.4566 21.8375 35.6142 21.861 35.7848C21.8847 35.9555 22.0423 36.0749 22.2129 36.0514C22.636 35.9929 23.0538 35.9182 23.4658 35.8277C23.634 35.7907 23.7407 35.6241 23.7037 35.4559C23.6668 35.2876 23.5002 35.1811 23.332 35.218ZM16.039 35.0789C15.6424 34.9757 15.2518 34.8572 14.8682 34.7242C14.7053 34.6678 14.5275 34.7541 14.471 34.9168C14.4145 35.0797 14.501 35.2577 14.6637 35.314C15.0629 35.4524 15.4692 35.5757 15.8818 35.6831C16.0486 35.7264 16.219 35.6263 16.2625 35.4596C16.3058 35.2929 16.2057 35.1224 16.039 35.0789ZM25.6712 34.5068C25.293 34.6553 24.9076 34.7895 24.5157 34.9086C24.3509 34.9588 24.2577 35.1332 24.3079 35.2981C24.3579 35.4629 24.5324 35.5559 24.6972 35.5059C25.105 35.3819 25.5059 35.2422 25.8993 35.0878C26.0598 35.0248 26.1387 34.8434 26.0758 34.6831C26.0129 34.5228 25.8315 34.4437 25.6712 34.5068ZM13.7288 34.2782C13.3542 34.1141 12.987 33.9357 12.6282 33.7437C12.4764 33.6625 12.2871 33.7198 12.2059 33.8716C12.1245 34.0235 12.1819 34.2129 12.3336 34.2941C12.7068 34.4938 13.0887 34.6794 13.4785 34.85C13.6363 34.9191 13.8205 34.847 13.8896 34.6893C13.9587 34.5315 13.8868 34.3472 13.7288 34.2782ZM27.8697 33.4364C27.5188 33.6428 27.1593 33.8359 26.7915 34.015C26.6366 34.0903 26.5721 34.2773 26.6475 34.4322C26.7229 34.5869 26.9098 34.6515 27.0647 34.5762C27.4472 34.3899 27.8213 34.1892 28.1862 33.9745C28.3347 33.8872 28.3843 33.6957 28.2969 33.5472C28.2096 33.3988 28.0181 33.349 27.8697 33.4364ZM11.5729 33.1245C11.2288 32.9041 10.8939 32.6705 10.569 32.4246C10.4316 32.3206 10.2357 32.3477 10.1317 32.4851C10.0279 32.6225 10.0548 32.8184 10.1922 32.9222C10.5302 33.1781 10.8784 33.421 11.2361 33.65C11.3811 33.7431 11.5744 33.7007 11.6673 33.5556C11.7602 33.4106 11.7179 33.2174 11.5729 33.1245ZM29.8743 32.0355C29.5594 32.2944 29.2342 32.5413 28.8993 32.7753C28.7582 32.8738 28.7236 33.0686 28.8223 33.2099C28.9211 33.351 29.1158 33.3854 29.2569 33.2869C29.6051 33.0436 29.9432 32.7869 30.2707 32.5177C30.4038 32.4084 30.4229 32.2115 30.3136 32.0785C30.2042 31.9453 30.0074 31.9261 29.8743 32.0355ZM7.91447 29.8743C7.65559 29.5594 7.40885 29.2341 7.17484 28.8993C7.07612 28.7582 6.88136 28.7236 6.74024 28.8223C6.59911 28.921 6.56451 29.1158 6.66323 29.2569C6.90653 29.6051 7.16316 29.9432 7.43237 30.2707C7.54173 30.4037 7.73859 30.4229 7.87162 30.3135C8.00466 30.2042 8.02398 30.0073 7.91447 29.8743ZM33.1245 28.3772C32.9041 28.7213 32.6706 29.0562 32.4246 29.3811C32.3206 29.5185 32.3477 29.7143 32.4851 29.8183C32.6225 29.9222 32.8184 29.8951 32.9223 29.7577C33.1781 29.4199 33.421 29.0717 33.65 28.714C33.7431 28.569 33.7007 28.3757 33.5557 28.2828C33.4106 28.1899 33.2174 28.2322 33.1245 28.3772ZM6.51357 27.8696C6.30728 27.5188 6.11417 27.1592 5.93514 26.7914C5.85979 26.6365 5.67282 26.5721 5.51791 26.6475C5.36301 26.7228 5.29859 26.9098 5.37394 27.0647C5.56016 27.4472 5.76091 27.8213 5.97559 28.1862C6.06293 28.3347 6.25439 28.3843 6.40286 28.2969C6.55132 28.2096 6.60091 28.0181 6.51357 27.8696ZM34.2782 26.2211C34.1142 26.5959 33.9357 26.9631 33.7437 27.3218C33.6625 27.4737 33.7199 27.6631 33.8716 27.7442C34.0235 27.8256 34.2129 27.7682 34.2941 27.6163C34.4938 27.2431 34.6794 26.8614 34.85 26.4714C34.9191 26.3137 34.8471 26.1296 34.6893 26.0605C34.5315 25.9913 34.3473 26.0634 34.2782 26.2211ZM5.44331 25.6711C5.29484 25.293 5.16061 24.9075 5.04136 24.5156C4.99132 24.3508 4.81679 24.2577 4.652 24.3078C4.4872 24.3579 4.39402 24.5324 4.44421 24.6972C4.5681 25.105 4.70773 25.5059 4.86233 25.8993C4.92526 26.0598 5.10653 26.1387 5.26698 26.0758C5.42728 26.0129 5.50623 25.8314 5.44331 25.6711ZM35.079 23.911C34.9757 24.3077 34.8572 24.6981 34.7242 25.0819C34.6679 25.2446 34.7542 25.4226 34.9169 25.4791C35.0797 25.5354 35.2577 25.4491 35.314 25.2864C35.4524 24.8872 35.5757 24.4809 35.6832 24.0683C35.7265 23.9016 35.6264 23.7309 35.4596 23.6876C35.2929 23.6442 35.1224 23.7443 35.079 23.911ZM4.732 23.332C4.64511 22.9359 4.57319 22.5341 4.51702 22.1275C4.49349 21.9568 4.33574 21.8374 4.16511 21.861C3.99447 21.8846 3.87507 22.0422 3.89874 22.2129C3.95717 22.6359 4.03192 23.0538 4.12241 23.4657C4.15926 23.634 4.32585 23.7407 4.49409 23.7037C4.66233 23.6668 4.769 23.5002 4.732 23.332ZM35.5065 21.5035C35.4667 21.9123 35.4109 22.3167 35.3402 22.7158C35.3101 22.8854 35.4234 23.0475 35.593 23.0776C35.7626 23.1077 35.9247 22.9944 35.9548 22.8249C36.0285 22.4097 36.0863 21.9893 36.1278 21.564C36.1444 21.3926 36.0189 21.2398 35.8474 21.2231C35.676 21.2064 35.5232 21.3321 35.5065 21.5035ZM4.44361 18.4466C4.48346 18.0376 4.53904 17.6334 4.6099 17.2343C4.64001 17.0647 4.52675 16.9025 4.35717 16.8725C4.18758 16.8424 4.02548 16.9556 3.99537 17.1252C3.92166 17.5402 3.86368 17.9607 3.82233 18.386C3.80555 18.5574 3.93125 18.7102 4.10263 18.7269C4.27417 18.7437 4.42683 18.618 4.44361 18.4466ZM35.218 16.6181C35.305 17.0142 35.3769 17.4159 35.4331 17.8226C35.4566 17.9932 35.6142 18.1126 35.7849 18.089C35.9555 18.0654 36.0749 17.9078 36.0514 17.7372C35.993 17.3141 35.9182 16.8963 35.8277 16.4842C35.7907 16.3159 35.6241 16.2094 35.4559 16.2463C35.2877 16.2833 35.1811 16.4499 35.218 16.6181ZM4.87102 16.0389C4.97439 15.6424 5.09275 15.2518 5.22578 14.8681C5.28226 14.7053 5.19597 14.5275 5.03312 14.471C4.87042 14.4145 4.69245 14.501 4.63597 14.6637C4.49769 15.0629 4.37439 15.4692 4.26698 15.8818C4.22368 16.0485 4.32376 16.219 4.4905 16.2625C4.65709 16.3057 4.82773 16.2057 4.87102 16.0389ZM34.5068 14.2789C34.6553 14.6571 34.7895 15.0425 34.9086 15.4344C34.9588 15.5992 35.1332 15.6923 35.2981 15.6422C35.4629 15.592 35.556 15.4177 35.5059 15.2529C35.3819 14.8451 35.2423 14.4442 35.0878 14.0506C35.0249 13.8903 34.8435 13.8112 34.6832 13.8743C34.5229 13.9372 34.4438 14.1185 34.5068 14.2789ZM5.67192 13.7288C5.83597 13.3541 6.01439 12.9869 6.2063 12.6281C6.28765 12.4764 6.23027 12.287 6.07836 12.2058C5.9266 12.1245 5.73724 12.1819 5.65604 12.3336C5.45634 12.7068 5.27072 13.0887 5.10009 13.4785C5.03102 13.6362 5.10293 13.8205 5.26084 13.8896C5.41859 13.9586 5.60286 13.8867 5.67192 13.7288ZM33.4364 12.0803C33.6429 12.4311 33.836 12.7908 34.015 13.1585C34.0903 13.3134 34.2773 13.378 34.4322 13.3026C34.587 13.2271 34.6515 13.0401 34.5762 12.8854C34.39 12.5029 34.1892 12.1288 33.9745 11.7639C33.8872 11.6154 33.6957 11.5657 33.5473 11.653C33.3988 11.7404 33.3491 11.9318 33.4364 12.0803ZM6.82563 11.5729C7.046 11.2287 7.27956 10.8939 7.5254 10.569C7.62937 10.4316 7.60226 10.2356 7.46503 10.1317C7.32765 10.0278 7.1317 10.0548 7.02773 10.1922C6.772 10.5302 6.52915 10.8783 6.29994 11.2361C6.20705 11.3811 6.2493 11.5744 6.39447 11.6672C6.53949 11.7601 6.7326 11.7179 6.82563 11.5729ZM32.0355 10.0758C32.2944 10.3907 32.5413 10.7159 32.7753 11.0506C32.8739 11.1919 33.0686 11.2263 33.2099 11.1278C33.351 11.029 33.3855 10.8343 33.2869 10.693C33.0436 10.345 32.787 10.0067 32.5178 9.67938C32.4084 9.54635 32.2115 9.52702 32.0785 9.63638C31.9453 9.7459 31.9262 9.94275 32.0355 10.0758ZM10.0758 7.91444C10.3907 7.65556 10.716 7.40882 11.0506 7.17481C11.1919 7.07609 11.2264 6.88133 11.1278 6.74021C11.0291 6.59908 10.8343 6.56448 10.693 6.6632C10.345 6.9065 10.0068 7.16313 9.67941 7.43234C9.54638 7.5417 9.52705 7.73856 9.63642 7.87159C9.74593 8.00462 9.94278 8.02395 10.0758 7.91444ZM28.3772 6.8256C28.7214 7.04597 29.0562 7.27953 29.3811 7.52537C29.5185 7.62934 29.7143 7.60223 29.8183 7.465C29.9223 7.32762 29.8951 7.13167 29.7578 7.0277C29.4199 6.77197 29.0718 6.52912 28.714 6.29991C28.569 6.20702 28.3757 6.24927 28.2829 6.39444C28.19 6.53946 28.2322 6.73257 28.3772 6.8256ZM12.0803 6.51354C12.4312 6.30725 12.7909 6.11414 13.1585 5.93511C13.3134 5.85976 13.378 5.67279 13.3026 5.51788C13.2271 5.36298 13.0402 5.29856 12.8854 5.37391C12.5029 5.56013 12.1289 5.76088 11.7639 5.97556C11.6154 6.0629 11.5657 6.25436 11.653 6.40283C11.7404 6.55129 11.9318 6.60088 12.0803 6.51354ZM26.2211 5.67189C26.596 5.83594 26.9632 6.01436 27.3218 6.20627C27.4737 6.28762 27.6631 6.23024 27.7443 6.07833C27.8256 5.92657 27.7683 5.73721 27.6163 5.65601C27.2432 5.45631 26.8614 5.27069 26.4715 5.10006C26.3137 5.03099 26.1296 5.1029 26.0605 5.26081C25.9913 5.41856 26.0634 5.60283 26.2211 5.67189ZM14.279 5.44328C14.6571 5.29481 15.0426 5.16058 15.4345 5.04133C15.5993 4.99129 15.6923 4.81676 15.6423 4.65197C15.5921 4.48717 15.4177 4.39399 15.2529 4.44418C14.8451 4.56807 14.4442 4.7077 14.0506 4.8623C13.8903 4.92522 13.8112 5.1065 13.8743 5.26695C13.9372 5.42725 14.1185 5.5062 14.279 5.44328ZM23.911 4.87099C24.3077 4.97436 24.6981 5.09272 25.082 5.22575C25.2447 5.28223 25.4226 5.19594 25.4791 5.03309C25.5354 4.87039 25.4492 4.69242 25.2865 4.63594C24.8872 4.49766 24.4809 4.37436 24.0683 4.26695C23.9016 4.22365 23.7309 4.32373 23.6877 4.49047C23.6442 4.65706 23.7443 4.8277 23.911 4.87099ZM16.6181 4.73197C17.0142 4.64507 17.4159 4.57316 17.8226 4.51698C17.9933 4.49346 18.1127 4.33571 18.089 4.16507C18.0655 3.99444 17.9079 3.87504 17.7372 3.89871C17.3142 3.95713 16.8963 4.03189 16.4842 4.12238C16.316 4.15923 16.2094 4.32582 16.2463 4.49406C16.2833 4.6623 16.4499 4.76897 16.6181 4.73197ZM21.5035 4.44358C21.9124 4.48343 22.3167 4.53901 22.7158 4.60987C22.8854 4.63998 23.0475 4.52672 23.0776 4.35713C23.1077 4.18755 22.9945 4.02545 22.8249 3.99534C22.4097 3.92163 21.9894 3.86365 21.5641 3.8223C21.3927 3.80552 21.2399 3.93122 21.2231 4.1026C21.2065 4.27414 21.3321 4.4268 21.5035 4.44358Z" fill="#26D237"/>
<path fill-rule="evenodd" clip-rule="evenodd" d="M18.8084 25.0801V25.1628C18.8084 25.8067 19.3311 26.3295 19.975 26.3295C20.619 26.3295 21.1417 25.8067 21.1417 25.1628V25.0425C22.3258 24.5616 23.1616 23.3995 23.1616 22.0436C23.1616 21.1832 22.9834 20.4208 22.5359 19.8564C22.0722 19.2716 21.3029 18.8083 19.9263 18.8083C19.6205 18.8083 19.4011 18.7979 19.264 18.6827C19.1885 18.6193 19.1612 18.5289 19.1441 18.4298C19.1169 18.271 19.1218 18.0912 19.1218 17.9063C19.1218 17.4085 19.526 17.0045 20.0237 17.0045C20.4261 17.0045 20.7673 17.2683 20.8834 17.6325C21.0791 18.246 21.736 18.5851 22.3495 18.3895C22.963 18.1938 23.3022 17.5369 23.1065 16.9234C22.8034 15.9733 22.0731 15.2133 21.1417 14.8699V14.7871C21.1417 14.1432 20.619 13.6205 19.975 13.6205C19.3311 13.6205 18.8084 14.1432 18.8084 14.7871L18.8085 14.9074C17.6243 15.3884 16.7883 16.5505 16.7883 17.9063C16.7883 18.9731 17.0647 19.8822 17.7622 20.4686C18.2229 20.856 18.8984 21.1417 19.9263 21.1417C20.1555 21.1417 20.3428 21.1526 20.492 21.1904C20.5852 21.214 20.659 21.2451 20.7074 21.3059C20.7675 21.3818 20.7924 21.4758 20.8076 21.5776C20.8292 21.7219 20.8283 21.8801 20.8283 22.0436C20.8283 22.5414 20.4241 22.9456 19.9263 22.9456C19.524 22.9456 19.1828 22.6816 19.0667 22.3176C18.871 21.7041 18.2141 21.3649 17.6006 21.5606C16.9871 21.7562 16.6478 22.4131 16.8436 23.0266C17.1465 23.9767 17.877 24.7367 18.8084 25.0801Z" fill="#26D237"/>
<path fill-rule="evenodd" clip-rule="evenodd" d="M19.975 7.80273C13.2569 7.80273 7.8027 13.257 7.8027 19.975C7.8027 26.6931 13.2569 32.1473 19.975 32.1473C26.693 32.1473 32.1473 26.6931 32.1473 19.975C32.1473 13.257 26.693 7.80273 19.975 7.80273ZM19.975 10.9317C24.9663 10.9317 29.0184 14.9839 29.0184 19.975C29.0184 24.9663 24.9663 29.0185 19.975 29.0185C14.9838 29.0185 10.9317 24.9663 10.9317 19.975C10.9317 14.9839 14.9838 10.9317 19.975 10.9317Z" fill="#26D237"/>
<path fill-rule="evenodd" clip-rule="evenodd" d="M19.975 37.7652C21.0085 37.7652 21.8476 36.9261 21.8476 35.8926C21.8476 34.859 21.0085 34.0199 19.975 34.0199C18.9414 34.0199 18.1023 34.859 18.1023 35.8926C18.1023 36.9261 18.9414 37.7652 19.975 37.7652ZM7.39536 32.5546C8.1263 33.2855 9.31296 33.2855 10.0437 32.5546C10.7745 31.8238 10.7745 30.6371 10.0437 29.9063C9.31296 29.1754 8.1263 29.1754 7.39536 29.9063C6.66457 30.6371 6.66457 31.8238 7.39536 32.5546ZM32.5546 32.5546C33.2855 31.8238 33.2855 30.6371 32.5546 29.9063C31.8238 29.1754 30.6372 29.1754 29.9064 29.9063C29.1754 30.6371 29.1754 31.8238 29.9064 32.5546C30.6372 33.2855 31.8238 33.2855 32.5546 32.5546ZM37.7652 19.975C37.7652 18.9414 36.9261 18.1023 35.8926 18.1023C34.859 18.1023 34.0199 18.9414 34.0199 19.975C34.0199 21.0085 34.859 21.8476 35.8926 21.8476C36.9261 21.8476 37.7652 21.0085 37.7652 19.975ZM2.18472 19.975C2.18472 21.0085 3.02382 21.8476 4.05738 21.8476C5.09094 21.8476 5.93004 21.0085 5.93004 19.975C5.93004 18.9414 5.09094 18.1023 4.05738 18.1023C3.02382 18.1023 2.18472 18.9414 2.18472 19.975ZM32.5546 7.39533C31.8238 6.66454 30.6372 6.66454 29.9064 7.39533C29.1754 8.12627 29.1754 9.31293 29.9064 10.0437C30.6372 10.7745 31.8238 10.7745 32.5546 10.0437C33.2855 9.31293 33.2855 8.12627 32.5546 7.39548V7.39533ZM7.39536 7.39548C6.66457 8.12627 6.66457 9.31293 7.39536 10.0437C8.1263 10.7745 9.31296 10.7745 10.0437 10.0437C10.7745 9.31293 10.7745 8.12627 10.0437 7.39533C9.31296 6.66454 8.1263 6.66454 7.39551 7.39533L7.39536 7.39548ZM19.975 2.18469C18.9414 2.18469 18.1023 3.02379 18.1023 4.05735C18.1023 5.09091 18.9414 5.93001 19.975 5.93001C21.0085 5.93001 21.8476 5.09091 21.8476 4.05735C21.8476 3.02379 21.0085 2.18469 19.975 2.18469Z" fill="#26D237"/>
</svg>
