<svg width="205" height="33" viewBox="0 0 205 33" fill="none" xmlns="http://www.w3.org/2000/svg">
<path d="M187.16 2.92705C187.459 2.00574 188.763 2.00574 189.062 2.92705L191.504 10.4415C191.638 10.8535 192.022 11.1325 192.455 11.1325H200.356C201.325 11.1325 201.728 12.3721 200.944 12.9415L194.552 17.5857C194.201 17.8404 194.054 18.2917 194.188 18.7038L196.63 26.2182C196.929 27.1395 195.875 27.9057 195.091 27.3363L188.699 22.6921C188.348 22.4374 187.874 22.4374 187.523 22.6921L181.131 27.3363C180.347 27.9057 179.293 27.1395 179.592 26.2182L182.034 18.7038C182.168 18.2917 182.021 17.8404 181.671 17.5857L175.278 12.9415C174.495 12.3721 174.897 11.1325 175.866 11.1325H183.767C184.201 11.1325 184.585 10.8535 184.718 10.4415L187.16 2.92705Z" fill="#FAA500"/>
<path d="M144.16 2.92705C144.459 2.00574 145.763 2.00574 146.062 2.92705L148.504 10.4415C148.638 10.8535 149.022 11.1325 149.455 11.1325H157.356C158.325 11.1325 158.728 12.3721 157.944 12.9415L151.552 17.5857C151.201 17.8404 151.054 18.2917 151.188 18.7038L153.63 26.2182C153.929 27.1395 152.875 27.9057 152.091 27.3363L145.699 22.6921C145.348 22.4374 144.874 22.4374 144.523 22.6921L138.131 27.3363C137.347 27.9057 136.293 27.1395 136.592 26.2182L139.034 18.7038C139.168 18.2917 139.021 17.8404 138.671 17.5857L132.278 12.9415C131.495 12.3721 131.897 11.1325 132.866 11.1325H140.767C141.201 11.1325 141.585 10.8535 141.718 10.4415L144.16 2.92705Z" fill="#FAA500"/>
<path d="M101.16 2.92705C101.459 2.00574 102.763 2.00574 103.062 2.92705L105.504 10.4415C105.638 10.8535 106.022 11.1325 106.455 11.1325H114.356C115.325 11.1325 115.728 12.3721 114.944 12.9415L108.552 17.5857C108.201 17.8404 108.054 18.2917 108.188 18.7038L110.63 26.2182C110.929 27.1395 109.875 27.9057 109.091 27.3363L102.699 22.6921C102.348 22.4374 101.874 22.4374 101.523 22.6921L95.1311 27.3363C94.3474 27.9057 93.2929 27.1395 93.5923 26.2182L96.0339 18.7038C96.1678 18.2917 96.0211 17.8404 95.6706 17.5857L89.2784 12.9415C88.4947 12.3721 88.8975 11.1325 89.8662 11.1325H97.7674C98.2006 11.1325 98.5846 10.8535 98.7185 10.4415L101.16 2.92705Z" fill="#FAA500"/>
<path d="M58.1601 2.92705C58.4594 2.00574 59.7628 2.00574 60.0622 2.92705L62.5038 10.4415C62.6376 10.8535 63.0216 11.1325 63.4548 11.1325H71.356C72.3247 11.1325 72.7275 12.3721 71.9438 12.9415L65.5516 17.5857C65.2011 17.8404 65.0545 18.2917 65.1883 18.7038L67.6299 26.2182C67.9293 27.1395 66.8748 27.9057 66.0911 27.3363L59.6989 22.6921C59.3484 22.4374 58.8738 22.4374 58.5233 22.6921L52.1311 27.3363C51.3474 27.9057 50.2929 27.1395 50.5923 26.2182L53.0339 18.7038C53.1678 18.2917 53.0211 17.8404 52.6706 17.5857L46.2784 12.9415C45.4947 12.3721 45.8975 11.1325 46.8662 11.1325H54.7674C55.2006 11.1325 55.5846 10.8535 55.7185 10.4415L58.1601 2.92705Z" fill="#FAA500"/>
<path d="M15.1601 2.92705C15.4594 2.00574 16.7628 2.00574 17.0622 2.92705L19.5038 10.4415C19.6376 10.8535 20.0216 11.1325 20.4548 11.1325H28.356C29.3247 11.1325 29.7275 12.3721 28.9438 12.9415L22.5516 17.5857C22.2011 17.8404 22.0545 18.2917 22.1883 18.7038L24.6299 26.2182C24.9293 27.1395 23.8748 27.9057 23.0911 27.3363L16.6989 22.6921C16.3484 22.4374 15.8738 22.4374 15.5233 22.6921L9.13113 27.3363C8.34742 27.9057 7.29294 27.1395 7.59229 26.2182L10.0339 18.7038C10.1678 18.2917 10.0211 17.8404 9.67062 17.5857L3.27843 12.9415C2.49472 12.3721 2.89749 11.1325 3.86622 11.1325H11.7674C12.2006 11.1325 12.5846 10.8535 12.7185 10.4415L15.1601 2.92705Z" fill="#FAA500"/>
</svg>
